M48
;GenerationSoftware,Autodesk,EAGLE,9.6.2*%
;CreationDate,2023-04-29T12:27:24Z*%
FMAT,2
ICI,OFF
METRIC,TZ,000.000
T6C0.305
T5C0.800
T4C0.889
T3C1.000
T2C1.400
T1C3.175
%
G90
M71
T1
X72390Y46990
X3810Y3810
X72390Y3810
X3810Y46990
T2
X12660Y22125
X7660Y22125
X7660Y9625
X12660Y9625
T3
X37465Y3810
X67945Y80010
X65405Y80010
X62865Y80010
X60325Y80010
X57785Y80010
X55245Y80010
X52705Y80010
X50165Y80010
X47625Y80010
X45085Y80010
X42545Y80010
X40005Y80010
X37465Y80010
X34925Y80010
X32385Y80010
X29845Y80010
X27305Y80010
X24765Y80010
X22225Y80010
X19685Y80010
X67945Y3810
X65405Y3810
X62865Y3810
X60325Y3810
X57785Y3810
X55245Y3810
X52705Y3810
X50165Y3810
X47625Y3810
X45085Y3810
X42545Y3810
X40005Y3810
X34925Y3810
X32385Y3810
X29845Y3810
X27305Y3810
X24765Y3810
X22225Y3810
X19685Y3810
X17780Y30480
X17780Y27940
X17780Y25400
X17780Y22860
X17780Y20320
X17780Y17780
X2540Y17780
X2540Y20320
X2540Y30480
X2540Y27940
T4
X47430Y37820
X47430Y40360
X44890Y37820
X44890Y40360
X42350Y37820
X42350Y40360
X39810Y37820
X39810Y40360
X37270Y37820
X37270Y40360
X32190Y12420
X34730Y40360
X32190Y37820
X32190Y40360
X29650Y37820
X29650Y40360
X27110Y37820
X27110Y40360
X55050Y14960
X70290Y12420
X70290Y14960
X34730Y37820
X67750Y12420
X67750Y14960
X65210Y12420
X65210Y14960
X62670Y12420
X62670Y14960
X60130Y12420
X60130Y14960
X57590Y12420
X57590Y14960
X55050Y12420
X52510Y12420
X52510Y14960
X49970Y12420
X49970Y14960
X47430Y12420
X47430Y14960
X44890Y12420
X44890Y14960
X42350Y12420
X42350Y14960
X39810Y12420
X39810Y14960
X37270Y12420
X37270Y14960
X34730Y12420
X34730Y14960
X32190Y14960
X29650Y12420
X29650Y14960
X27110Y12420
X27110Y14960
X57590Y40360
X70290Y37820
X70290Y40360
X67750Y37820
X67750Y40360
X65210Y37820
X65210Y40360
X62670Y37820
X62670Y40360
X60130Y37820
X60130Y40360
X57590Y37820
X55050Y37820
X55050Y40360
X52510Y37820
X52510Y40360
X49970Y37820
X49970Y40360
T5
X10160Y38175
X10160Y31675
T6
X9525Y6350
X10795Y4445
X56388Y7112
X59055Y6985
M30