G04 EAGLE Gerber RS-274X export*
G75*
%MOMM*%
%FSLAX34Y34*%
%LPD*%
%INTop Copper*%
%IPPOS*%
%AMOC8*
5,1,8,0,0,1.08239X$1,22.5*%
G01*
%ADD10R,1.524000X1.524000*%
%ADD11P,1.649562X8X202.500000*%
%ADD12C,1.120000*%
%ADD13C,1.960000*%
%ADD14R,0.949959X1.031241*%
%ADD15C,4.445000*%
%ADD16C,1.016000*%
%ADD17R,1.676400X1.676400*%
%ADD18C,1.676400*%
%ADD19C,1.778000*%
%ADD20C,0.254000*%
%ADD21C,0.609600*%

G36*
X759444Y504308D02*
X759444Y504308D01*
X759437Y504427D01*
X759424Y504465D01*
X759419Y504506D01*
X759376Y504616D01*
X759339Y504729D01*
X759317Y504764D01*
X759302Y504801D01*
X759233Y504897D01*
X759169Y504998D01*
X759139Y505026D01*
X759116Y505059D01*
X759024Y505135D01*
X758937Y505216D01*
X758902Y505236D01*
X758871Y505261D01*
X758763Y505312D01*
X758659Y505370D01*
X758619Y505380D01*
X758583Y505397D01*
X758466Y505419D01*
X758351Y505449D01*
X758291Y505453D01*
X758271Y505457D01*
X758250Y505455D01*
X758190Y505459D01*
X3810Y505459D01*
X3692Y505444D01*
X3573Y505437D01*
X3535Y505424D01*
X3494Y505419D01*
X3384Y505376D01*
X3271Y505339D01*
X3236Y505317D01*
X3199Y505302D01*
X3103Y505233D01*
X3002Y505169D01*
X2974Y505139D01*
X2941Y505116D01*
X2865Y505024D01*
X2784Y504937D01*
X2764Y504902D01*
X2739Y504871D01*
X2688Y504763D01*
X2630Y504659D01*
X2620Y504619D01*
X2603Y504583D01*
X2581Y504466D01*
X2551Y504351D01*
X2547Y504291D01*
X2543Y504271D01*
X2545Y504250D01*
X2541Y504190D01*
X2541Y3810D01*
X2556Y3692D01*
X2563Y3573D01*
X2576Y3535D01*
X2581Y3494D01*
X2624Y3384D01*
X2661Y3271D01*
X2683Y3236D01*
X2698Y3199D01*
X2767Y3103D01*
X2831Y3002D01*
X2861Y2974D01*
X2884Y2941D01*
X2976Y2865D01*
X3063Y2784D01*
X3098Y2764D01*
X3129Y2739D01*
X3237Y2688D01*
X3341Y2630D01*
X3381Y2620D01*
X3417Y2603D01*
X3534Y2581D01*
X3649Y2551D01*
X3709Y2547D01*
X3729Y2543D01*
X3750Y2545D01*
X3810Y2541D01*
X758190Y2541D01*
X758308Y2556D01*
X758427Y2563D01*
X758465Y2576D01*
X758506Y2581D01*
X758616Y2624D01*
X758729Y2661D01*
X758764Y2683D01*
X758801Y2698D01*
X758897Y2767D01*
X758998Y2831D01*
X759026Y2861D01*
X759059Y2884D01*
X759135Y2976D01*
X759216Y3063D01*
X759236Y3098D01*
X759261Y3129D01*
X759312Y3237D01*
X759370Y3341D01*
X759380Y3381D01*
X759397Y3417D01*
X759419Y3534D01*
X759449Y3649D01*
X759453Y3709D01*
X759457Y3729D01*
X759455Y3750D01*
X759459Y3810D01*
X759459Y504190D01*
X759444Y504308D01*
G37*
%LPC*%
G36*
X69850Y436881D02*
X69850Y436881D01*
X69968Y436896D01*
X70087Y436903D01*
X70125Y436916D01*
X70166Y436921D01*
X70276Y436964D01*
X70389Y437001D01*
X70424Y437023D01*
X70461Y437038D01*
X70557Y437108D01*
X70658Y437171D01*
X70686Y437201D01*
X70719Y437224D01*
X70795Y437316D01*
X70876Y437403D01*
X70896Y437438D01*
X70921Y437469D01*
X70972Y437577D01*
X71030Y437681D01*
X71040Y437721D01*
X71057Y437757D01*
X71079Y437874D01*
X71109Y437989D01*
X71113Y438050D01*
X71117Y438070D01*
X71115Y438090D01*
X71119Y438150D01*
X71119Y494031D01*
X690881Y494031D01*
X690881Y438150D01*
X690896Y438032D01*
X690903Y437913D01*
X690916Y437875D01*
X690921Y437834D01*
X690964Y437724D01*
X691001Y437611D01*
X691023Y437576D01*
X691038Y437539D01*
X691108Y437443D01*
X691171Y437342D01*
X691201Y437314D01*
X691224Y437281D01*
X691316Y437206D01*
X691403Y437124D01*
X691438Y437104D01*
X691469Y437079D01*
X691577Y437028D01*
X691681Y436970D01*
X691721Y436960D01*
X691757Y436943D01*
X691874Y436921D01*
X691989Y436891D01*
X692050Y436887D01*
X692070Y436883D01*
X692090Y436885D01*
X692150Y436881D01*
X748031Y436881D01*
X748031Y71119D01*
X692150Y71119D01*
X692032Y71104D01*
X691913Y71097D01*
X691875Y71084D01*
X691834Y71079D01*
X691724Y71036D01*
X691611Y70999D01*
X691576Y70977D01*
X691539Y70962D01*
X691443Y70893D01*
X691342Y70829D01*
X691314Y70799D01*
X691281Y70776D01*
X691206Y70684D01*
X691124Y70597D01*
X691104Y70562D01*
X691079Y70531D01*
X691028Y70423D01*
X690970Y70319D01*
X690960Y70279D01*
X690943Y70243D01*
X690921Y70126D01*
X690891Y70011D01*
X690887Y69951D01*
X690883Y69931D01*
X690885Y69910D01*
X690883Y69892D01*
X690883Y69891D01*
X690881Y69850D01*
X690881Y13969D01*
X71119Y13969D01*
X71119Y69850D01*
X71104Y69968D01*
X71097Y70087D01*
X71084Y70125D01*
X71079Y70166D01*
X71036Y70276D01*
X70999Y70389D01*
X70977Y70424D01*
X70962Y70461D01*
X70893Y70557D01*
X70829Y70658D01*
X70799Y70686D01*
X70776Y70719D01*
X70684Y70795D01*
X70597Y70876D01*
X70562Y70896D01*
X70531Y70921D01*
X70423Y70972D01*
X70319Y71030D01*
X70279Y71040D01*
X70243Y71057D01*
X70126Y71079D01*
X70011Y71109D01*
X69951Y71113D01*
X69931Y71117D01*
X69910Y71115D01*
X69850Y71119D01*
X13969Y71119D01*
X13969Y436881D01*
X69850Y436881D01*
G37*
%LPD*%
%LPC*%
G36*
X40639Y472439D02*
X40639Y472439D01*
X40639Y494536D01*
X42255Y494354D01*
X44967Y493735D01*
X47592Y492817D01*
X50099Y491610D01*
X52454Y490130D01*
X54629Y488395D01*
X56595Y486429D01*
X58330Y484254D01*
X59810Y481899D01*
X61017Y479392D01*
X61935Y476767D01*
X62554Y474055D01*
X62736Y472439D01*
X40639Y472439D01*
G37*
%LPD*%
%LPC*%
G36*
X726439Y472439D02*
X726439Y472439D01*
X726439Y494536D01*
X728055Y494354D01*
X730767Y493735D01*
X733392Y492817D01*
X735899Y491610D01*
X738254Y490130D01*
X740429Y488395D01*
X742395Y486429D01*
X744130Y484254D01*
X745610Y481899D01*
X746817Y479392D01*
X747735Y476767D01*
X748354Y474055D01*
X748536Y472439D01*
X726439Y472439D01*
G37*
%LPD*%
%LPC*%
G36*
X40639Y40639D02*
X40639Y40639D01*
X40639Y62736D01*
X42255Y62554D01*
X44967Y61935D01*
X47592Y61017D01*
X50099Y59810D01*
X52454Y58330D01*
X54629Y56595D01*
X56595Y54629D01*
X58330Y52454D01*
X59810Y50099D01*
X61017Y47592D01*
X61935Y44967D01*
X62554Y42255D01*
X62736Y40639D01*
X40639Y40639D01*
G37*
%LPD*%
%LPC*%
G36*
X726439Y40639D02*
X726439Y40639D01*
X726439Y62736D01*
X728055Y62554D01*
X730767Y61935D01*
X733392Y61017D01*
X735899Y59810D01*
X738254Y58330D01*
X740429Y56595D01*
X742395Y54629D01*
X744130Y52454D01*
X745610Y50099D01*
X746817Y47592D01*
X747735Y44967D01*
X748354Y42255D01*
X748536Y40639D01*
X726439Y40639D01*
G37*
%LPD*%
%LPC*%
G36*
X699264Y472439D02*
X699264Y472439D01*
X699446Y474055D01*
X700065Y476767D01*
X700983Y479392D01*
X702190Y481899D01*
X703670Y484254D01*
X705405Y486429D01*
X707371Y488395D01*
X709546Y490130D01*
X711901Y491610D01*
X714408Y492817D01*
X717033Y493735D01*
X719745Y494354D01*
X721361Y494536D01*
X721361Y472439D01*
X699264Y472439D01*
G37*
%LPD*%
%LPC*%
G36*
X13464Y472439D02*
X13464Y472439D01*
X13646Y474055D01*
X14265Y476767D01*
X15183Y479392D01*
X16390Y481899D01*
X17870Y484254D01*
X19605Y486429D01*
X21571Y488395D01*
X23746Y490130D01*
X26101Y491610D01*
X28608Y492817D01*
X31233Y493735D01*
X33945Y494354D01*
X35561Y494536D01*
X35561Y472439D01*
X13464Y472439D01*
G37*
%LPD*%
%LPC*%
G36*
X726439Y467361D02*
X726439Y467361D01*
X748536Y467361D01*
X748354Y465745D01*
X747735Y463033D01*
X746817Y460408D01*
X745610Y457901D01*
X744130Y455546D01*
X742395Y453371D01*
X740429Y451405D01*
X738254Y449670D01*
X735899Y448190D01*
X733392Y446983D01*
X730767Y446065D01*
X728055Y445446D01*
X726439Y445264D01*
X726439Y467361D01*
G37*
%LPD*%
%LPC*%
G36*
X40639Y467361D02*
X40639Y467361D01*
X62736Y467361D01*
X62554Y465745D01*
X61935Y463033D01*
X61017Y460408D01*
X59810Y457901D01*
X58330Y455546D01*
X56595Y453371D01*
X54629Y451405D01*
X52454Y449670D01*
X50099Y448190D01*
X47592Y446983D01*
X44967Y446065D01*
X42255Y445446D01*
X40639Y445264D01*
X40639Y467361D01*
G37*
%LPD*%
%LPC*%
G36*
X13464Y40639D02*
X13464Y40639D01*
X13646Y42255D01*
X14265Y44967D01*
X15183Y47592D01*
X16390Y50099D01*
X17870Y52454D01*
X19605Y54629D01*
X21571Y56595D01*
X23746Y58330D01*
X26101Y59810D01*
X28608Y61017D01*
X31233Y61935D01*
X33945Y62554D01*
X35561Y62736D01*
X35561Y40639D01*
X13464Y40639D01*
G37*
%LPD*%
%LPC*%
G36*
X699264Y40639D02*
X699264Y40639D01*
X699446Y42255D01*
X700065Y44967D01*
X700983Y47592D01*
X702190Y50099D01*
X703670Y52454D01*
X705405Y54629D01*
X707371Y56595D01*
X709546Y58330D01*
X711901Y59810D01*
X714408Y61017D01*
X717033Y61935D01*
X719745Y62554D01*
X721361Y62736D01*
X721361Y40639D01*
X699264Y40639D01*
G37*
%LPD*%
%LPC*%
G36*
X726439Y35561D02*
X726439Y35561D01*
X748536Y35561D01*
X748354Y33945D01*
X747735Y31233D01*
X746817Y28608D01*
X745610Y26101D01*
X744130Y23746D01*
X742395Y21571D01*
X740429Y19605D01*
X738254Y17870D01*
X735899Y16390D01*
X733392Y15183D01*
X730767Y14265D01*
X728055Y13646D01*
X726439Y13464D01*
X726439Y35561D01*
G37*
%LPD*%
%LPC*%
G36*
X40639Y35561D02*
X40639Y35561D01*
X62736Y35561D01*
X62554Y33945D01*
X61935Y31233D01*
X61017Y28608D01*
X59810Y26101D01*
X58330Y23746D01*
X56595Y21571D01*
X54629Y19605D01*
X52454Y17870D01*
X50099Y16390D01*
X47592Y15183D01*
X44967Y14265D01*
X42255Y13646D01*
X40639Y13464D01*
X40639Y35561D01*
G37*
%LPD*%
%LPC*%
G36*
X719745Y445446D02*
X719745Y445446D01*
X717033Y446065D01*
X714408Y446983D01*
X711901Y448190D01*
X709546Y449670D01*
X707371Y451405D01*
X705405Y453371D01*
X703670Y455546D01*
X702190Y457901D01*
X700983Y460408D01*
X700065Y463033D01*
X699446Y465745D01*
X699264Y467361D01*
X721361Y467361D01*
X721361Y445264D01*
X719745Y445446D01*
G37*
%LPD*%
%LPC*%
G36*
X33945Y445446D02*
X33945Y445446D01*
X31233Y446065D01*
X28608Y446983D01*
X26101Y448190D01*
X23746Y449670D01*
X21571Y451405D01*
X19605Y453371D01*
X17870Y455546D01*
X16390Y457901D01*
X15183Y460408D01*
X14265Y463033D01*
X13646Y465745D01*
X13464Y467361D01*
X35561Y467361D01*
X35561Y445264D01*
X33945Y445446D01*
G37*
%LPD*%
%LPC*%
G36*
X719745Y13646D02*
X719745Y13646D01*
X717033Y14265D01*
X714408Y15183D01*
X711901Y16390D01*
X709546Y17870D01*
X707371Y19605D01*
X705405Y21571D01*
X703670Y23746D01*
X702190Y26101D01*
X700983Y28608D01*
X700065Y31233D01*
X699446Y33945D01*
X699264Y35561D01*
X721361Y35561D01*
X721361Y13464D01*
X719745Y13646D01*
G37*
%LPD*%
%LPC*%
G36*
X33945Y13646D02*
X33945Y13646D01*
X31233Y14265D01*
X28608Y15183D01*
X26101Y16390D01*
X23746Y17870D01*
X21571Y19605D01*
X19605Y21571D01*
X17870Y23746D01*
X16390Y26101D01*
X15183Y28608D01*
X14265Y31233D01*
X13646Y33945D01*
X13464Y35561D01*
X35561Y35561D01*
X35561Y13464D01*
X33945Y13646D01*
G37*
%LPD*%
%LPC*%
G36*
X723899Y469899D02*
X723899Y469899D01*
X723899Y469901D01*
X723901Y469901D01*
X723901Y469899D01*
X723899Y469899D01*
G37*
%LPD*%
%LPC*%
G36*
X38099Y469899D02*
X38099Y469899D01*
X38099Y469901D01*
X38101Y469901D01*
X38101Y469899D01*
X38099Y469899D01*
G37*
%LPD*%
%LPC*%
G36*
X723899Y38099D02*
X723899Y38099D01*
X723899Y38101D01*
X723901Y38101D01*
X723901Y38099D01*
X723899Y38099D01*
G37*
%LPD*%
%LPC*%
G36*
X38099Y38099D02*
X38099Y38099D01*
X38099Y38101D01*
X38101Y38101D01*
X38101Y38099D01*
X38099Y38099D01*
G37*
%LPD*%
D10*
X702900Y124200D03*
D11*
X702900Y149600D03*
X677500Y124200D03*
X677500Y149600D03*
X652100Y124200D03*
X652100Y149600D03*
X626700Y124200D03*
X626700Y149600D03*
X601300Y124200D03*
X601300Y149600D03*
X575900Y124200D03*
X575900Y149600D03*
X550500Y124200D03*
X550500Y149600D03*
X525100Y124200D03*
X525100Y149600D03*
X499700Y124200D03*
X499700Y149600D03*
X474300Y124200D03*
X474300Y149600D03*
X448900Y124200D03*
X448900Y149600D03*
X423500Y124200D03*
X423500Y149600D03*
X398100Y124200D03*
X398100Y149600D03*
X372700Y124200D03*
X372700Y149600D03*
X347300Y124200D03*
X347300Y149600D03*
X321900Y124200D03*
X321900Y149600D03*
X296500Y124200D03*
X296500Y149600D03*
X271100Y124200D03*
X271100Y149600D03*
D10*
X702900Y378200D03*
D11*
X702900Y403600D03*
X677500Y378200D03*
X677500Y403600D03*
X652100Y378200D03*
X652100Y403600D03*
X626700Y378200D03*
X626700Y403600D03*
X601300Y378200D03*
X601300Y403600D03*
X575900Y378200D03*
X575900Y403600D03*
X550500Y378200D03*
X550500Y403600D03*
X525100Y378200D03*
X525100Y403600D03*
X499700Y378200D03*
X499700Y403600D03*
X474300Y378200D03*
X474300Y403600D03*
X448900Y378200D03*
X448900Y403600D03*
X423500Y378200D03*
X423500Y403600D03*
X398100Y378200D03*
X398100Y403600D03*
X372700Y378200D03*
X372700Y403600D03*
X347300Y378200D03*
X347300Y403600D03*
X321900Y378200D03*
X321900Y403600D03*
X296500Y378200D03*
X296500Y403600D03*
X271100Y378200D03*
X271100Y403600D03*
D12*
X101600Y381750D03*
X101600Y316750D03*
D13*
X126600Y96250D03*
X76600Y96250D03*
X76600Y221250D03*
X126600Y221250D03*
D14*
X128651Y63500D03*
X112649Y63500D03*
D15*
X38100Y469900D03*
X723900Y469900D03*
X723900Y38100D03*
X38100Y38100D03*
D16*
X673100Y431800D03*
X673100Y88900D03*
X38100Y88900D03*
D17*
X679450Y800100D03*
D18*
X654050Y800100D03*
X628650Y800100D03*
X603250Y800100D03*
X577850Y800100D03*
X552450Y800100D03*
X527050Y800100D03*
X501650Y800100D03*
X476250Y800100D03*
X450850Y800100D03*
X425450Y800100D03*
X400050Y800100D03*
X374650Y800100D03*
X349250Y800100D03*
X323850Y800100D03*
X298450Y800100D03*
X273050Y800100D03*
X247650Y800100D03*
X222250Y800100D03*
X196850Y800100D03*
D17*
X679450Y38100D03*
D18*
X654050Y38100D03*
X628650Y38100D03*
X603250Y38100D03*
X577850Y38100D03*
X552450Y38100D03*
X527050Y38100D03*
X501650Y38100D03*
X476250Y38100D03*
X450850Y38100D03*
X425450Y38100D03*
X400050Y38100D03*
X374650Y38100D03*
X349250Y38100D03*
X323850Y38100D03*
X298450Y38100D03*
X273050Y38100D03*
X247650Y38100D03*
X222250Y38100D03*
X196850Y38100D03*
D19*
X177800Y304800D03*
X177800Y279400D03*
X177800Y254000D03*
X177800Y228600D03*
X177800Y203200D03*
X177800Y177800D03*
X25400Y177800D03*
X25400Y203200D03*
X25400Y304800D03*
X25400Y279400D03*
D20*
X95250Y63500D02*
X112649Y63500D01*
D21*
X95250Y63500D03*
X590550Y69850D03*
X563880Y71120D03*
X107950Y44450D03*
D20*
X636600Y165100D02*
X652100Y149600D01*
X636600Y165100D02*
X546100Y165100D01*
X536530Y155530D01*
X536530Y113116D01*
X527050Y103636D02*
X527050Y38100D01*
X527050Y103636D02*
X536530Y113116D01*
X552450Y103636D02*
X552450Y38100D01*
X561930Y135630D02*
X575900Y149600D01*
X561930Y113116D02*
X552450Y103636D01*
X561930Y113116D02*
X561930Y135630D01*
X577850Y103636D02*
X577850Y38100D01*
X587330Y135630D02*
X601300Y149600D01*
X587330Y113116D02*
X577850Y103636D01*
X587330Y113116D02*
X587330Y135630D01*
X603250Y103636D02*
X603250Y38100D01*
X612730Y135630D02*
X626700Y149600D01*
X612730Y113116D02*
X603250Y103636D01*
X612730Y113116D02*
X612730Y135630D01*
X655650Y171450D02*
X677500Y149600D01*
X501650Y103636D02*
X501650Y38100D01*
X501650Y103636D02*
X513670Y115656D01*
X513670Y158070D01*
X527050Y171450D02*
X655650Y171450D01*
X527050Y171450D02*
X513670Y158070D01*
X508000Y177800D02*
X674700Y177800D01*
X702900Y149600D01*
X476250Y103636D02*
X476250Y38100D01*
X485730Y155530D02*
X508000Y177800D01*
X485730Y113116D02*
X476250Y103636D01*
X485730Y113116D02*
X485730Y155530D01*
X450850Y103636D02*
X450850Y38100D01*
X460330Y135630D02*
X474300Y149600D01*
X460330Y113116D02*
X450850Y103636D01*
X460330Y113116D02*
X460330Y135630D01*
X171789Y316750D02*
X101600Y316750D01*
X171789Y316750D02*
X172539Y317500D01*
X642200Y317500D02*
X702900Y378200D01*
X642200Y317500D02*
X172539Y317500D01*
X126600Y65551D02*
X128651Y63500D01*
X126600Y65551D02*
X126600Y96250D01*
X126600Y221250D01*
X167189Y221250D01*
X172539Y215900D01*
X561228Y215900D01*
X714330Y369002D01*
X714330Y392170D01*
X702900Y403600D01*
M02*
