G04 EAGLE Gerber RS-274X export*
G75*
%MOMM*%
%FSLAX34Y34*%
%LPD*%
%INCopper Layer 2*%
%IPPOS*%
%AMOC8*
5,1,8,0,0,1.08239X$1,22.5*%
G01*
%ADD10C,1.244600*%
%ADD11C,1.120000*%
%ADD12C,1.960000*%
%ADD13C,4.191000*%
%ADD14C,1.400000*%
%ADD15C,0.609600*%

G36*
X758308Y2556D02*
X758308Y2556D01*
X758427Y2563D01*
X758465Y2576D01*
X758506Y2581D01*
X758616Y2624D01*
X758729Y2661D01*
X758764Y2683D01*
X758801Y2698D01*
X758897Y2767D01*
X758998Y2831D01*
X759026Y2861D01*
X759059Y2884D01*
X759135Y2976D01*
X759216Y3063D01*
X759236Y3098D01*
X759261Y3129D01*
X759312Y3237D01*
X759370Y3341D01*
X759380Y3381D01*
X759397Y3417D01*
X759419Y3534D01*
X759449Y3649D01*
X759453Y3709D01*
X759457Y3729D01*
X759455Y3750D01*
X759459Y3810D01*
X759459Y504190D01*
X759444Y504308D01*
X759437Y504427D01*
X759424Y504465D01*
X759419Y504506D01*
X759376Y504616D01*
X759339Y504729D01*
X759317Y504764D01*
X759302Y504801D01*
X759233Y504897D01*
X759169Y504998D01*
X759139Y505026D01*
X759116Y505059D01*
X759024Y505135D01*
X758937Y505216D01*
X758902Y505236D01*
X758871Y505261D01*
X758763Y505312D01*
X758659Y505370D01*
X758619Y505380D01*
X758583Y505397D01*
X758466Y505419D01*
X758351Y505449D01*
X758291Y505453D01*
X758271Y505457D01*
X758250Y505455D01*
X758190Y505459D01*
X3810Y505459D01*
X3692Y505444D01*
X3573Y505437D01*
X3535Y505424D01*
X3494Y505419D01*
X3384Y505376D01*
X3271Y505339D01*
X3236Y505317D01*
X3199Y505302D01*
X3103Y505233D01*
X3002Y505169D01*
X2974Y505139D01*
X2941Y505116D01*
X2865Y505024D01*
X2784Y504937D01*
X2764Y504902D01*
X2739Y504871D01*
X2688Y504763D01*
X2630Y504659D01*
X2620Y504619D01*
X2603Y504583D01*
X2581Y504466D01*
X2551Y504351D01*
X2547Y504291D01*
X2543Y504271D01*
X2545Y504250D01*
X2541Y504190D01*
X2541Y3810D01*
X2556Y3692D01*
X2563Y3573D01*
X2576Y3535D01*
X2581Y3494D01*
X2624Y3384D01*
X2661Y3271D01*
X2683Y3236D01*
X2698Y3199D01*
X2767Y3103D01*
X2831Y3002D01*
X2861Y2974D01*
X2884Y2941D01*
X2976Y2865D01*
X3063Y2784D01*
X3098Y2764D01*
X3129Y2739D01*
X3237Y2688D01*
X3341Y2630D01*
X3381Y2620D01*
X3417Y2603D01*
X3534Y2581D01*
X3649Y2551D01*
X3709Y2547D01*
X3729Y2543D01*
X3750Y2545D01*
X3810Y2541D01*
X758190Y2541D01*
X758308Y2556D01*
G37*
%LPC*%
G36*
X719226Y446404D02*
X719226Y446404D01*
X710591Y449981D01*
X703981Y456591D01*
X700404Y465226D01*
X700404Y474574D01*
X703981Y483209D01*
X710591Y489819D01*
X719226Y493396D01*
X728574Y493396D01*
X737209Y489819D01*
X743819Y483209D01*
X747396Y474574D01*
X747396Y465226D01*
X743819Y456591D01*
X737209Y449981D01*
X728574Y446404D01*
X719226Y446404D01*
G37*
%LPD*%
%LPC*%
G36*
X33426Y446404D02*
X33426Y446404D01*
X24791Y449981D01*
X18181Y456591D01*
X14604Y465226D01*
X14604Y474574D01*
X18181Y483209D01*
X24791Y489819D01*
X33426Y493396D01*
X42774Y493396D01*
X51409Y489819D01*
X58019Y483209D01*
X61596Y474574D01*
X61596Y465226D01*
X58019Y456591D01*
X51409Y449981D01*
X42774Y446404D01*
X33426Y446404D01*
G37*
%LPD*%
%LPC*%
G36*
X33426Y14604D02*
X33426Y14604D01*
X24791Y18181D01*
X18181Y24791D01*
X14604Y33426D01*
X14604Y42774D01*
X18181Y51409D01*
X24791Y58019D01*
X33426Y61596D01*
X42774Y61596D01*
X51409Y58019D01*
X58019Y51409D01*
X61596Y42774D01*
X61596Y33426D01*
X58019Y24791D01*
X51409Y18181D01*
X42774Y14604D01*
X33426Y14604D01*
G37*
%LPD*%
%LPC*%
G36*
X719226Y14604D02*
X719226Y14604D01*
X710591Y18181D01*
X703981Y24791D01*
X700404Y33426D01*
X700404Y42774D01*
X703981Y51409D01*
X710591Y58019D01*
X719226Y61596D01*
X728574Y61596D01*
X737209Y58019D01*
X743819Y51409D01*
X747396Y42774D01*
X747396Y33426D01*
X743819Y24791D01*
X737209Y18181D01*
X728574Y14604D01*
X719226Y14604D01*
G37*
%LPD*%
%LPC*%
G36*
X124145Y83909D02*
X124145Y83909D01*
X119610Y85788D01*
X116138Y89260D01*
X114259Y93795D01*
X114259Y98705D01*
X116138Y103240D01*
X119610Y106712D01*
X124145Y108591D01*
X129055Y108591D01*
X133590Y106712D01*
X137062Y103240D01*
X138941Y98705D01*
X138941Y93795D01*
X137062Y89260D01*
X133590Y85788D01*
X129055Y83909D01*
X124145Y83909D01*
G37*
%LPD*%
%LPC*%
G36*
X124145Y208909D02*
X124145Y208909D01*
X119610Y210788D01*
X116138Y214260D01*
X114259Y218795D01*
X114259Y223705D01*
X116138Y228240D01*
X119610Y231712D01*
X124145Y233591D01*
X129055Y233591D01*
X133590Y231712D01*
X137062Y228240D01*
X138941Y223705D01*
X138941Y218795D01*
X137062Y214260D01*
X133590Y210788D01*
X129055Y208909D01*
X124145Y208909D01*
G37*
%LPD*%
%LPC*%
G36*
X175902Y168259D02*
X175902Y168259D01*
X172396Y169712D01*
X169712Y172396D01*
X168259Y175902D01*
X168259Y179698D01*
X169712Y183204D01*
X172396Y185888D01*
X175902Y187341D01*
X179698Y187341D01*
X183204Y185888D01*
X185888Y183204D01*
X187341Y179698D01*
X187341Y175902D01*
X185888Y172396D01*
X183204Y169712D01*
X179698Y168259D01*
X175902Y168259D01*
G37*
%LPD*%
%LPC*%
G36*
X271152Y28559D02*
X271152Y28559D01*
X267646Y30012D01*
X264962Y32696D01*
X263509Y36202D01*
X263509Y39998D01*
X264962Y43504D01*
X267646Y46188D01*
X271152Y47641D01*
X274948Y47641D01*
X278454Y46188D01*
X281138Y43504D01*
X282591Y39998D01*
X282591Y36202D01*
X281138Y32696D01*
X278454Y30012D01*
X274948Y28559D01*
X271152Y28559D01*
G37*
%LPD*%
%LPC*%
G36*
X296552Y28559D02*
X296552Y28559D01*
X293046Y30012D01*
X290362Y32696D01*
X288909Y36202D01*
X288909Y39998D01*
X290362Y43504D01*
X293046Y46188D01*
X296552Y47641D01*
X300348Y47641D01*
X303854Y46188D01*
X306538Y43504D01*
X307991Y39998D01*
X307991Y36202D01*
X306538Y32696D01*
X303854Y30012D01*
X300348Y28559D01*
X296552Y28559D01*
G37*
%LPD*%
%LPC*%
G36*
X321952Y28559D02*
X321952Y28559D01*
X318446Y30012D01*
X315762Y32696D01*
X314309Y36202D01*
X314309Y39998D01*
X315762Y43504D01*
X318446Y46188D01*
X321952Y47641D01*
X325748Y47641D01*
X329254Y46188D01*
X331938Y43504D01*
X333391Y39998D01*
X333391Y36202D01*
X331938Y32696D01*
X329254Y30012D01*
X325748Y28559D01*
X321952Y28559D01*
G37*
%LPD*%
%LPC*%
G36*
X347352Y28559D02*
X347352Y28559D01*
X343846Y30012D01*
X341162Y32696D01*
X339709Y36202D01*
X339709Y39998D01*
X341162Y43504D01*
X343846Y46188D01*
X347352Y47641D01*
X351148Y47641D01*
X354654Y46188D01*
X357338Y43504D01*
X358791Y39998D01*
X358791Y36202D01*
X357338Y32696D01*
X354654Y30012D01*
X351148Y28559D01*
X347352Y28559D01*
G37*
%LPD*%
%LPC*%
G36*
X372752Y28559D02*
X372752Y28559D01*
X369246Y30012D01*
X366562Y32696D01*
X365109Y36202D01*
X365109Y39998D01*
X366562Y43504D01*
X369246Y46188D01*
X372752Y47641D01*
X376548Y47641D01*
X380054Y46188D01*
X382738Y43504D01*
X384191Y39998D01*
X384191Y36202D01*
X382738Y32696D01*
X380054Y30012D01*
X376548Y28559D01*
X372752Y28559D01*
G37*
%LPD*%
%LPC*%
G36*
X398152Y28559D02*
X398152Y28559D01*
X394646Y30012D01*
X391962Y32696D01*
X390509Y36202D01*
X390509Y39998D01*
X391962Y43504D01*
X394646Y46188D01*
X398152Y47641D01*
X401948Y47641D01*
X405454Y46188D01*
X408138Y43504D01*
X409591Y39998D01*
X409591Y36202D01*
X408138Y32696D01*
X405454Y30012D01*
X401948Y28559D01*
X398152Y28559D01*
G37*
%LPD*%
%LPC*%
G36*
X423552Y28559D02*
X423552Y28559D01*
X420046Y30012D01*
X417362Y32696D01*
X415909Y36202D01*
X415909Y39998D01*
X417362Y43504D01*
X420046Y46188D01*
X423552Y47641D01*
X427348Y47641D01*
X430854Y46188D01*
X433538Y43504D01*
X434991Y39998D01*
X434991Y36202D01*
X433538Y32696D01*
X430854Y30012D01*
X427348Y28559D01*
X423552Y28559D01*
G37*
%LPD*%
%LPC*%
G36*
X448952Y28559D02*
X448952Y28559D01*
X445446Y30012D01*
X442762Y32696D01*
X441309Y36202D01*
X441309Y39998D01*
X442762Y43504D01*
X445446Y46188D01*
X448952Y47641D01*
X452748Y47641D01*
X456254Y46188D01*
X458938Y43504D01*
X460391Y39998D01*
X460391Y36202D01*
X458938Y32696D01*
X456254Y30012D01*
X452748Y28559D01*
X448952Y28559D01*
G37*
%LPD*%
%LPC*%
G36*
X474352Y28559D02*
X474352Y28559D01*
X470846Y30012D01*
X468162Y32696D01*
X466709Y36202D01*
X466709Y39998D01*
X468162Y43504D01*
X470846Y46188D01*
X474352Y47641D01*
X478148Y47641D01*
X481654Y46188D01*
X484338Y43504D01*
X485791Y39998D01*
X485791Y36202D01*
X484338Y32696D01*
X481654Y30012D01*
X478148Y28559D01*
X474352Y28559D01*
G37*
%LPD*%
%LPC*%
G36*
X499752Y28559D02*
X499752Y28559D01*
X496246Y30012D01*
X493562Y32696D01*
X492109Y36202D01*
X492109Y39998D01*
X493562Y43504D01*
X496246Y46188D01*
X499752Y47641D01*
X503548Y47641D01*
X507054Y46188D01*
X509738Y43504D01*
X511191Y39998D01*
X511191Y36202D01*
X509738Y32696D01*
X507054Y30012D01*
X503548Y28559D01*
X499752Y28559D01*
G37*
%LPD*%
%LPC*%
G36*
X525152Y28559D02*
X525152Y28559D01*
X521646Y30012D01*
X518962Y32696D01*
X517509Y36202D01*
X517509Y39998D01*
X518962Y43504D01*
X521646Y46188D01*
X525152Y47641D01*
X528948Y47641D01*
X532454Y46188D01*
X535138Y43504D01*
X536591Y39998D01*
X536591Y36202D01*
X535138Y32696D01*
X532454Y30012D01*
X528948Y28559D01*
X525152Y28559D01*
G37*
%LPD*%
%LPC*%
G36*
X175902Y295259D02*
X175902Y295259D01*
X172396Y296712D01*
X169712Y299396D01*
X168259Y302902D01*
X168259Y306698D01*
X169712Y310204D01*
X172396Y312888D01*
X175902Y314341D01*
X179698Y314341D01*
X183204Y312888D01*
X185888Y310204D01*
X187341Y306698D01*
X187341Y302902D01*
X185888Y299396D01*
X183204Y296712D01*
X179698Y295259D01*
X175902Y295259D01*
G37*
%LPD*%
%LPC*%
G36*
X23502Y295259D02*
X23502Y295259D01*
X19996Y296712D01*
X17312Y299396D01*
X15859Y302902D01*
X15859Y306698D01*
X17312Y310204D01*
X19996Y312888D01*
X23502Y314341D01*
X27298Y314341D01*
X30804Y312888D01*
X33488Y310204D01*
X34941Y306698D01*
X34941Y302902D01*
X33488Y299396D01*
X30804Y296712D01*
X27298Y295259D01*
X23502Y295259D01*
G37*
%LPD*%
%LPC*%
G36*
X220352Y28559D02*
X220352Y28559D01*
X216846Y30012D01*
X214162Y32696D01*
X212709Y36202D01*
X212709Y39998D01*
X214162Y43504D01*
X216846Y46188D01*
X220352Y47641D01*
X224148Y47641D01*
X227654Y46188D01*
X230338Y43504D01*
X231791Y39998D01*
X231791Y36202D01*
X230338Y32696D01*
X227654Y30012D01*
X224148Y28559D01*
X220352Y28559D01*
G37*
%LPD*%
%LPC*%
G36*
X245752Y28559D02*
X245752Y28559D01*
X242246Y30012D01*
X239562Y32696D01*
X238109Y36202D01*
X238109Y39998D01*
X239562Y43504D01*
X242246Y46188D01*
X245752Y47641D01*
X249548Y47641D01*
X253054Y46188D01*
X255738Y43504D01*
X257191Y39998D01*
X257191Y36202D01*
X255738Y32696D01*
X253054Y30012D01*
X249548Y28559D01*
X245752Y28559D01*
G37*
%LPD*%
%LPC*%
G36*
X175902Y269859D02*
X175902Y269859D01*
X172396Y271312D01*
X169712Y273996D01*
X168259Y277502D01*
X168259Y281298D01*
X169712Y284804D01*
X172396Y287488D01*
X175902Y288941D01*
X179698Y288941D01*
X183204Y287488D01*
X185888Y284804D01*
X187341Y281298D01*
X187341Y277502D01*
X185888Y273996D01*
X183204Y271312D01*
X179698Y269859D01*
X175902Y269859D01*
G37*
%LPD*%
%LPC*%
G36*
X23502Y269859D02*
X23502Y269859D01*
X19996Y271312D01*
X17312Y273996D01*
X15859Y277502D01*
X15859Y281298D01*
X17312Y284804D01*
X19996Y287488D01*
X23502Y288941D01*
X27298Y288941D01*
X30804Y287488D01*
X33488Y284804D01*
X34941Y281298D01*
X34941Y277502D01*
X33488Y273996D01*
X30804Y271312D01*
X27298Y269859D01*
X23502Y269859D01*
G37*
%LPD*%
%LPC*%
G36*
X23502Y168259D02*
X23502Y168259D01*
X19996Y169712D01*
X17312Y172396D01*
X15859Y175902D01*
X15859Y179698D01*
X17312Y183204D01*
X19996Y185888D01*
X23502Y187341D01*
X27298Y187341D01*
X30804Y185888D01*
X33488Y183204D01*
X34941Y179698D01*
X34941Y175902D01*
X33488Y172396D01*
X30804Y169712D01*
X27298Y168259D01*
X23502Y168259D01*
G37*
%LPD*%
%LPC*%
G36*
X575952Y28559D02*
X575952Y28559D01*
X572446Y30012D01*
X569762Y32696D01*
X568309Y36202D01*
X568309Y39998D01*
X569762Y43504D01*
X572446Y46188D01*
X575952Y47641D01*
X579748Y47641D01*
X583254Y46188D01*
X585938Y43504D01*
X587391Y39998D01*
X587391Y36202D01*
X585938Y32696D01*
X583254Y30012D01*
X579748Y28559D01*
X575952Y28559D01*
G37*
%LPD*%
%LPC*%
G36*
X601352Y28559D02*
X601352Y28559D01*
X597846Y30012D01*
X595162Y32696D01*
X593709Y36202D01*
X593709Y39998D01*
X595162Y43504D01*
X597846Y46188D01*
X601352Y47641D01*
X605148Y47641D01*
X608654Y46188D01*
X611338Y43504D01*
X612791Y39998D01*
X612791Y36202D01*
X611338Y32696D01*
X608654Y30012D01*
X605148Y28559D01*
X601352Y28559D01*
G37*
%LPD*%
%LPC*%
G36*
X626752Y28559D02*
X626752Y28559D01*
X623246Y30012D01*
X620562Y32696D01*
X619109Y36202D01*
X619109Y39998D01*
X620562Y43504D01*
X623246Y46188D01*
X626752Y47641D01*
X630548Y47641D01*
X634054Y46188D01*
X636738Y43504D01*
X638191Y39998D01*
X638191Y36202D01*
X636738Y32696D01*
X634054Y30012D01*
X630548Y28559D01*
X626752Y28559D01*
G37*
%LPD*%
%LPC*%
G36*
X175902Y219059D02*
X175902Y219059D01*
X172396Y220512D01*
X169712Y223196D01*
X168259Y226702D01*
X168259Y230498D01*
X169712Y234004D01*
X172396Y236688D01*
X175902Y238141D01*
X179698Y238141D01*
X183204Y236688D01*
X185888Y234004D01*
X187341Y230498D01*
X187341Y226702D01*
X185888Y223196D01*
X183204Y220512D01*
X179698Y219059D01*
X175902Y219059D01*
G37*
%LPD*%
%LPC*%
G36*
X550552Y28559D02*
X550552Y28559D01*
X547046Y30012D01*
X544362Y32696D01*
X542909Y36202D01*
X542909Y39998D01*
X544362Y43504D01*
X547046Y46188D01*
X550552Y47641D01*
X554348Y47641D01*
X557854Y46188D01*
X560538Y43504D01*
X561991Y39998D01*
X561991Y36202D01*
X560538Y32696D01*
X557854Y30012D01*
X554348Y28559D01*
X550552Y28559D01*
G37*
%LPD*%
%LPC*%
G36*
X652152Y28559D02*
X652152Y28559D01*
X648646Y30012D01*
X645962Y32696D01*
X644509Y36202D01*
X644509Y39998D01*
X645962Y43504D01*
X648646Y46188D01*
X652152Y47641D01*
X655948Y47641D01*
X659454Y46188D01*
X662138Y43504D01*
X663591Y39998D01*
X663591Y36202D01*
X662138Y32696D01*
X659454Y30012D01*
X655948Y28559D01*
X652152Y28559D01*
G37*
%LPD*%
%LPC*%
G36*
X175902Y193659D02*
X175902Y193659D01*
X172396Y195112D01*
X169712Y197796D01*
X168259Y201302D01*
X168259Y205098D01*
X169712Y208604D01*
X172396Y211288D01*
X175902Y212741D01*
X179698Y212741D01*
X183204Y211288D01*
X185888Y208604D01*
X187341Y205098D01*
X187341Y201302D01*
X185888Y197796D01*
X183204Y195112D01*
X179698Y193659D01*
X175902Y193659D01*
G37*
%LPD*%
%LPC*%
G36*
X23502Y193659D02*
X23502Y193659D01*
X19996Y195112D01*
X17312Y197796D01*
X15859Y201302D01*
X15859Y205098D01*
X17312Y208604D01*
X19996Y211288D01*
X23502Y212741D01*
X27298Y212741D01*
X30804Y211288D01*
X33488Y208604D01*
X34941Y205098D01*
X34941Y201302D01*
X33488Y197796D01*
X30804Y195112D01*
X27298Y193659D01*
X23502Y193659D01*
G37*
%LPD*%
%LPC*%
G36*
X194952Y28559D02*
X194952Y28559D01*
X191446Y30012D01*
X188762Y32696D01*
X187309Y36202D01*
X187309Y39998D01*
X188762Y43504D01*
X191446Y46188D01*
X194952Y47641D01*
X198748Y47641D01*
X202254Y46188D01*
X204938Y43504D01*
X206391Y39998D01*
X206391Y36202D01*
X204938Y32696D01*
X202254Y30012D01*
X198748Y28559D01*
X194952Y28559D01*
G37*
%LPD*%
%LPC*%
G36*
X675757Y394836D02*
X675757Y394836D01*
X672536Y396170D01*
X670070Y398636D01*
X668736Y401857D01*
X668736Y405343D01*
X670070Y408564D01*
X672536Y411030D01*
X675757Y412364D01*
X679243Y412364D01*
X682464Y411030D01*
X684930Y408564D01*
X686264Y405343D01*
X686264Y401857D01*
X684930Y398636D01*
X682464Y396170D01*
X679243Y394836D01*
X675757Y394836D01*
G37*
%LPD*%
%LPC*%
G36*
X650357Y394836D02*
X650357Y394836D01*
X647136Y396170D01*
X644670Y398636D01*
X643336Y401857D01*
X643336Y405343D01*
X644670Y408564D01*
X647136Y411030D01*
X650357Y412364D01*
X653843Y412364D01*
X657064Y411030D01*
X659530Y408564D01*
X660864Y405343D01*
X660864Y401857D01*
X659530Y398636D01*
X657064Y396170D01*
X653843Y394836D01*
X650357Y394836D01*
G37*
%LPD*%
%LPC*%
G36*
X624957Y394836D02*
X624957Y394836D01*
X621736Y396170D01*
X619270Y398636D01*
X617936Y401857D01*
X617936Y405343D01*
X619270Y408564D01*
X621736Y411030D01*
X624957Y412364D01*
X628443Y412364D01*
X631664Y411030D01*
X634130Y408564D01*
X635464Y405343D01*
X635464Y401857D01*
X634130Y398636D01*
X631664Y396170D01*
X628443Y394836D01*
X624957Y394836D01*
G37*
%LPD*%
%LPC*%
G36*
X599557Y394836D02*
X599557Y394836D01*
X596336Y396170D01*
X593870Y398636D01*
X592536Y401857D01*
X592536Y405343D01*
X593870Y408564D01*
X596336Y411030D01*
X599557Y412364D01*
X603043Y412364D01*
X606264Y411030D01*
X608730Y408564D01*
X610064Y405343D01*
X610064Y401857D01*
X608730Y398636D01*
X606264Y396170D01*
X603043Y394836D01*
X599557Y394836D01*
G37*
%LPD*%
%LPC*%
G36*
X574157Y394836D02*
X574157Y394836D01*
X570936Y396170D01*
X568470Y398636D01*
X567136Y401857D01*
X567136Y405343D01*
X568470Y408564D01*
X570936Y411030D01*
X574157Y412364D01*
X577643Y412364D01*
X580864Y411030D01*
X583330Y408564D01*
X584664Y405343D01*
X584664Y401857D01*
X583330Y398636D01*
X580864Y396170D01*
X577643Y394836D01*
X574157Y394836D01*
G37*
%LPD*%
%LPC*%
G36*
X548757Y394836D02*
X548757Y394836D01*
X545536Y396170D01*
X543070Y398636D01*
X541736Y401857D01*
X541736Y405343D01*
X543070Y408564D01*
X545536Y411030D01*
X548757Y412364D01*
X552243Y412364D01*
X555464Y411030D01*
X557930Y408564D01*
X559264Y405343D01*
X559264Y401857D01*
X557930Y398636D01*
X555464Y396170D01*
X552243Y394836D01*
X548757Y394836D01*
G37*
%LPD*%
%LPC*%
G36*
X523357Y394836D02*
X523357Y394836D01*
X520136Y396170D01*
X517670Y398636D01*
X516336Y401857D01*
X516336Y405343D01*
X517670Y408564D01*
X520136Y411030D01*
X523357Y412364D01*
X526843Y412364D01*
X530064Y411030D01*
X532530Y408564D01*
X533864Y405343D01*
X533864Y401857D01*
X532530Y398636D01*
X530064Y396170D01*
X526843Y394836D01*
X523357Y394836D01*
G37*
%LPD*%
%LPC*%
G36*
X497957Y394836D02*
X497957Y394836D01*
X494736Y396170D01*
X492270Y398636D01*
X490936Y401857D01*
X490936Y405343D01*
X492270Y408564D01*
X494736Y411030D01*
X497957Y412364D01*
X501443Y412364D01*
X504664Y411030D01*
X507130Y408564D01*
X508464Y405343D01*
X508464Y401857D01*
X507130Y398636D01*
X504664Y396170D01*
X501443Y394836D01*
X497957Y394836D01*
G37*
%LPD*%
%LPC*%
G36*
X472557Y394836D02*
X472557Y394836D01*
X469336Y396170D01*
X466870Y398636D01*
X465536Y401857D01*
X465536Y405343D01*
X466870Y408564D01*
X469336Y411030D01*
X472557Y412364D01*
X476043Y412364D01*
X479264Y411030D01*
X481730Y408564D01*
X483064Y405343D01*
X483064Y401857D01*
X481730Y398636D01*
X479264Y396170D01*
X476043Y394836D01*
X472557Y394836D01*
G37*
%LPD*%
%LPC*%
G36*
X447157Y394836D02*
X447157Y394836D01*
X443936Y396170D01*
X441470Y398636D01*
X440136Y401857D01*
X440136Y405343D01*
X441470Y408564D01*
X443936Y411030D01*
X447157Y412364D01*
X450643Y412364D01*
X453864Y411030D01*
X456330Y408564D01*
X457664Y405343D01*
X457664Y401857D01*
X456330Y398636D01*
X453864Y396170D01*
X450643Y394836D01*
X447157Y394836D01*
G37*
%LPD*%
%LPC*%
G36*
X421757Y394836D02*
X421757Y394836D01*
X418536Y396170D01*
X416070Y398636D01*
X414736Y401857D01*
X414736Y405343D01*
X416070Y408564D01*
X418536Y411030D01*
X421757Y412364D01*
X425243Y412364D01*
X428464Y411030D01*
X430930Y408564D01*
X432264Y405343D01*
X432264Y401857D01*
X430930Y398636D01*
X428464Y396170D01*
X425243Y394836D01*
X421757Y394836D01*
G37*
%LPD*%
%LPC*%
G36*
X396357Y394836D02*
X396357Y394836D01*
X393136Y396170D01*
X390670Y398636D01*
X389336Y401857D01*
X389336Y405343D01*
X390670Y408564D01*
X393136Y411030D01*
X396357Y412364D01*
X399843Y412364D01*
X403064Y411030D01*
X405530Y408564D01*
X406864Y405343D01*
X406864Y401857D01*
X405530Y398636D01*
X403064Y396170D01*
X399843Y394836D01*
X396357Y394836D01*
G37*
%LPD*%
%LPC*%
G36*
X370957Y394836D02*
X370957Y394836D01*
X367736Y396170D01*
X365270Y398636D01*
X363936Y401857D01*
X363936Y405343D01*
X365270Y408564D01*
X367736Y411030D01*
X370957Y412364D01*
X374443Y412364D01*
X377664Y411030D01*
X380130Y408564D01*
X381464Y405343D01*
X381464Y401857D01*
X380130Y398636D01*
X377664Y396170D01*
X374443Y394836D01*
X370957Y394836D01*
G37*
%LPD*%
%LPC*%
G36*
X345557Y394836D02*
X345557Y394836D01*
X342336Y396170D01*
X339870Y398636D01*
X338536Y401857D01*
X338536Y405343D01*
X339870Y408564D01*
X342336Y411030D01*
X345557Y412364D01*
X349043Y412364D01*
X352264Y411030D01*
X354730Y408564D01*
X356064Y405343D01*
X356064Y401857D01*
X354730Y398636D01*
X352264Y396170D01*
X349043Y394836D01*
X345557Y394836D01*
G37*
%LPD*%
%LPC*%
G36*
X320157Y394836D02*
X320157Y394836D01*
X316936Y396170D01*
X314470Y398636D01*
X313136Y401857D01*
X313136Y405343D01*
X314470Y408564D01*
X316936Y411030D01*
X320157Y412364D01*
X323643Y412364D01*
X326864Y411030D01*
X329330Y408564D01*
X330664Y405343D01*
X330664Y401857D01*
X329330Y398636D01*
X326864Y396170D01*
X323643Y394836D01*
X320157Y394836D01*
G37*
%LPD*%
%LPC*%
G36*
X294757Y394836D02*
X294757Y394836D01*
X291536Y396170D01*
X289070Y398636D01*
X287736Y401857D01*
X287736Y405343D01*
X289070Y408564D01*
X291536Y411030D01*
X294757Y412364D01*
X298243Y412364D01*
X301464Y411030D01*
X303930Y408564D01*
X305264Y405343D01*
X305264Y401857D01*
X303930Y398636D01*
X301464Y396170D01*
X298243Y394836D01*
X294757Y394836D01*
G37*
%LPD*%
%LPC*%
G36*
X269357Y394836D02*
X269357Y394836D01*
X266136Y396170D01*
X263670Y398636D01*
X262336Y401857D01*
X262336Y405343D01*
X263670Y408564D01*
X266136Y411030D01*
X269357Y412364D01*
X272843Y412364D01*
X276064Y411030D01*
X278530Y408564D01*
X279864Y405343D01*
X279864Y401857D01*
X278530Y398636D01*
X276064Y396170D01*
X272843Y394836D01*
X269357Y394836D01*
G37*
%LPD*%
%LPC*%
G36*
X294757Y369436D02*
X294757Y369436D01*
X291536Y370770D01*
X289070Y373236D01*
X287736Y376457D01*
X287736Y379943D01*
X289070Y383164D01*
X291536Y385630D01*
X294757Y386964D01*
X298243Y386964D01*
X301464Y385630D01*
X303930Y383164D01*
X305264Y379943D01*
X305264Y376457D01*
X303930Y373236D01*
X301464Y370770D01*
X298243Y369436D01*
X294757Y369436D01*
G37*
%LPD*%
%LPC*%
G36*
X269357Y369436D02*
X269357Y369436D01*
X266136Y370770D01*
X263670Y373236D01*
X262336Y376457D01*
X262336Y379943D01*
X263670Y383164D01*
X266136Y385630D01*
X269357Y386964D01*
X272843Y386964D01*
X276064Y385630D01*
X278530Y383164D01*
X279864Y379943D01*
X279864Y376457D01*
X278530Y373236D01*
X276064Y370770D01*
X272843Y369436D01*
X269357Y369436D01*
G37*
%LPD*%
%LPC*%
G36*
X701157Y369436D02*
X701157Y369436D01*
X697936Y370770D01*
X695470Y373236D01*
X694136Y376457D01*
X694136Y379943D01*
X695470Y383164D01*
X697936Y385630D01*
X701157Y386964D01*
X704643Y386964D01*
X707864Y385630D01*
X710330Y383164D01*
X711664Y379943D01*
X711664Y376457D01*
X710330Y373236D01*
X707864Y370770D01*
X704643Y369436D01*
X701157Y369436D01*
G37*
%LPD*%
%LPC*%
G36*
X675757Y369436D02*
X675757Y369436D01*
X672536Y370770D01*
X670070Y373236D01*
X668736Y376457D01*
X668736Y379943D01*
X670070Y383164D01*
X672536Y385630D01*
X675757Y386964D01*
X679243Y386964D01*
X682464Y385630D01*
X684930Y383164D01*
X686264Y379943D01*
X686264Y376457D01*
X684930Y373236D01*
X682464Y370770D01*
X679243Y369436D01*
X675757Y369436D01*
G37*
%LPD*%
%LPC*%
G36*
X650357Y369436D02*
X650357Y369436D01*
X647136Y370770D01*
X644670Y373236D01*
X643336Y376457D01*
X643336Y379943D01*
X644670Y383164D01*
X647136Y385630D01*
X650357Y386964D01*
X653843Y386964D01*
X657064Y385630D01*
X659530Y383164D01*
X660864Y379943D01*
X660864Y376457D01*
X659530Y373236D01*
X657064Y370770D01*
X653843Y369436D01*
X650357Y369436D01*
G37*
%LPD*%
%LPC*%
G36*
X624957Y369436D02*
X624957Y369436D01*
X621736Y370770D01*
X619270Y373236D01*
X617936Y376457D01*
X617936Y379943D01*
X619270Y383164D01*
X621736Y385630D01*
X624957Y386964D01*
X628443Y386964D01*
X631664Y385630D01*
X634130Y383164D01*
X635464Y379943D01*
X635464Y376457D01*
X634130Y373236D01*
X631664Y370770D01*
X628443Y369436D01*
X624957Y369436D01*
G37*
%LPD*%
%LPC*%
G36*
X599557Y369436D02*
X599557Y369436D01*
X596336Y370770D01*
X593870Y373236D01*
X592536Y376457D01*
X592536Y379943D01*
X593870Y383164D01*
X596336Y385630D01*
X599557Y386964D01*
X603043Y386964D01*
X606264Y385630D01*
X608730Y383164D01*
X610064Y379943D01*
X610064Y376457D01*
X608730Y373236D01*
X606264Y370770D01*
X603043Y369436D01*
X599557Y369436D01*
G37*
%LPD*%
%LPC*%
G36*
X574157Y369436D02*
X574157Y369436D01*
X570936Y370770D01*
X568470Y373236D01*
X567136Y376457D01*
X567136Y379943D01*
X568470Y383164D01*
X570936Y385630D01*
X574157Y386964D01*
X577643Y386964D01*
X580864Y385630D01*
X583330Y383164D01*
X584664Y379943D01*
X584664Y376457D01*
X583330Y373236D01*
X580864Y370770D01*
X577643Y369436D01*
X574157Y369436D01*
G37*
%LPD*%
%LPC*%
G36*
X548757Y369436D02*
X548757Y369436D01*
X545536Y370770D01*
X543070Y373236D01*
X541736Y376457D01*
X541736Y379943D01*
X543070Y383164D01*
X545536Y385630D01*
X548757Y386964D01*
X552243Y386964D01*
X555464Y385630D01*
X557930Y383164D01*
X559264Y379943D01*
X559264Y376457D01*
X557930Y373236D01*
X555464Y370770D01*
X552243Y369436D01*
X548757Y369436D01*
G37*
%LPD*%
%LPC*%
G36*
X497957Y369436D02*
X497957Y369436D01*
X494736Y370770D01*
X492270Y373236D01*
X490936Y376457D01*
X490936Y379943D01*
X492270Y383164D01*
X494736Y385630D01*
X497957Y386964D01*
X501443Y386964D01*
X504664Y385630D01*
X507130Y383164D01*
X508464Y379943D01*
X508464Y376457D01*
X507130Y373236D01*
X504664Y370770D01*
X501443Y369436D01*
X497957Y369436D01*
G37*
%LPD*%
%LPC*%
G36*
X472557Y369436D02*
X472557Y369436D01*
X469336Y370770D01*
X466870Y373236D01*
X465536Y376457D01*
X465536Y379943D01*
X466870Y383164D01*
X469336Y385630D01*
X472557Y386964D01*
X476043Y386964D01*
X479264Y385630D01*
X481730Y383164D01*
X483064Y379943D01*
X483064Y376457D01*
X481730Y373236D01*
X479264Y370770D01*
X476043Y369436D01*
X472557Y369436D01*
G37*
%LPD*%
%LPC*%
G36*
X447157Y369436D02*
X447157Y369436D01*
X443936Y370770D01*
X441470Y373236D01*
X440136Y376457D01*
X440136Y379943D01*
X441470Y383164D01*
X443936Y385630D01*
X447157Y386964D01*
X450643Y386964D01*
X453864Y385630D01*
X456330Y383164D01*
X457664Y379943D01*
X457664Y376457D01*
X456330Y373236D01*
X453864Y370770D01*
X450643Y369436D01*
X447157Y369436D01*
G37*
%LPD*%
%LPC*%
G36*
X396357Y369436D02*
X396357Y369436D01*
X393136Y370770D01*
X390670Y373236D01*
X389336Y376457D01*
X389336Y379943D01*
X390670Y383164D01*
X393136Y385630D01*
X396357Y386964D01*
X399843Y386964D01*
X403064Y385630D01*
X405530Y383164D01*
X406864Y379943D01*
X406864Y376457D01*
X405530Y373236D01*
X403064Y370770D01*
X399843Y369436D01*
X396357Y369436D01*
G37*
%LPD*%
%LPC*%
G36*
X370957Y369436D02*
X370957Y369436D01*
X367736Y370770D01*
X365270Y373236D01*
X363936Y376457D01*
X363936Y379943D01*
X365270Y383164D01*
X367736Y385630D01*
X370957Y386964D01*
X374443Y386964D01*
X377664Y385630D01*
X380130Y383164D01*
X381464Y379943D01*
X381464Y376457D01*
X380130Y373236D01*
X377664Y370770D01*
X374443Y369436D01*
X370957Y369436D01*
G37*
%LPD*%
%LPC*%
G36*
X345557Y369436D02*
X345557Y369436D01*
X342336Y370770D01*
X339870Y373236D01*
X338536Y376457D01*
X338536Y379943D01*
X339870Y383164D01*
X342336Y385630D01*
X345557Y386964D01*
X349043Y386964D01*
X352264Y385630D01*
X354730Y383164D01*
X356064Y379943D01*
X356064Y376457D01*
X354730Y373236D01*
X352264Y370770D01*
X349043Y369436D01*
X345557Y369436D01*
G37*
%LPD*%
%LPC*%
G36*
X320157Y369436D02*
X320157Y369436D01*
X316936Y370770D01*
X314470Y373236D01*
X313136Y376457D01*
X313136Y379943D01*
X314470Y383164D01*
X316936Y385630D01*
X320157Y386964D01*
X323643Y386964D01*
X326864Y385630D01*
X329330Y383164D01*
X330664Y379943D01*
X330664Y376457D01*
X329330Y373236D01*
X326864Y370770D01*
X323643Y369436D01*
X320157Y369436D01*
G37*
%LPD*%
%LPC*%
G36*
X675757Y140836D02*
X675757Y140836D01*
X672536Y142170D01*
X670070Y144636D01*
X668736Y147857D01*
X668736Y151343D01*
X670070Y154564D01*
X672536Y157030D01*
X675757Y158364D01*
X679243Y158364D01*
X682464Y157030D01*
X684930Y154564D01*
X686264Y151343D01*
X686264Y147857D01*
X684930Y144636D01*
X682464Y142170D01*
X679243Y140836D01*
X675757Y140836D01*
G37*
%LPD*%
%LPC*%
G36*
X294757Y140836D02*
X294757Y140836D01*
X291536Y142170D01*
X289070Y144636D01*
X287736Y147857D01*
X287736Y151343D01*
X289070Y154564D01*
X291536Y157030D01*
X294757Y158364D01*
X298243Y158364D01*
X301464Y157030D01*
X303930Y154564D01*
X305264Y151343D01*
X305264Y147857D01*
X303930Y144636D01*
X301464Y142170D01*
X298243Y140836D01*
X294757Y140836D01*
G37*
%LPD*%
%LPC*%
G36*
X269357Y140836D02*
X269357Y140836D01*
X266136Y142170D01*
X263670Y144636D01*
X262336Y147857D01*
X262336Y151343D01*
X263670Y154564D01*
X266136Y157030D01*
X269357Y158364D01*
X272843Y158364D01*
X276064Y157030D01*
X278530Y154564D01*
X279864Y151343D01*
X279864Y147857D01*
X278530Y144636D01*
X276064Y142170D01*
X272843Y140836D01*
X269357Y140836D01*
G37*
%LPD*%
%LPC*%
G36*
X701157Y140836D02*
X701157Y140836D01*
X697936Y142170D01*
X695470Y144636D01*
X694136Y147857D01*
X694136Y151343D01*
X695470Y154564D01*
X697936Y157030D01*
X701157Y158364D01*
X704643Y158364D01*
X707864Y157030D01*
X710330Y154564D01*
X711664Y151343D01*
X711664Y147857D01*
X710330Y144636D01*
X707864Y142170D01*
X704643Y140836D01*
X701157Y140836D01*
G37*
%LPD*%
%LPC*%
G36*
X320157Y115436D02*
X320157Y115436D01*
X316936Y116770D01*
X314470Y119236D01*
X313136Y122457D01*
X313136Y125943D01*
X314470Y129164D01*
X316936Y131630D01*
X320157Y132964D01*
X323643Y132964D01*
X326864Y131630D01*
X329330Y129164D01*
X330664Y125943D01*
X330664Y122457D01*
X329330Y119236D01*
X326864Y116770D01*
X323643Y115436D01*
X320157Y115436D01*
G37*
%LPD*%
%LPC*%
G36*
X650357Y140836D02*
X650357Y140836D01*
X647136Y142170D01*
X644670Y144636D01*
X643336Y147857D01*
X643336Y151343D01*
X644670Y154564D01*
X647136Y157030D01*
X650357Y158364D01*
X653843Y158364D01*
X657064Y157030D01*
X659530Y154564D01*
X660864Y151343D01*
X660864Y147857D01*
X659530Y144636D01*
X657064Y142170D01*
X653843Y140836D01*
X650357Y140836D01*
G37*
%LPD*%
%LPC*%
G36*
X624957Y140836D02*
X624957Y140836D01*
X621736Y142170D01*
X619270Y144636D01*
X617936Y147857D01*
X617936Y151343D01*
X619270Y154564D01*
X621736Y157030D01*
X624957Y158364D01*
X628443Y158364D01*
X631664Y157030D01*
X634130Y154564D01*
X635464Y151343D01*
X635464Y147857D01*
X634130Y144636D01*
X631664Y142170D01*
X628443Y140836D01*
X624957Y140836D01*
G37*
%LPD*%
%LPC*%
G36*
X599557Y140836D02*
X599557Y140836D01*
X596336Y142170D01*
X593870Y144636D01*
X592536Y147857D01*
X592536Y151343D01*
X593870Y154564D01*
X596336Y157030D01*
X599557Y158364D01*
X603043Y158364D01*
X606264Y157030D01*
X608730Y154564D01*
X610064Y151343D01*
X610064Y147857D01*
X608730Y144636D01*
X606264Y142170D01*
X603043Y140836D01*
X599557Y140836D01*
G37*
%LPD*%
%LPC*%
G36*
X574157Y140836D02*
X574157Y140836D01*
X570936Y142170D01*
X568470Y144636D01*
X567136Y147857D01*
X567136Y151343D01*
X568470Y154564D01*
X570936Y157030D01*
X574157Y158364D01*
X577643Y158364D01*
X580864Y157030D01*
X583330Y154564D01*
X584664Y151343D01*
X584664Y147857D01*
X583330Y144636D01*
X580864Y142170D01*
X577643Y140836D01*
X574157Y140836D01*
G37*
%LPD*%
%LPC*%
G36*
X548757Y140836D02*
X548757Y140836D01*
X545536Y142170D01*
X543070Y144636D01*
X541736Y147857D01*
X541736Y151343D01*
X543070Y154564D01*
X545536Y157030D01*
X548757Y158364D01*
X552243Y158364D01*
X555464Y157030D01*
X557930Y154564D01*
X559264Y151343D01*
X559264Y147857D01*
X557930Y144636D01*
X555464Y142170D01*
X552243Y140836D01*
X548757Y140836D01*
G37*
%LPD*%
%LPC*%
G36*
X497957Y140836D02*
X497957Y140836D01*
X494736Y142170D01*
X492270Y144636D01*
X490936Y147857D01*
X490936Y151343D01*
X492270Y154564D01*
X494736Y157030D01*
X497957Y158364D01*
X501443Y158364D01*
X504664Y157030D01*
X507130Y154564D01*
X508464Y151343D01*
X508464Y147857D01*
X507130Y144636D01*
X504664Y142170D01*
X501443Y140836D01*
X497957Y140836D01*
G37*
%LPD*%
%LPC*%
G36*
X472557Y140836D02*
X472557Y140836D01*
X469336Y142170D01*
X466870Y144636D01*
X465536Y147857D01*
X465536Y151343D01*
X466870Y154564D01*
X469336Y157030D01*
X472557Y158364D01*
X476043Y158364D01*
X479264Y157030D01*
X481730Y154564D01*
X483064Y151343D01*
X483064Y147857D01*
X481730Y144636D01*
X479264Y142170D01*
X476043Y140836D01*
X472557Y140836D01*
G37*
%LPD*%
%LPC*%
G36*
X447157Y140836D02*
X447157Y140836D01*
X443936Y142170D01*
X441470Y144636D01*
X440136Y147857D01*
X440136Y151343D01*
X441470Y154564D01*
X443936Y157030D01*
X447157Y158364D01*
X450643Y158364D01*
X453864Y157030D01*
X456330Y154564D01*
X457664Y151343D01*
X457664Y147857D01*
X456330Y144636D01*
X453864Y142170D01*
X450643Y140836D01*
X447157Y140836D01*
G37*
%LPD*%
%LPC*%
G36*
X396357Y140836D02*
X396357Y140836D01*
X393136Y142170D01*
X390670Y144636D01*
X389336Y147857D01*
X389336Y151343D01*
X390670Y154564D01*
X393136Y157030D01*
X396357Y158364D01*
X399843Y158364D01*
X403064Y157030D01*
X405530Y154564D01*
X406864Y151343D01*
X406864Y147857D01*
X405530Y144636D01*
X403064Y142170D01*
X399843Y140836D01*
X396357Y140836D01*
G37*
%LPD*%
%LPC*%
G36*
X370957Y140836D02*
X370957Y140836D01*
X367736Y142170D01*
X365270Y144636D01*
X363936Y147857D01*
X363936Y151343D01*
X365270Y154564D01*
X367736Y157030D01*
X370957Y158364D01*
X374443Y158364D01*
X377664Y157030D01*
X380130Y154564D01*
X381464Y151343D01*
X381464Y147857D01*
X380130Y144636D01*
X377664Y142170D01*
X374443Y140836D01*
X370957Y140836D01*
G37*
%LPD*%
%LPC*%
G36*
X345557Y140836D02*
X345557Y140836D01*
X342336Y142170D01*
X339870Y144636D01*
X338536Y147857D01*
X338536Y151343D01*
X339870Y154564D01*
X342336Y157030D01*
X345557Y158364D01*
X349043Y158364D01*
X352264Y157030D01*
X354730Y154564D01*
X356064Y151343D01*
X356064Y147857D01*
X354730Y144636D01*
X352264Y142170D01*
X349043Y140836D01*
X345557Y140836D01*
G37*
%LPD*%
%LPC*%
G36*
X320157Y140836D02*
X320157Y140836D01*
X316936Y142170D01*
X314470Y144636D01*
X313136Y147857D01*
X313136Y151343D01*
X314470Y154564D01*
X316936Y157030D01*
X320157Y158364D01*
X323643Y158364D01*
X326864Y157030D01*
X329330Y154564D01*
X330664Y151343D01*
X330664Y147857D01*
X329330Y144636D01*
X326864Y142170D01*
X323643Y140836D01*
X320157Y140836D01*
G37*
%LPD*%
%LPC*%
G36*
X599557Y115436D02*
X599557Y115436D01*
X596336Y116770D01*
X593870Y119236D01*
X592536Y122457D01*
X592536Y125943D01*
X593870Y129164D01*
X596336Y131630D01*
X599557Y132964D01*
X603043Y132964D01*
X606264Y131630D01*
X608730Y129164D01*
X610064Y125943D01*
X610064Y122457D01*
X608730Y119236D01*
X606264Y116770D01*
X603043Y115436D01*
X599557Y115436D01*
G37*
%LPD*%
%LPC*%
G36*
X574157Y115436D02*
X574157Y115436D01*
X570936Y116770D01*
X568470Y119236D01*
X567136Y122457D01*
X567136Y125943D01*
X568470Y129164D01*
X570936Y131630D01*
X574157Y132964D01*
X577643Y132964D01*
X580864Y131630D01*
X583330Y129164D01*
X584664Y125943D01*
X584664Y122457D01*
X583330Y119236D01*
X580864Y116770D01*
X577643Y115436D01*
X574157Y115436D01*
G37*
%LPD*%
%LPC*%
G36*
X701157Y115436D02*
X701157Y115436D01*
X697936Y116770D01*
X695470Y119236D01*
X694136Y122457D01*
X694136Y125943D01*
X695470Y129164D01*
X697936Y131630D01*
X701157Y132964D01*
X704643Y132964D01*
X707864Y131630D01*
X710330Y129164D01*
X711664Y125943D01*
X711664Y122457D01*
X710330Y119236D01*
X707864Y116770D01*
X704643Y115436D01*
X701157Y115436D01*
G37*
%LPD*%
%LPC*%
G36*
X675757Y115436D02*
X675757Y115436D01*
X672536Y116770D01*
X670070Y119236D01*
X668736Y122457D01*
X668736Y125943D01*
X670070Y129164D01*
X672536Y131630D01*
X675757Y132964D01*
X679243Y132964D01*
X682464Y131630D01*
X684930Y129164D01*
X686264Y125943D01*
X686264Y122457D01*
X684930Y119236D01*
X682464Y116770D01*
X679243Y115436D01*
X675757Y115436D01*
G37*
%LPD*%
%LPC*%
G36*
X650357Y115436D02*
X650357Y115436D01*
X647136Y116770D01*
X644670Y119236D01*
X643336Y122457D01*
X643336Y125943D01*
X644670Y129164D01*
X647136Y131630D01*
X650357Y132964D01*
X653843Y132964D01*
X657064Y131630D01*
X659530Y129164D01*
X660864Y125943D01*
X660864Y122457D01*
X659530Y119236D01*
X657064Y116770D01*
X653843Y115436D01*
X650357Y115436D01*
G37*
%LPD*%
%LPC*%
G36*
X624957Y115436D02*
X624957Y115436D01*
X621736Y116770D01*
X619270Y119236D01*
X617936Y122457D01*
X617936Y125943D01*
X619270Y129164D01*
X621736Y131630D01*
X624957Y132964D01*
X628443Y132964D01*
X631664Y131630D01*
X634130Y129164D01*
X635464Y125943D01*
X635464Y122457D01*
X634130Y119236D01*
X631664Y116770D01*
X628443Y115436D01*
X624957Y115436D01*
G37*
%LPD*%
%LPC*%
G36*
X548757Y115436D02*
X548757Y115436D01*
X545536Y116770D01*
X543070Y119236D01*
X541736Y122457D01*
X541736Y125943D01*
X543070Y129164D01*
X545536Y131630D01*
X548757Y132964D01*
X552243Y132964D01*
X555464Y131630D01*
X557930Y129164D01*
X559264Y125943D01*
X559264Y122457D01*
X557930Y119236D01*
X555464Y116770D01*
X552243Y115436D01*
X548757Y115436D01*
G37*
%LPD*%
%LPC*%
G36*
X523357Y115436D02*
X523357Y115436D01*
X520136Y116770D01*
X517670Y119236D01*
X516336Y122457D01*
X516336Y125943D01*
X517670Y129164D01*
X520136Y131630D01*
X523357Y132964D01*
X526843Y132964D01*
X530064Y131630D01*
X532530Y129164D01*
X533864Y125943D01*
X533864Y122457D01*
X532530Y119236D01*
X530064Y116770D01*
X526843Y115436D01*
X523357Y115436D01*
G37*
%LPD*%
%LPC*%
G36*
X497957Y115436D02*
X497957Y115436D01*
X494736Y116770D01*
X492270Y119236D01*
X490936Y122457D01*
X490936Y125943D01*
X492270Y129164D01*
X494736Y131630D01*
X497957Y132964D01*
X501443Y132964D01*
X504664Y131630D01*
X507130Y129164D01*
X508464Y125943D01*
X508464Y122457D01*
X507130Y119236D01*
X504664Y116770D01*
X501443Y115436D01*
X497957Y115436D01*
G37*
%LPD*%
%LPC*%
G36*
X472557Y115436D02*
X472557Y115436D01*
X469336Y116770D01*
X466870Y119236D01*
X465536Y122457D01*
X465536Y125943D01*
X466870Y129164D01*
X469336Y131630D01*
X472557Y132964D01*
X476043Y132964D01*
X479264Y131630D01*
X481730Y129164D01*
X483064Y125943D01*
X483064Y122457D01*
X481730Y119236D01*
X479264Y116770D01*
X476043Y115436D01*
X472557Y115436D01*
G37*
%LPD*%
%LPC*%
G36*
X447157Y115436D02*
X447157Y115436D01*
X443936Y116770D01*
X441470Y119236D01*
X440136Y122457D01*
X440136Y125943D01*
X441470Y129164D01*
X443936Y131630D01*
X447157Y132964D01*
X450643Y132964D01*
X453864Y131630D01*
X456330Y129164D01*
X457664Y125943D01*
X457664Y122457D01*
X456330Y119236D01*
X453864Y116770D01*
X450643Y115436D01*
X447157Y115436D01*
G37*
%LPD*%
%LPC*%
G36*
X421757Y115436D02*
X421757Y115436D01*
X418536Y116770D01*
X416070Y119236D01*
X414736Y122457D01*
X414736Y125943D01*
X416070Y129164D01*
X418536Y131630D01*
X421757Y132964D01*
X425243Y132964D01*
X428464Y131630D01*
X430930Y129164D01*
X432264Y125943D01*
X432264Y122457D01*
X430930Y119236D01*
X428464Y116770D01*
X425243Y115436D01*
X421757Y115436D01*
G37*
%LPD*%
%LPC*%
G36*
X396357Y115436D02*
X396357Y115436D01*
X393136Y116770D01*
X390670Y119236D01*
X389336Y122457D01*
X389336Y125943D01*
X390670Y129164D01*
X393136Y131630D01*
X396357Y132964D01*
X399843Y132964D01*
X403064Y131630D01*
X405530Y129164D01*
X406864Y125943D01*
X406864Y122457D01*
X405530Y119236D01*
X403064Y116770D01*
X399843Y115436D01*
X396357Y115436D01*
G37*
%LPD*%
%LPC*%
G36*
X370957Y115436D02*
X370957Y115436D01*
X367736Y116770D01*
X365270Y119236D01*
X363936Y122457D01*
X363936Y125943D01*
X365270Y129164D01*
X367736Y131630D01*
X370957Y132964D01*
X374443Y132964D01*
X377664Y131630D01*
X380130Y129164D01*
X381464Y125943D01*
X381464Y122457D01*
X380130Y119236D01*
X377664Y116770D01*
X374443Y115436D01*
X370957Y115436D01*
G37*
%LPD*%
%LPC*%
G36*
X345557Y115436D02*
X345557Y115436D01*
X342336Y116770D01*
X339870Y119236D01*
X338536Y122457D01*
X338536Y125943D01*
X339870Y129164D01*
X342336Y131630D01*
X345557Y132964D01*
X349043Y132964D01*
X352264Y131630D01*
X354730Y129164D01*
X356064Y125943D01*
X356064Y122457D01*
X354730Y119236D01*
X352264Y116770D01*
X349043Y115436D01*
X345557Y115436D01*
G37*
%LPD*%
%LPC*%
G36*
X294757Y115436D02*
X294757Y115436D01*
X291536Y116770D01*
X289070Y119236D01*
X287736Y122457D01*
X287736Y125943D01*
X289070Y129164D01*
X291536Y131630D01*
X294757Y132964D01*
X298243Y132964D01*
X301464Y131630D01*
X303930Y129164D01*
X305264Y125943D01*
X305264Y122457D01*
X303930Y119236D01*
X301464Y116770D01*
X298243Y115436D01*
X294757Y115436D01*
G37*
%LPD*%
%LPC*%
G36*
X269357Y115436D02*
X269357Y115436D01*
X266136Y116770D01*
X263670Y119236D01*
X262336Y122457D01*
X262336Y125943D01*
X263670Y129164D01*
X266136Y131630D01*
X269357Y132964D01*
X272843Y132964D01*
X276064Y131630D01*
X278530Y129164D01*
X279864Y125943D01*
X279864Y122457D01*
X278530Y119236D01*
X276064Y116770D01*
X272843Y115436D01*
X269357Y115436D01*
G37*
%LPD*%
%LPC*%
G36*
X701157Y394836D02*
X701157Y394836D01*
X697936Y396170D01*
X695470Y398636D01*
X694136Y401857D01*
X694136Y405343D01*
X695470Y408564D01*
X697936Y411030D01*
X701157Y412364D01*
X704643Y412364D01*
X707864Y411030D01*
X710330Y408564D01*
X711664Y405343D01*
X711664Y401857D01*
X710330Y398636D01*
X707864Y396170D01*
X704643Y394836D01*
X701157Y394836D01*
G37*
%LPD*%
%LPC*%
G36*
X99981Y308609D02*
X99981Y308609D01*
X96989Y309849D01*
X94699Y312139D01*
X93459Y315131D01*
X93459Y318369D01*
X94699Y321361D01*
X96989Y323651D01*
X99981Y324891D01*
X103219Y324891D01*
X106211Y323651D01*
X108501Y321361D01*
X109741Y318369D01*
X109741Y315131D01*
X108501Y312139D01*
X106211Y309849D01*
X103219Y308609D01*
X99981Y308609D01*
G37*
%LPD*%
%LPC*%
G36*
X562768Y65531D02*
X562768Y65531D01*
X560714Y66382D01*
X559142Y67954D01*
X558291Y70008D01*
X558291Y72232D01*
X559142Y74286D01*
X560714Y75858D01*
X562768Y76709D01*
X564992Y76709D01*
X567046Y75858D01*
X568618Y74286D01*
X569469Y72232D01*
X569469Y70008D01*
X568618Y67954D01*
X567046Y66382D01*
X564992Y65531D01*
X562768Y65531D01*
G37*
%LPD*%
%LPC*%
G36*
X589438Y64261D02*
X589438Y64261D01*
X587384Y65112D01*
X585812Y66684D01*
X584961Y68738D01*
X584961Y70962D01*
X585812Y73016D01*
X587384Y74588D01*
X589438Y75439D01*
X591662Y75439D01*
X593716Y74588D01*
X595288Y73016D01*
X596139Y70962D01*
X596139Y68738D01*
X595288Y66684D01*
X593716Y65112D01*
X591662Y64261D01*
X589438Y64261D01*
G37*
%LPD*%
%LPC*%
G36*
X94138Y57911D02*
X94138Y57911D01*
X92084Y58762D01*
X90512Y60334D01*
X89661Y62388D01*
X89661Y64612D01*
X90512Y66666D01*
X92084Y68238D01*
X94138Y69089D01*
X96362Y69089D01*
X98416Y68238D01*
X99988Y66666D01*
X100839Y64612D01*
X100839Y62388D01*
X99988Y60334D01*
X98416Y58762D01*
X96362Y57911D01*
X94138Y57911D01*
G37*
%LPD*%
%LPC*%
G36*
X79139Y223789D02*
X79139Y223789D01*
X79139Y233342D01*
X79490Y233287D01*
X81337Y232687D01*
X83068Y231805D01*
X83833Y231249D01*
X84639Y230663D01*
X86013Y229289D01*
X87155Y227718D01*
X88037Y225987D01*
X88637Y224140D01*
X88692Y223789D01*
X79139Y223789D01*
G37*
%LPD*%
%LPC*%
G36*
X79139Y98789D02*
X79139Y98789D01*
X79139Y108342D01*
X79490Y108287D01*
X81337Y107687D01*
X83068Y106805D01*
X84639Y105663D01*
X86013Y104289D01*
X87155Y102718D01*
X88037Y100987D01*
X88637Y99140D01*
X88692Y98789D01*
X79139Y98789D01*
G37*
%LPD*%
%LPC*%
G36*
X64508Y223789D02*
X64508Y223789D01*
X64563Y224140D01*
X65163Y225987D01*
X66045Y227718D01*
X67187Y229289D01*
X68561Y230663D01*
X70132Y231805D01*
X71863Y232687D01*
X73710Y233287D01*
X74061Y233342D01*
X74061Y223789D01*
X64508Y223789D01*
G37*
%LPD*%
%LPC*%
G36*
X79139Y218711D02*
X79139Y218711D01*
X88692Y218711D01*
X88637Y218360D01*
X88037Y216513D01*
X87155Y214782D01*
X86013Y213211D01*
X84639Y211837D01*
X83068Y210695D01*
X81337Y209813D01*
X79490Y209213D01*
X79139Y209158D01*
X79139Y218711D01*
G37*
%LPD*%
%LPC*%
G36*
X64508Y98789D02*
X64508Y98789D01*
X64563Y99140D01*
X65163Y100987D01*
X66045Y102718D01*
X67187Y104289D01*
X68561Y105663D01*
X70132Y106805D01*
X71863Y107687D01*
X73710Y108287D01*
X74061Y108342D01*
X74061Y98789D01*
X64508Y98789D01*
G37*
%LPD*%
%LPC*%
G36*
X79139Y93711D02*
X79139Y93711D01*
X88692Y93711D01*
X88637Y93360D01*
X88037Y91513D01*
X87155Y89782D01*
X86013Y88211D01*
X84639Y86837D01*
X83068Y85695D01*
X81337Y84813D01*
X79490Y84213D01*
X79139Y84158D01*
X79139Y93711D01*
G37*
%LPD*%
%LPC*%
G36*
X73710Y209213D02*
X73710Y209213D01*
X71863Y209813D01*
X70132Y210695D01*
X68561Y211837D01*
X67187Y213211D01*
X66045Y214782D01*
X65163Y216513D01*
X64563Y218360D01*
X64508Y218711D01*
X74061Y218711D01*
X74061Y209158D01*
X73710Y209213D01*
G37*
%LPD*%
%LPC*%
G36*
X73710Y84213D02*
X73710Y84213D01*
X71863Y84813D01*
X70132Y85695D01*
X68561Y86837D01*
X67187Y88211D01*
X66045Y89782D01*
X65163Y91513D01*
X64563Y93360D01*
X64508Y93711D01*
X74061Y93711D01*
X74061Y84158D01*
X73710Y84213D01*
G37*
%LPD*%
%LPC*%
G36*
X180299Y256499D02*
X180299Y256499D01*
X180299Y263220D01*
X181462Y262842D01*
X182801Y262160D01*
X184015Y261277D01*
X185077Y260215D01*
X185960Y259001D01*
X186642Y257662D01*
X187020Y256499D01*
X180299Y256499D01*
G37*
%LPD*%
%LPC*%
G36*
X681949Y40599D02*
X681949Y40599D01*
X681949Y47320D01*
X683112Y46942D01*
X684451Y46260D01*
X685665Y45377D01*
X686727Y44315D01*
X687610Y43101D01*
X688292Y41762D01*
X688670Y40599D01*
X681949Y40599D01*
G37*
%LPD*%
%LPC*%
G36*
X168580Y256499D02*
X168580Y256499D01*
X168958Y257662D01*
X169640Y259001D01*
X170523Y260215D01*
X171585Y261277D01*
X172799Y262160D01*
X174138Y262842D01*
X175301Y263220D01*
X175301Y256499D01*
X168580Y256499D01*
G37*
%LPD*%
%LPC*%
G36*
X670230Y40599D02*
X670230Y40599D01*
X670608Y41762D01*
X671290Y43101D01*
X672173Y44315D01*
X673235Y45377D01*
X674449Y46260D01*
X675788Y46942D01*
X676951Y47320D01*
X676951Y40599D01*
X670230Y40599D01*
G37*
%LPD*%
%LPC*%
G36*
X681949Y35601D02*
X681949Y35601D01*
X688670Y35601D01*
X688292Y34438D01*
X687610Y33099D01*
X686727Y31885D01*
X685665Y30823D01*
X684451Y29940D01*
X683112Y29258D01*
X681949Y28880D01*
X681949Y35601D01*
G37*
%LPD*%
%LPC*%
G36*
X180299Y251501D02*
X180299Y251501D01*
X187020Y251501D01*
X186642Y250338D01*
X185960Y248999D01*
X185077Y247785D01*
X184015Y246723D01*
X182801Y245840D01*
X181462Y245158D01*
X180299Y244780D01*
X180299Y251501D01*
G37*
%LPD*%
%LPC*%
G36*
X675788Y29258D02*
X675788Y29258D01*
X674449Y29940D01*
X673235Y30823D01*
X672173Y31885D01*
X671290Y33099D01*
X670608Y34438D01*
X670230Y35601D01*
X676951Y35601D01*
X676951Y28880D01*
X675788Y29258D01*
G37*
%LPD*%
%LPC*%
G36*
X174138Y245158D02*
X174138Y245158D01*
X172799Y245840D01*
X171585Y246723D01*
X170523Y247785D01*
X169640Y248999D01*
X168958Y250338D01*
X168580Y251501D01*
X175301Y251501D01*
X175301Y244780D01*
X174138Y245158D01*
G37*
%LPD*%
%LPC*%
G36*
X527322Y151822D02*
X527322Y151822D01*
X527322Y158093D01*
X527656Y158027D01*
X529251Y157366D01*
X530687Y156407D01*
X531907Y155187D01*
X532866Y153751D01*
X533527Y152156D01*
X533593Y151822D01*
X527322Y151822D01*
G37*
%LPD*%
%LPC*%
G36*
X425722Y380422D02*
X425722Y380422D01*
X425722Y386693D01*
X426056Y386627D01*
X427651Y385966D01*
X429087Y385007D01*
X430307Y383787D01*
X431266Y382351D01*
X431927Y380756D01*
X431993Y380422D01*
X425722Y380422D01*
G37*
%LPD*%
%LPC*%
G36*
X527322Y380422D02*
X527322Y380422D01*
X527322Y386693D01*
X527656Y386627D01*
X529251Y385966D01*
X530687Y385007D01*
X531907Y383787D01*
X532866Y382351D01*
X533527Y380756D01*
X533593Y380422D01*
X527322Y380422D01*
G37*
%LPD*%
%LPC*%
G36*
X425722Y151822D02*
X425722Y151822D01*
X425722Y158093D01*
X426056Y158027D01*
X427651Y157366D01*
X429087Y156407D01*
X430307Y155187D01*
X431266Y153751D01*
X431927Y152156D01*
X431993Y151822D01*
X425722Y151822D01*
G37*
%LPD*%
%LPC*%
G36*
X425722Y147378D02*
X425722Y147378D01*
X431993Y147378D01*
X431927Y147044D01*
X431266Y145449D01*
X430307Y144013D01*
X429087Y142793D01*
X427651Y141834D01*
X426056Y141173D01*
X425722Y141107D01*
X425722Y147378D01*
G37*
%LPD*%
%LPC*%
G36*
X527322Y147378D02*
X527322Y147378D01*
X533593Y147378D01*
X533527Y147044D01*
X532866Y145449D01*
X531907Y144013D01*
X530687Y142793D01*
X529251Y141834D01*
X527656Y141173D01*
X527322Y141107D01*
X527322Y147378D01*
G37*
%LPD*%
%LPC*%
G36*
X415007Y151822D02*
X415007Y151822D01*
X415073Y152156D01*
X415734Y153751D01*
X416693Y155187D01*
X417913Y156407D01*
X419349Y157366D01*
X420944Y158027D01*
X421278Y158093D01*
X421278Y151822D01*
X415007Y151822D01*
G37*
%LPD*%
%LPC*%
G36*
X516607Y151822D02*
X516607Y151822D01*
X516673Y152156D01*
X517334Y153751D01*
X518293Y155187D01*
X519513Y156407D01*
X520949Y157366D01*
X522544Y158027D01*
X522878Y158093D01*
X522878Y151822D01*
X516607Y151822D01*
G37*
%LPD*%
%LPC*%
G36*
X425722Y375978D02*
X425722Y375978D01*
X431993Y375978D01*
X431927Y375644D01*
X431266Y374049D01*
X430307Y372613D01*
X429087Y371393D01*
X427651Y370434D01*
X426056Y369773D01*
X425722Y369707D01*
X425722Y375978D01*
G37*
%LPD*%
%LPC*%
G36*
X527322Y375978D02*
X527322Y375978D01*
X533593Y375978D01*
X533527Y375644D01*
X532866Y374049D01*
X531907Y372613D01*
X530687Y371393D01*
X529251Y370434D01*
X527656Y369773D01*
X527322Y369707D01*
X527322Y375978D01*
G37*
%LPD*%
%LPC*%
G36*
X516607Y380422D02*
X516607Y380422D01*
X516673Y380756D01*
X517334Y382351D01*
X518293Y383787D01*
X519513Y385007D01*
X520949Y385966D01*
X522544Y386627D01*
X522878Y386693D01*
X522878Y380422D01*
X516607Y380422D01*
G37*
%LPD*%
%LPC*%
G36*
X415007Y380422D02*
X415007Y380422D01*
X415073Y380756D01*
X415734Y382351D01*
X416693Y383787D01*
X417913Y385007D01*
X419349Y385966D01*
X420944Y386627D01*
X421278Y386693D01*
X421278Y380422D01*
X415007Y380422D01*
G37*
%LPD*%
%LPC*%
G36*
X522544Y141173D02*
X522544Y141173D01*
X520949Y141834D01*
X519513Y142793D01*
X518293Y144013D01*
X517334Y145449D01*
X516673Y147044D01*
X516607Y147378D01*
X522878Y147378D01*
X522878Y141107D01*
X522544Y141173D01*
G37*
%LPD*%
%LPC*%
G36*
X420944Y141173D02*
X420944Y141173D01*
X419349Y141834D01*
X417913Y142793D01*
X416693Y144013D01*
X415734Y145449D01*
X415073Y147044D01*
X415007Y147378D01*
X421278Y147378D01*
X421278Y141107D01*
X420944Y141173D01*
G37*
%LPD*%
%LPC*%
G36*
X420944Y369773D02*
X420944Y369773D01*
X419349Y370434D01*
X417913Y371393D01*
X416693Y372613D01*
X415734Y374049D01*
X415073Y375644D01*
X415007Y375978D01*
X421278Y375978D01*
X421278Y369707D01*
X420944Y369773D01*
G37*
%LPD*%
%LPC*%
G36*
X522544Y369773D02*
X522544Y369773D01*
X520949Y370434D01*
X519513Y371393D01*
X518293Y372613D01*
X517334Y374049D01*
X516673Y375644D01*
X516607Y375978D01*
X522878Y375978D01*
X522878Y369707D01*
X522544Y369773D01*
G37*
%LPD*%
%LPC*%
G36*
X103599Y383749D02*
X103599Y383749D01*
X103599Y389653D01*
X103975Y389578D01*
X105456Y388964D01*
X106789Y388073D01*
X107923Y386939D01*
X108814Y385606D01*
X109428Y384125D01*
X109503Y383749D01*
X103599Y383749D01*
G37*
%LPD*%
%LPC*%
G36*
X103599Y379751D02*
X103599Y379751D01*
X109503Y379751D01*
X109428Y379375D01*
X108814Y377894D01*
X107923Y376561D01*
X106789Y375427D01*
X105456Y374536D01*
X103975Y373922D01*
X103599Y373847D01*
X103599Y379751D01*
G37*
%LPD*%
%LPC*%
G36*
X93697Y383749D02*
X93697Y383749D01*
X93772Y384125D01*
X94386Y385606D01*
X95277Y386939D01*
X96411Y388073D01*
X97744Y388964D01*
X99225Y389578D01*
X99601Y389653D01*
X99601Y383749D01*
X93697Y383749D01*
G37*
%LPD*%
%LPC*%
G36*
X99225Y373922D02*
X99225Y373922D01*
X97744Y374536D01*
X96411Y375427D01*
X95277Y376561D01*
X94386Y377894D01*
X93772Y379375D01*
X93697Y379751D01*
X99601Y379751D01*
X99601Y373847D01*
X99225Y373922D01*
G37*
%LPD*%
%LPC*%
G36*
X76599Y96249D02*
X76599Y96249D01*
X76599Y96251D01*
X76601Y96251D01*
X76601Y96249D01*
X76599Y96249D01*
G37*
%LPD*%
%LPC*%
G36*
X76599Y221249D02*
X76599Y221249D01*
X76599Y221251D01*
X76601Y221251D01*
X76601Y221249D01*
X76599Y221249D01*
G37*
%LPD*%
D10*
X702900Y124200D03*
X702900Y149600D03*
X677500Y124200D03*
X677500Y149600D03*
X652100Y124200D03*
X652100Y149600D03*
X626700Y124200D03*
X626700Y149600D03*
X601300Y124200D03*
X601300Y149600D03*
X575900Y124200D03*
X575900Y149600D03*
X550500Y124200D03*
X550500Y149600D03*
X525100Y124200D03*
X525100Y149600D03*
X499700Y124200D03*
X499700Y149600D03*
X474300Y124200D03*
X474300Y149600D03*
X448900Y124200D03*
X448900Y149600D03*
X423500Y124200D03*
X423500Y149600D03*
X398100Y124200D03*
X398100Y149600D03*
X372700Y124200D03*
X372700Y149600D03*
X347300Y124200D03*
X347300Y149600D03*
X321900Y124200D03*
X321900Y149600D03*
X296500Y124200D03*
X296500Y149600D03*
X271100Y124200D03*
X271100Y149600D03*
X702900Y378200D03*
X702900Y403600D03*
X677500Y378200D03*
X677500Y403600D03*
X652100Y378200D03*
X652100Y403600D03*
X626700Y378200D03*
X626700Y403600D03*
X601300Y378200D03*
X601300Y403600D03*
X575900Y378200D03*
X575900Y403600D03*
X550500Y378200D03*
X550500Y403600D03*
X525100Y378200D03*
X525100Y403600D03*
X499700Y378200D03*
X499700Y403600D03*
X474300Y378200D03*
X474300Y403600D03*
X448900Y378200D03*
X448900Y403600D03*
X423500Y378200D03*
X423500Y403600D03*
X398100Y378200D03*
X398100Y403600D03*
X372700Y378200D03*
X372700Y403600D03*
X347300Y378200D03*
X347300Y403600D03*
X321900Y378200D03*
X321900Y403600D03*
X296500Y378200D03*
X296500Y403600D03*
X271100Y378200D03*
X271100Y403600D03*
D11*
X101600Y381750D03*
X101600Y316750D03*
D12*
X126600Y96250D03*
X76600Y96250D03*
X76600Y221250D03*
X126600Y221250D03*
D13*
X38100Y469900D03*
X723900Y469900D03*
X723900Y38100D03*
X38100Y38100D03*
D14*
X679450Y800100D03*
X654050Y800100D03*
X628650Y800100D03*
X603250Y800100D03*
X577850Y800100D03*
X552450Y800100D03*
X527050Y800100D03*
X501650Y800100D03*
X476250Y800100D03*
X450850Y800100D03*
X425450Y800100D03*
X400050Y800100D03*
X374650Y800100D03*
X349250Y800100D03*
X323850Y800100D03*
X298450Y800100D03*
X273050Y800100D03*
X247650Y800100D03*
X222250Y800100D03*
X196850Y800100D03*
X679450Y38100D03*
X654050Y38100D03*
X628650Y38100D03*
X603250Y38100D03*
X577850Y38100D03*
X552450Y38100D03*
X527050Y38100D03*
X501650Y38100D03*
X476250Y38100D03*
X450850Y38100D03*
X425450Y38100D03*
X400050Y38100D03*
X374650Y38100D03*
X349250Y38100D03*
X323850Y38100D03*
X298450Y38100D03*
X273050Y38100D03*
X247650Y38100D03*
X222250Y38100D03*
X196850Y38100D03*
X177800Y304800D03*
X177800Y279400D03*
X177800Y254000D03*
X177800Y228600D03*
X177800Y203200D03*
X177800Y177800D03*
X25400Y177800D03*
X25400Y203200D03*
X25400Y304800D03*
X25400Y279400D03*
D15*
X95250Y63500D03*
X590550Y69850D03*
X563880Y71120D03*
X107950Y44450D03*
M02*
