G04 EAGLE Gerber RS-274X export*
G75*
%MOMM*%
%FSLAX34Y34*%
%LPD*%
%INSilkscreen Bottom*%
%IPPOS*%
%AMOC8*
5,1,8,0,0,1.08239X$1,22.5*%
G01*
%ADD10R,0.508000X0.508000*%
%ADD11C,0.254000*%
%ADD12C,0.152400*%
%ADD13C,0.101600*%
%ADD14C,0.127000*%
%ADD15C,0.203200*%


D10*
X702900Y124200D03*
X702900Y149600D03*
X677500Y149600D03*
X677500Y124200D03*
X652100Y149600D03*
X652100Y124200D03*
X626700Y149600D03*
X601300Y149600D03*
X575900Y149600D03*
X626700Y124200D03*
X601300Y124200D03*
X575900Y124200D03*
X550500Y149600D03*
X550500Y124200D03*
X525100Y149600D03*
X525100Y124200D03*
X499700Y149600D03*
X499700Y124200D03*
X474300Y149600D03*
X474300Y124200D03*
X448900Y149600D03*
X448900Y124200D03*
X423500Y149600D03*
X423500Y124200D03*
X398100Y149600D03*
X398100Y124200D03*
X372700Y149600D03*
X372700Y124200D03*
X347300Y149600D03*
X347300Y124200D03*
X321900Y149600D03*
X321900Y124200D03*
X296500Y149600D03*
X296500Y124200D03*
X271100Y149600D03*
X271100Y124200D03*
X702900Y378200D03*
X702900Y403600D03*
X677500Y403600D03*
X677500Y378200D03*
X652100Y403600D03*
X652100Y378200D03*
X626700Y403600D03*
X601300Y403600D03*
X575900Y403600D03*
X626700Y378200D03*
X601300Y378200D03*
X575900Y378200D03*
X550500Y403600D03*
X550500Y378200D03*
X525100Y403600D03*
X525100Y378200D03*
X499700Y403600D03*
X499700Y378200D03*
X474300Y403600D03*
X474300Y378200D03*
X448900Y403600D03*
X448900Y378200D03*
X423500Y403600D03*
X423500Y378200D03*
X398100Y403600D03*
X398100Y378200D03*
X372700Y403600D03*
X372700Y378200D03*
X347300Y403600D03*
X347300Y378200D03*
X321900Y403600D03*
X321900Y378200D03*
X296500Y403600D03*
X296500Y378200D03*
X271100Y403600D03*
X271100Y378200D03*
D11*
X312000Y438900D02*
X662000Y438900D01*
X664416Y438871D01*
X666831Y438783D01*
X669243Y438637D01*
X671651Y438433D01*
X674054Y438171D01*
X676449Y437851D01*
X678836Y437473D01*
X681213Y437037D01*
X683578Y436544D01*
X685932Y435994D01*
X688271Y435388D01*
X690595Y434725D01*
X692902Y434006D01*
X695191Y433231D01*
X697460Y432402D01*
X699709Y431517D01*
X701936Y430579D01*
X704140Y429587D01*
X706319Y428543D01*
X708472Y427446D01*
X710598Y426297D01*
X712696Y425097D01*
X714764Y423847D01*
X716801Y422547D01*
X718806Y421198D01*
X720779Y419802D01*
X722716Y418358D01*
X724619Y416867D01*
X726484Y415332D01*
X728312Y413751D01*
X730102Y412127D01*
X731851Y410460D01*
X733560Y408751D01*
X735227Y407002D01*
X736851Y405212D01*
X738432Y403384D01*
X739967Y401519D01*
X741458Y399616D01*
X742902Y397679D01*
X744298Y395706D01*
X745647Y393701D01*
X746947Y391664D01*
X748197Y389596D01*
X749397Y387498D01*
X750546Y385372D01*
X751643Y383219D01*
X752687Y381040D01*
X753679Y378836D01*
X754617Y376609D01*
X755502Y374360D01*
X756331Y372091D01*
X757106Y369802D01*
X757825Y367495D01*
X758488Y365171D01*
X759094Y362832D01*
X759644Y360478D01*
X760137Y358113D01*
X760573Y355736D01*
X760951Y353349D01*
X761271Y350954D01*
X761533Y348551D01*
X761737Y346143D01*
X761883Y343731D01*
X761971Y341316D01*
X762000Y338900D01*
X762000Y188900D01*
X761971Y186484D01*
X761883Y184069D01*
X761737Y181657D01*
X761533Y179249D01*
X761271Y176846D01*
X760951Y174451D01*
X760573Y172064D01*
X760137Y169687D01*
X759644Y167322D01*
X759094Y164968D01*
X758488Y162629D01*
X757825Y160305D01*
X757106Y157998D01*
X756331Y155709D01*
X755502Y153440D01*
X754617Y151191D01*
X753679Y148964D01*
X752687Y146760D01*
X751643Y144581D01*
X750546Y142428D01*
X749397Y140302D01*
X748197Y138204D01*
X746947Y136136D01*
X745647Y134099D01*
X744298Y132094D01*
X742902Y130121D01*
X741458Y128184D01*
X739967Y126281D01*
X738432Y124416D01*
X736851Y122588D01*
X735227Y120798D01*
X733560Y119049D01*
X731851Y117340D01*
X730102Y115673D01*
X728312Y114049D01*
X726484Y112468D01*
X724619Y110933D01*
X722716Y109442D01*
X720779Y107998D01*
X718806Y106602D01*
X716801Y105253D01*
X714764Y103953D01*
X712696Y102703D01*
X710598Y101503D01*
X708472Y100354D01*
X706319Y99257D01*
X704140Y98213D01*
X701936Y97221D01*
X699709Y96283D01*
X697460Y95398D01*
X695191Y94569D01*
X692902Y93794D01*
X690595Y93075D01*
X688271Y92412D01*
X685932Y91806D01*
X683578Y91256D01*
X681213Y90763D01*
X678836Y90327D01*
X676449Y89949D01*
X674054Y89629D01*
X671651Y89367D01*
X669243Y89163D01*
X666831Y89017D01*
X664416Y88929D01*
X662000Y88900D01*
X312000Y88900D01*
X309584Y88929D01*
X307169Y89017D01*
X304757Y89163D01*
X302349Y89367D01*
X299946Y89629D01*
X297551Y89949D01*
X295164Y90327D01*
X292787Y90763D01*
X290422Y91256D01*
X288068Y91806D01*
X285729Y92412D01*
X283405Y93075D01*
X281098Y93794D01*
X278809Y94569D01*
X276540Y95398D01*
X274291Y96283D01*
X272064Y97221D01*
X269860Y98213D01*
X267681Y99257D01*
X265528Y100354D01*
X263402Y101503D01*
X261304Y102703D01*
X259236Y103953D01*
X257199Y105253D01*
X255194Y106602D01*
X253221Y107998D01*
X251284Y109442D01*
X249381Y110933D01*
X247516Y112468D01*
X245688Y114049D01*
X243898Y115673D01*
X242149Y117340D01*
X240440Y119049D01*
X238773Y120798D01*
X237149Y122588D01*
X235568Y124416D01*
X234033Y126281D01*
X232542Y128184D01*
X231098Y130121D01*
X229702Y132094D01*
X228353Y134099D01*
X227053Y136136D01*
X225803Y138204D01*
X224603Y140302D01*
X223454Y142428D01*
X222357Y144581D01*
X221313Y146760D01*
X220321Y148964D01*
X219383Y151191D01*
X218498Y153440D01*
X217669Y155709D01*
X216894Y157998D01*
X216175Y160305D01*
X215512Y162629D01*
X214906Y164968D01*
X214356Y167322D01*
X213863Y169687D01*
X213427Y172064D01*
X213049Y174451D01*
X212729Y176846D01*
X212467Y179249D01*
X212263Y181657D01*
X212117Y184069D01*
X212029Y186484D01*
X212000Y188900D01*
X212000Y338900D01*
X212029Y341316D01*
X212117Y343731D01*
X212263Y346143D01*
X212467Y348551D01*
X212729Y350954D01*
X213049Y353349D01*
X213427Y355736D01*
X213863Y358113D01*
X214356Y360478D01*
X214906Y362832D01*
X215512Y365171D01*
X216175Y367495D01*
X216894Y369802D01*
X217669Y372091D01*
X218498Y374360D01*
X219383Y376609D01*
X220321Y378836D01*
X221313Y381040D01*
X222357Y383219D01*
X223454Y385372D01*
X224603Y387498D01*
X225803Y389596D01*
X227053Y391664D01*
X228353Y393701D01*
X229702Y395706D01*
X231098Y397679D01*
X232542Y399616D01*
X234033Y401519D01*
X235568Y403384D01*
X237149Y405212D01*
X238773Y407002D01*
X240440Y408751D01*
X242149Y410460D01*
X243898Y412127D01*
X245688Y413751D01*
X247516Y415332D01*
X249381Y416867D01*
X251284Y418358D01*
X253221Y419802D01*
X255194Y421198D01*
X257199Y422547D01*
X259236Y423847D01*
X261304Y425097D01*
X263402Y426297D01*
X265528Y427446D01*
X267681Y428543D01*
X269860Y429587D01*
X272064Y430579D01*
X274291Y431517D01*
X276540Y432402D01*
X278809Y433231D01*
X281098Y434006D01*
X283405Y434725D01*
X285729Y435388D01*
X288068Y435994D01*
X290422Y436544D01*
X292787Y437037D01*
X295164Y437473D01*
X297551Y437851D01*
X299946Y438171D01*
X302349Y438433D01*
X304757Y438637D01*
X307169Y438783D01*
X309584Y438871D01*
X312000Y438900D01*
D12*
X583438Y271018D02*
X583438Y254762D01*
X583438Y271018D02*
X578922Y271018D01*
X578789Y271016D01*
X578657Y271010D01*
X578525Y271000D01*
X578393Y270987D01*
X578261Y270969D01*
X578131Y270948D01*
X578000Y270923D01*
X577871Y270894D01*
X577743Y270861D01*
X577615Y270825D01*
X577489Y270785D01*
X577364Y270741D01*
X577240Y270693D01*
X577118Y270642D01*
X576997Y270587D01*
X576878Y270529D01*
X576760Y270467D01*
X576645Y270402D01*
X576531Y270333D01*
X576420Y270262D01*
X576311Y270186D01*
X576204Y270108D01*
X576099Y270027D01*
X575997Y269942D01*
X575897Y269855D01*
X575800Y269765D01*
X575705Y269672D01*
X575614Y269576D01*
X575525Y269478D01*
X575439Y269377D01*
X575356Y269273D01*
X575276Y269167D01*
X575200Y269059D01*
X575126Y268949D01*
X575056Y268836D01*
X574989Y268722D01*
X574926Y268605D01*
X574866Y268487D01*
X574809Y268367D01*
X574756Y268245D01*
X574707Y268122D01*
X574661Y267998D01*
X574619Y267872D01*
X574581Y267745D01*
X574546Y267617D01*
X574515Y267488D01*
X574488Y267359D01*
X574465Y267228D01*
X574445Y267097D01*
X574430Y266965D01*
X574418Y266833D01*
X574410Y266701D01*
X574406Y266568D01*
X574406Y266436D01*
X574410Y266303D01*
X574418Y266171D01*
X574430Y266039D01*
X574445Y265907D01*
X574465Y265776D01*
X574488Y265645D01*
X574515Y265516D01*
X574546Y265387D01*
X574581Y265259D01*
X574619Y265132D01*
X574661Y265006D01*
X574707Y264882D01*
X574756Y264759D01*
X574809Y264637D01*
X574866Y264517D01*
X574926Y264399D01*
X574989Y264282D01*
X575056Y264168D01*
X575126Y264055D01*
X575200Y263945D01*
X575276Y263837D01*
X575356Y263731D01*
X575439Y263627D01*
X575525Y263526D01*
X575614Y263428D01*
X575705Y263332D01*
X575800Y263239D01*
X575897Y263149D01*
X575997Y263062D01*
X576099Y262977D01*
X576204Y262896D01*
X576311Y262818D01*
X576420Y262742D01*
X576531Y262671D01*
X576645Y262602D01*
X576760Y262537D01*
X576878Y262475D01*
X576997Y262417D01*
X577118Y262362D01*
X577240Y262311D01*
X577364Y262263D01*
X577489Y262219D01*
X577615Y262179D01*
X577743Y262143D01*
X577871Y262110D01*
X578000Y262081D01*
X578131Y262056D01*
X578261Y262035D01*
X578393Y262017D01*
X578525Y262004D01*
X578657Y261994D01*
X578789Y261988D01*
X578922Y261986D01*
X578922Y261987D02*
X583438Y261987D01*
X568678Y261987D02*
X568678Y258374D01*
X568677Y261987D02*
X568675Y262106D01*
X568669Y262226D01*
X568659Y262345D01*
X568645Y262463D01*
X568628Y262582D01*
X568606Y262699D01*
X568581Y262816D01*
X568551Y262931D01*
X568518Y263046D01*
X568481Y263160D01*
X568441Y263272D01*
X568396Y263383D01*
X568348Y263492D01*
X568297Y263600D01*
X568242Y263706D01*
X568183Y263810D01*
X568121Y263912D01*
X568056Y264012D01*
X567987Y264110D01*
X567915Y264206D01*
X567840Y264299D01*
X567763Y264389D01*
X567682Y264477D01*
X567598Y264562D01*
X567511Y264644D01*
X567422Y264724D01*
X567330Y264800D01*
X567236Y264874D01*
X567139Y264944D01*
X567041Y265011D01*
X566940Y265075D01*
X566836Y265135D01*
X566731Y265192D01*
X566624Y265245D01*
X566516Y265295D01*
X566406Y265341D01*
X566294Y265383D01*
X566181Y265422D01*
X566067Y265457D01*
X565952Y265488D01*
X565835Y265516D01*
X565718Y265539D01*
X565601Y265559D01*
X565482Y265575D01*
X565363Y265587D01*
X565244Y265595D01*
X565125Y265599D01*
X565005Y265599D01*
X564886Y265595D01*
X564767Y265587D01*
X564648Y265575D01*
X564529Y265559D01*
X564412Y265539D01*
X564295Y265516D01*
X564178Y265488D01*
X564063Y265457D01*
X563949Y265422D01*
X563836Y265383D01*
X563724Y265341D01*
X563614Y265295D01*
X563506Y265245D01*
X563399Y265192D01*
X563294Y265135D01*
X563190Y265075D01*
X563089Y265011D01*
X562991Y264944D01*
X562894Y264874D01*
X562800Y264800D01*
X562708Y264724D01*
X562619Y264644D01*
X562532Y264562D01*
X562448Y264477D01*
X562367Y264389D01*
X562290Y264299D01*
X562215Y264206D01*
X562143Y264110D01*
X562074Y264012D01*
X562009Y263912D01*
X561947Y263810D01*
X561888Y263706D01*
X561833Y263600D01*
X561782Y263492D01*
X561734Y263383D01*
X561689Y263272D01*
X561649Y263160D01*
X561612Y263046D01*
X561579Y262931D01*
X561549Y262816D01*
X561524Y262699D01*
X561502Y262582D01*
X561485Y262463D01*
X561471Y262345D01*
X561461Y262226D01*
X561455Y262106D01*
X561453Y261987D01*
X561453Y258374D01*
X561455Y258255D01*
X561461Y258135D01*
X561471Y258016D01*
X561485Y257898D01*
X561502Y257779D01*
X561524Y257662D01*
X561549Y257545D01*
X561579Y257430D01*
X561612Y257315D01*
X561649Y257201D01*
X561689Y257089D01*
X561734Y256978D01*
X561782Y256869D01*
X561833Y256761D01*
X561888Y256655D01*
X561947Y256551D01*
X562009Y256449D01*
X562074Y256349D01*
X562143Y256251D01*
X562215Y256155D01*
X562290Y256062D01*
X562367Y255972D01*
X562448Y255884D01*
X562532Y255799D01*
X562619Y255717D01*
X562708Y255637D01*
X562800Y255561D01*
X562894Y255487D01*
X562991Y255417D01*
X563089Y255350D01*
X563190Y255286D01*
X563294Y255226D01*
X563399Y255169D01*
X563506Y255116D01*
X563614Y255066D01*
X563724Y255020D01*
X563836Y254978D01*
X563949Y254939D01*
X564063Y254904D01*
X564178Y254873D01*
X564295Y254845D01*
X564412Y254822D01*
X564529Y254802D01*
X564648Y254786D01*
X564767Y254774D01*
X564886Y254766D01*
X565005Y254762D01*
X565125Y254762D01*
X565244Y254766D01*
X565363Y254774D01*
X565482Y254786D01*
X565601Y254802D01*
X565718Y254822D01*
X565835Y254845D01*
X565952Y254873D01*
X566067Y254904D01*
X566181Y254939D01*
X566294Y254978D01*
X566406Y255020D01*
X566516Y255066D01*
X566624Y255116D01*
X566731Y255169D01*
X566836Y255226D01*
X566940Y255286D01*
X567041Y255350D01*
X567139Y255417D01*
X567236Y255487D01*
X567330Y255561D01*
X567422Y255637D01*
X567511Y255717D01*
X567598Y255799D01*
X567682Y255884D01*
X567763Y255972D01*
X567840Y256062D01*
X567915Y256155D01*
X567987Y256251D01*
X568056Y256349D01*
X568121Y256449D01*
X568183Y256551D01*
X568242Y256655D01*
X568297Y256761D01*
X568348Y256869D01*
X568396Y256978D01*
X568441Y257089D01*
X568481Y257201D01*
X568518Y257315D01*
X568551Y257430D01*
X568581Y257545D01*
X568606Y257662D01*
X568628Y257779D01*
X568645Y257898D01*
X568659Y258016D01*
X568669Y258135D01*
X568675Y258255D01*
X568677Y258374D01*
X552404Y254762D02*
X548791Y254762D01*
X552404Y254762D02*
X552505Y254764D01*
X552606Y254770D01*
X552707Y254779D01*
X552808Y254792D01*
X552908Y254809D01*
X553007Y254830D01*
X553105Y254854D01*
X553202Y254882D01*
X553299Y254914D01*
X553394Y254949D01*
X553487Y254988D01*
X553579Y255030D01*
X553670Y255076D01*
X553759Y255125D01*
X553845Y255177D01*
X553930Y255233D01*
X554013Y255291D01*
X554093Y255353D01*
X554171Y255418D01*
X554247Y255485D01*
X554320Y255555D01*
X554390Y255628D01*
X554457Y255704D01*
X554522Y255782D01*
X554584Y255862D01*
X554642Y255945D01*
X554698Y256030D01*
X554750Y256116D01*
X554799Y256205D01*
X554845Y256296D01*
X554887Y256388D01*
X554926Y256481D01*
X554961Y256576D01*
X554993Y256673D01*
X555021Y256770D01*
X555045Y256868D01*
X555066Y256967D01*
X555083Y257067D01*
X555096Y257168D01*
X555105Y257269D01*
X555111Y257370D01*
X555113Y257471D01*
X555113Y262890D01*
X555111Y262991D01*
X555105Y263092D01*
X555096Y263193D01*
X555083Y263294D01*
X555066Y263394D01*
X555045Y263493D01*
X555021Y263591D01*
X554993Y263688D01*
X554961Y263785D01*
X554926Y263880D01*
X554887Y263973D01*
X554845Y264065D01*
X554799Y264156D01*
X554750Y264245D01*
X554698Y264331D01*
X554642Y264416D01*
X554584Y264499D01*
X554522Y264579D01*
X554457Y264657D01*
X554390Y264733D01*
X554320Y264806D01*
X554247Y264876D01*
X554171Y264943D01*
X554093Y265008D01*
X554013Y265070D01*
X553930Y265128D01*
X553845Y265184D01*
X553759Y265236D01*
X553670Y265285D01*
X553579Y265331D01*
X553487Y265373D01*
X553394Y265412D01*
X553299Y265447D01*
X553202Y265479D01*
X553105Y265507D01*
X553007Y265531D01*
X552908Y265552D01*
X552808Y265569D01*
X552707Y265582D01*
X552606Y265591D01*
X552505Y265597D01*
X552404Y265599D01*
X548791Y265599D01*
X542457Y271018D02*
X542457Y254762D01*
X542457Y260181D02*
X535232Y265599D01*
X539296Y262438D02*
X535232Y254762D01*
X526890Y254762D02*
X522375Y254762D01*
X526890Y254762D02*
X526991Y254764D01*
X527092Y254770D01*
X527193Y254779D01*
X527294Y254792D01*
X527394Y254809D01*
X527493Y254830D01*
X527591Y254854D01*
X527688Y254882D01*
X527785Y254914D01*
X527880Y254949D01*
X527973Y254988D01*
X528065Y255030D01*
X528156Y255076D01*
X528245Y255125D01*
X528331Y255177D01*
X528416Y255233D01*
X528499Y255291D01*
X528579Y255353D01*
X528657Y255418D01*
X528733Y255485D01*
X528806Y255555D01*
X528876Y255628D01*
X528943Y255704D01*
X529008Y255782D01*
X529070Y255862D01*
X529128Y255945D01*
X529184Y256030D01*
X529236Y256116D01*
X529285Y256205D01*
X529331Y256296D01*
X529373Y256388D01*
X529412Y256481D01*
X529447Y256576D01*
X529479Y256673D01*
X529507Y256770D01*
X529531Y256868D01*
X529552Y256967D01*
X529569Y257067D01*
X529582Y257168D01*
X529591Y257269D01*
X529597Y257370D01*
X529599Y257471D01*
X529600Y257471D02*
X529600Y261987D01*
X529599Y261987D02*
X529597Y262106D01*
X529591Y262226D01*
X529581Y262345D01*
X529567Y262463D01*
X529550Y262582D01*
X529528Y262699D01*
X529503Y262816D01*
X529473Y262931D01*
X529440Y263046D01*
X529403Y263160D01*
X529363Y263272D01*
X529318Y263383D01*
X529270Y263492D01*
X529219Y263600D01*
X529164Y263706D01*
X529105Y263810D01*
X529043Y263912D01*
X528978Y264012D01*
X528909Y264110D01*
X528837Y264206D01*
X528762Y264299D01*
X528685Y264389D01*
X528604Y264477D01*
X528520Y264562D01*
X528433Y264644D01*
X528344Y264724D01*
X528252Y264800D01*
X528158Y264874D01*
X528061Y264944D01*
X527963Y265011D01*
X527862Y265075D01*
X527758Y265135D01*
X527653Y265192D01*
X527546Y265245D01*
X527438Y265295D01*
X527328Y265341D01*
X527216Y265383D01*
X527103Y265422D01*
X526989Y265457D01*
X526874Y265488D01*
X526757Y265516D01*
X526640Y265539D01*
X526523Y265559D01*
X526404Y265575D01*
X526285Y265587D01*
X526166Y265595D01*
X526047Y265599D01*
X525927Y265599D01*
X525808Y265595D01*
X525689Y265587D01*
X525570Y265575D01*
X525451Y265559D01*
X525334Y265539D01*
X525217Y265516D01*
X525100Y265488D01*
X524985Y265457D01*
X524871Y265422D01*
X524758Y265383D01*
X524646Y265341D01*
X524536Y265295D01*
X524428Y265245D01*
X524321Y265192D01*
X524216Y265135D01*
X524112Y265075D01*
X524011Y265011D01*
X523913Y264944D01*
X523816Y264874D01*
X523722Y264800D01*
X523630Y264724D01*
X523541Y264644D01*
X523454Y264562D01*
X523370Y264477D01*
X523289Y264389D01*
X523212Y264299D01*
X523137Y264206D01*
X523065Y264110D01*
X522996Y264012D01*
X522931Y263912D01*
X522869Y263810D01*
X522810Y263706D01*
X522755Y263600D01*
X522704Y263492D01*
X522656Y263383D01*
X522611Y263272D01*
X522571Y263160D01*
X522534Y263046D01*
X522501Y262931D01*
X522471Y262816D01*
X522446Y262699D01*
X522424Y262582D01*
X522407Y262463D01*
X522393Y262345D01*
X522383Y262226D01*
X522377Y262106D01*
X522375Y261987D01*
X522375Y260181D01*
X529600Y260181D01*
X517350Y265599D02*
X511931Y265599D01*
X515544Y271018D02*
X515544Y257471D01*
X515543Y257471D02*
X515541Y257370D01*
X515535Y257269D01*
X515526Y257168D01*
X515513Y257067D01*
X515496Y256967D01*
X515475Y256868D01*
X515451Y256770D01*
X515423Y256673D01*
X515391Y256576D01*
X515356Y256481D01*
X515317Y256388D01*
X515275Y256296D01*
X515229Y256205D01*
X515180Y256116D01*
X515128Y256030D01*
X515072Y255945D01*
X515014Y255862D01*
X514952Y255782D01*
X514887Y255704D01*
X514820Y255628D01*
X514750Y255555D01*
X514677Y255485D01*
X514601Y255418D01*
X514523Y255353D01*
X514443Y255291D01*
X514360Y255233D01*
X514275Y255177D01*
X514189Y255125D01*
X514100Y255076D01*
X514009Y255030D01*
X513917Y254988D01*
X513824Y254949D01*
X513729Y254914D01*
X513632Y254882D01*
X513535Y254854D01*
X513437Y254830D01*
X513338Y254809D01*
X513238Y254792D01*
X513137Y254779D01*
X513036Y254770D01*
X512935Y254764D01*
X512834Y254762D01*
X511931Y254762D01*
X505282Y263793D02*
X500766Y263793D01*
X500766Y263794D02*
X500633Y263792D01*
X500501Y263786D01*
X500369Y263776D01*
X500237Y263763D01*
X500105Y263745D01*
X499975Y263724D01*
X499844Y263699D01*
X499715Y263670D01*
X499587Y263637D01*
X499459Y263601D01*
X499333Y263561D01*
X499208Y263517D01*
X499084Y263469D01*
X498962Y263418D01*
X498841Y263363D01*
X498722Y263305D01*
X498604Y263243D01*
X498489Y263178D01*
X498375Y263109D01*
X498264Y263038D01*
X498155Y262962D01*
X498048Y262884D01*
X497943Y262803D01*
X497841Y262718D01*
X497741Y262631D01*
X497644Y262541D01*
X497549Y262448D01*
X497458Y262352D01*
X497369Y262254D01*
X497283Y262153D01*
X497200Y262049D01*
X497120Y261943D01*
X497044Y261835D01*
X496970Y261725D01*
X496900Y261612D01*
X496833Y261498D01*
X496770Y261381D01*
X496710Y261263D01*
X496653Y261143D01*
X496600Y261021D01*
X496551Y260898D01*
X496505Y260774D01*
X496463Y260648D01*
X496425Y260521D01*
X496390Y260393D01*
X496359Y260264D01*
X496332Y260135D01*
X496309Y260004D01*
X496289Y259873D01*
X496274Y259741D01*
X496262Y259609D01*
X496254Y259477D01*
X496250Y259344D01*
X496250Y259212D01*
X496254Y259079D01*
X496262Y258947D01*
X496274Y258815D01*
X496289Y258683D01*
X496309Y258552D01*
X496332Y258421D01*
X496359Y258292D01*
X496390Y258163D01*
X496425Y258035D01*
X496463Y257908D01*
X496505Y257782D01*
X496551Y257658D01*
X496600Y257535D01*
X496653Y257413D01*
X496710Y257293D01*
X496770Y257175D01*
X496833Y257058D01*
X496900Y256944D01*
X496970Y256831D01*
X497044Y256721D01*
X497120Y256613D01*
X497200Y256507D01*
X497283Y256403D01*
X497369Y256302D01*
X497458Y256204D01*
X497549Y256108D01*
X497644Y256015D01*
X497741Y255925D01*
X497841Y255838D01*
X497943Y255753D01*
X498048Y255672D01*
X498155Y255594D01*
X498264Y255518D01*
X498375Y255447D01*
X498489Y255378D01*
X498604Y255313D01*
X498722Y255251D01*
X498841Y255193D01*
X498962Y255138D01*
X499084Y255087D01*
X499208Y255039D01*
X499333Y254995D01*
X499459Y254955D01*
X499587Y254919D01*
X499715Y254886D01*
X499844Y254857D01*
X499975Y254832D01*
X500105Y254811D01*
X500237Y254793D01*
X500369Y254780D01*
X500501Y254770D01*
X500633Y254764D01*
X500766Y254762D01*
X505282Y254762D01*
X505282Y271018D01*
X500766Y271018D01*
X500647Y271016D01*
X500527Y271010D01*
X500408Y271000D01*
X500290Y270986D01*
X500171Y270969D01*
X500054Y270947D01*
X499937Y270922D01*
X499822Y270892D01*
X499707Y270859D01*
X499593Y270822D01*
X499481Y270782D01*
X499370Y270737D01*
X499261Y270689D01*
X499153Y270638D01*
X499047Y270583D01*
X498943Y270524D01*
X498841Y270462D01*
X498741Y270397D01*
X498643Y270328D01*
X498547Y270256D01*
X498454Y270181D01*
X498364Y270104D01*
X498276Y270023D01*
X498191Y269939D01*
X498109Y269852D01*
X498029Y269763D01*
X497953Y269671D01*
X497879Y269577D01*
X497809Y269480D01*
X497742Y269382D01*
X497678Y269281D01*
X497618Y269177D01*
X497561Y269072D01*
X497508Y268965D01*
X497458Y268857D01*
X497412Y268747D01*
X497370Y268635D01*
X497331Y268522D01*
X497296Y268408D01*
X497265Y268293D01*
X497237Y268176D01*
X497214Y268059D01*
X497194Y267942D01*
X497178Y267823D01*
X497166Y267704D01*
X497158Y267585D01*
X497154Y267466D01*
X497154Y267346D01*
X497158Y267227D01*
X497166Y267108D01*
X497178Y266989D01*
X497194Y266870D01*
X497214Y266753D01*
X497237Y266636D01*
X497265Y266519D01*
X497296Y266404D01*
X497331Y266290D01*
X497370Y266177D01*
X497412Y266065D01*
X497458Y265955D01*
X497508Y265847D01*
X497561Y265740D01*
X497618Y265635D01*
X497678Y265531D01*
X497742Y265430D01*
X497809Y265332D01*
X497879Y265235D01*
X497953Y265141D01*
X498029Y265049D01*
X498109Y264960D01*
X498191Y264873D01*
X498276Y264789D01*
X498364Y264708D01*
X498454Y264631D01*
X498547Y264556D01*
X498643Y264484D01*
X498741Y264415D01*
X498841Y264350D01*
X498943Y264288D01*
X499047Y264229D01*
X499153Y264174D01*
X499261Y264123D01*
X499370Y264075D01*
X499481Y264030D01*
X499593Y263990D01*
X499707Y263953D01*
X499822Y263920D01*
X499937Y263890D01*
X500054Y263865D01*
X500171Y263843D01*
X500290Y263826D01*
X500408Y263812D01*
X500527Y263802D01*
X500647Y263796D01*
X500766Y263794D01*
X487812Y254762D02*
X483297Y254762D01*
X487812Y254762D02*
X487913Y254764D01*
X488014Y254770D01*
X488115Y254779D01*
X488216Y254792D01*
X488316Y254809D01*
X488415Y254830D01*
X488513Y254854D01*
X488610Y254882D01*
X488707Y254914D01*
X488802Y254949D01*
X488895Y254988D01*
X488987Y255030D01*
X489078Y255076D01*
X489167Y255125D01*
X489253Y255177D01*
X489338Y255233D01*
X489421Y255291D01*
X489501Y255353D01*
X489579Y255418D01*
X489655Y255485D01*
X489728Y255555D01*
X489798Y255628D01*
X489865Y255704D01*
X489930Y255782D01*
X489992Y255862D01*
X490050Y255945D01*
X490106Y256030D01*
X490158Y256116D01*
X490207Y256205D01*
X490253Y256296D01*
X490295Y256388D01*
X490334Y256481D01*
X490369Y256576D01*
X490401Y256673D01*
X490429Y256770D01*
X490453Y256868D01*
X490474Y256967D01*
X490491Y257067D01*
X490504Y257168D01*
X490513Y257269D01*
X490519Y257370D01*
X490521Y257471D01*
X490522Y257471D02*
X490522Y261987D01*
X490521Y261987D02*
X490519Y262106D01*
X490513Y262226D01*
X490503Y262345D01*
X490489Y262463D01*
X490472Y262582D01*
X490450Y262699D01*
X490425Y262816D01*
X490395Y262931D01*
X490362Y263046D01*
X490325Y263160D01*
X490285Y263272D01*
X490240Y263383D01*
X490192Y263492D01*
X490141Y263600D01*
X490086Y263706D01*
X490027Y263810D01*
X489965Y263912D01*
X489900Y264012D01*
X489831Y264110D01*
X489759Y264206D01*
X489684Y264299D01*
X489607Y264389D01*
X489526Y264477D01*
X489442Y264562D01*
X489355Y264644D01*
X489266Y264724D01*
X489174Y264800D01*
X489080Y264874D01*
X488983Y264944D01*
X488885Y265011D01*
X488784Y265075D01*
X488680Y265135D01*
X488575Y265192D01*
X488468Y265245D01*
X488360Y265295D01*
X488250Y265341D01*
X488138Y265383D01*
X488025Y265422D01*
X487911Y265457D01*
X487796Y265488D01*
X487679Y265516D01*
X487562Y265539D01*
X487445Y265559D01*
X487326Y265575D01*
X487207Y265587D01*
X487088Y265595D01*
X486969Y265599D01*
X486849Y265599D01*
X486730Y265595D01*
X486611Y265587D01*
X486492Y265575D01*
X486373Y265559D01*
X486256Y265539D01*
X486139Y265516D01*
X486022Y265488D01*
X485907Y265457D01*
X485793Y265422D01*
X485680Y265383D01*
X485568Y265341D01*
X485458Y265295D01*
X485350Y265245D01*
X485243Y265192D01*
X485138Y265135D01*
X485034Y265075D01*
X484933Y265011D01*
X484835Y264944D01*
X484738Y264874D01*
X484644Y264800D01*
X484552Y264724D01*
X484463Y264644D01*
X484376Y264562D01*
X484292Y264477D01*
X484211Y264389D01*
X484134Y264299D01*
X484059Y264206D01*
X483987Y264110D01*
X483918Y264012D01*
X483853Y263912D01*
X483791Y263810D01*
X483732Y263706D01*
X483677Y263600D01*
X483626Y263492D01*
X483578Y263383D01*
X483533Y263272D01*
X483493Y263160D01*
X483456Y263046D01*
X483423Y262931D01*
X483393Y262816D01*
X483368Y262699D01*
X483346Y262582D01*
X483329Y262463D01*
X483315Y262345D01*
X483305Y262226D01*
X483299Y262106D01*
X483297Y261987D01*
X483297Y260181D01*
X490522Y260181D01*
X473887Y261084D02*
X469823Y261084D01*
X473887Y261084D02*
X473999Y261082D01*
X474110Y261076D01*
X474221Y261066D01*
X474332Y261053D01*
X474442Y261035D01*
X474551Y261013D01*
X474660Y260988D01*
X474768Y260959D01*
X474874Y260926D01*
X474980Y260889D01*
X475084Y260849D01*
X475186Y260805D01*
X475287Y260757D01*
X475386Y260706D01*
X475484Y260651D01*
X475579Y260593D01*
X475672Y260532D01*
X475763Y260467D01*
X475852Y260399D01*
X475938Y260328D01*
X476021Y260255D01*
X476102Y260178D01*
X476181Y260098D01*
X476256Y260016D01*
X476328Y259931D01*
X476398Y259844D01*
X476464Y259754D01*
X476527Y259662D01*
X476587Y259567D01*
X476643Y259471D01*
X476696Y259373D01*
X476745Y259273D01*
X476791Y259171D01*
X476833Y259068D01*
X476872Y258963D01*
X476907Y258857D01*
X476938Y258750D01*
X476965Y258642D01*
X476989Y258533D01*
X477008Y258423D01*
X477024Y258313D01*
X477036Y258202D01*
X477044Y258090D01*
X477048Y257979D01*
X477048Y257867D01*
X477044Y257756D01*
X477036Y257644D01*
X477024Y257533D01*
X477008Y257423D01*
X476989Y257313D01*
X476965Y257204D01*
X476938Y257096D01*
X476907Y256989D01*
X476872Y256883D01*
X476833Y256778D01*
X476791Y256675D01*
X476745Y256573D01*
X476696Y256473D01*
X476643Y256375D01*
X476587Y256279D01*
X476527Y256184D01*
X476464Y256092D01*
X476398Y256002D01*
X476328Y255915D01*
X476256Y255830D01*
X476181Y255748D01*
X476102Y255668D01*
X476021Y255591D01*
X475938Y255518D01*
X475852Y255447D01*
X475763Y255379D01*
X475672Y255314D01*
X475579Y255253D01*
X475484Y255195D01*
X475386Y255140D01*
X475287Y255089D01*
X475186Y255041D01*
X475084Y254997D01*
X474980Y254957D01*
X474874Y254920D01*
X474768Y254887D01*
X474660Y254858D01*
X474551Y254833D01*
X474442Y254811D01*
X474332Y254793D01*
X474221Y254780D01*
X474110Y254770D01*
X473999Y254764D01*
X473887Y254762D01*
X469823Y254762D01*
X469823Y262890D01*
X469825Y262991D01*
X469831Y263092D01*
X469840Y263193D01*
X469853Y263294D01*
X469870Y263394D01*
X469891Y263493D01*
X469915Y263591D01*
X469943Y263688D01*
X469975Y263785D01*
X470010Y263880D01*
X470049Y263973D01*
X470091Y264065D01*
X470137Y264156D01*
X470186Y264245D01*
X470238Y264331D01*
X470294Y264416D01*
X470352Y264499D01*
X470414Y264579D01*
X470479Y264657D01*
X470546Y264733D01*
X470616Y264806D01*
X470689Y264876D01*
X470765Y264943D01*
X470843Y265008D01*
X470923Y265070D01*
X471006Y265128D01*
X471091Y265184D01*
X471178Y265236D01*
X471266Y265285D01*
X471357Y265331D01*
X471449Y265373D01*
X471542Y265412D01*
X471637Y265447D01*
X471734Y265479D01*
X471831Y265507D01*
X471929Y265531D01*
X472028Y265552D01*
X472128Y265569D01*
X472229Y265582D01*
X472330Y265591D01*
X472431Y265597D01*
X472532Y265599D01*
X476145Y265599D01*
X460270Y254762D02*
X455755Y254762D01*
X460270Y254762D02*
X460371Y254764D01*
X460472Y254770D01*
X460573Y254779D01*
X460674Y254792D01*
X460774Y254809D01*
X460873Y254830D01*
X460971Y254854D01*
X461068Y254882D01*
X461165Y254914D01*
X461260Y254949D01*
X461353Y254988D01*
X461445Y255030D01*
X461536Y255076D01*
X461625Y255125D01*
X461711Y255177D01*
X461796Y255233D01*
X461879Y255291D01*
X461959Y255353D01*
X462037Y255418D01*
X462113Y255485D01*
X462186Y255555D01*
X462256Y255628D01*
X462323Y255704D01*
X462388Y255782D01*
X462450Y255862D01*
X462508Y255945D01*
X462564Y256030D01*
X462616Y256116D01*
X462665Y256205D01*
X462711Y256296D01*
X462753Y256388D01*
X462792Y256481D01*
X462827Y256576D01*
X462859Y256673D01*
X462887Y256770D01*
X462911Y256868D01*
X462932Y256967D01*
X462949Y257067D01*
X462962Y257168D01*
X462971Y257269D01*
X462977Y257370D01*
X462979Y257471D01*
X462980Y257471D02*
X462980Y262890D01*
X462979Y262890D02*
X462977Y262991D01*
X462971Y263092D01*
X462962Y263193D01*
X462949Y263294D01*
X462932Y263394D01*
X462911Y263493D01*
X462887Y263591D01*
X462859Y263688D01*
X462827Y263785D01*
X462792Y263880D01*
X462753Y263973D01*
X462711Y264065D01*
X462665Y264156D01*
X462616Y264245D01*
X462564Y264331D01*
X462508Y264416D01*
X462450Y264499D01*
X462388Y264579D01*
X462323Y264657D01*
X462256Y264733D01*
X462186Y264806D01*
X462113Y264876D01*
X462037Y264943D01*
X461959Y265008D01*
X461879Y265070D01*
X461796Y265128D01*
X461711Y265184D01*
X461625Y265236D01*
X461536Y265285D01*
X461445Y265331D01*
X461353Y265373D01*
X461260Y265412D01*
X461165Y265447D01*
X461068Y265479D01*
X460971Y265507D01*
X460873Y265531D01*
X460774Y265552D01*
X460674Y265569D01*
X460573Y265582D01*
X460472Y265591D01*
X460371Y265597D01*
X460270Y265599D01*
X455755Y265599D01*
X455755Y252053D01*
X455757Y251952D01*
X455763Y251851D01*
X455772Y251750D01*
X455785Y251649D01*
X455802Y251549D01*
X455823Y251450D01*
X455847Y251352D01*
X455875Y251255D01*
X455907Y251158D01*
X455942Y251063D01*
X455981Y250970D01*
X456023Y250878D01*
X456069Y250787D01*
X456118Y250699D01*
X456170Y250612D01*
X456226Y250527D01*
X456284Y250444D01*
X456346Y250364D01*
X456411Y250286D01*
X456478Y250210D01*
X456548Y250137D01*
X456621Y250067D01*
X456697Y250000D01*
X456775Y249935D01*
X456855Y249873D01*
X456938Y249815D01*
X457023Y249759D01*
X457110Y249707D01*
X457198Y249658D01*
X457289Y249612D01*
X457381Y249570D01*
X457474Y249531D01*
X457569Y249496D01*
X457666Y249464D01*
X457763Y249436D01*
X457861Y249412D01*
X457960Y249391D01*
X458060Y249374D01*
X458161Y249361D01*
X458262Y249352D01*
X458363Y249346D01*
X458464Y249344D01*
X458464Y249343D02*
X462077Y249343D01*
X448601Y257471D02*
X448601Y271018D01*
X448601Y257471D02*
X448599Y257370D01*
X448593Y257269D01*
X448584Y257168D01*
X448571Y257067D01*
X448554Y256967D01*
X448533Y256868D01*
X448509Y256770D01*
X448481Y256673D01*
X448449Y256576D01*
X448414Y256481D01*
X448375Y256388D01*
X448333Y256296D01*
X448287Y256205D01*
X448238Y256116D01*
X448186Y256030D01*
X448130Y255945D01*
X448072Y255862D01*
X448010Y255782D01*
X447945Y255704D01*
X447878Y255628D01*
X447808Y255555D01*
X447735Y255485D01*
X447659Y255418D01*
X447581Y255353D01*
X447501Y255291D01*
X447418Y255233D01*
X447333Y255177D01*
X447247Y255125D01*
X447158Y255076D01*
X447067Y255030D01*
X446975Y254988D01*
X446882Y254949D01*
X446787Y254914D01*
X446690Y254882D01*
X446593Y254854D01*
X446495Y254830D01*
X446396Y254809D01*
X446296Y254792D01*
X446195Y254779D01*
X446094Y254770D01*
X445993Y254764D01*
X445892Y254762D01*
X437792Y254762D02*
X433277Y254762D01*
X437792Y254762D02*
X437893Y254764D01*
X437994Y254770D01*
X438095Y254779D01*
X438196Y254792D01*
X438296Y254809D01*
X438395Y254830D01*
X438493Y254854D01*
X438590Y254882D01*
X438687Y254914D01*
X438782Y254949D01*
X438875Y254988D01*
X438967Y255030D01*
X439058Y255076D01*
X439147Y255125D01*
X439233Y255177D01*
X439318Y255233D01*
X439401Y255291D01*
X439481Y255353D01*
X439559Y255418D01*
X439635Y255485D01*
X439708Y255555D01*
X439778Y255628D01*
X439845Y255704D01*
X439910Y255782D01*
X439972Y255862D01*
X440030Y255945D01*
X440086Y256030D01*
X440138Y256116D01*
X440187Y256205D01*
X440233Y256296D01*
X440275Y256388D01*
X440314Y256481D01*
X440349Y256576D01*
X440381Y256673D01*
X440409Y256770D01*
X440433Y256868D01*
X440454Y256967D01*
X440471Y257067D01*
X440484Y257168D01*
X440493Y257269D01*
X440499Y257370D01*
X440501Y257471D01*
X440502Y257471D02*
X440502Y261987D01*
X440501Y261987D02*
X440499Y262106D01*
X440493Y262226D01*
X440483Y262345D01*
X440469Y262463D01*
X440452Y262582D01*
X440430Y262699D01*
X440405Y262816D01*
X440375Y262931D01*
X440342Y263046D01*
X440305Y263160D01*
X440265Y263272D01*
X440220Y263383D01*
X440172Y263492D01*
X440121Y263600D01*
X440066Y263706D01*
X440007Y263810D01*
X439945Y263912D01*
X439880Y264012D01*
X439811Y264110D01*
X439739Y264206D01*
X439664Y264299D01*
X439587Y264389D01*
X439506Y264477D01*
X439422Y264562D01*
X439335Y264644D01*
X439246Y264724D01*
X439154Y264800D01*
X439060Y264874D01*
X438963Y264944D01*
X438865Y265011D01*
X438764Y265075D01*
X438660Y265135D01*
X438555Y265192D01*
X438448Y265245D01*
X438340Y265295D01*
X438230Y265341D01*
X438118Y265383D01*
X438005Y265422D01*
X437891Y265457D01*
X437776Y265488D01*
X437659Y265516D01*
X437542Y265539D01*
X437425Y265559D01*
X437306Y265575D01*
X437187Y265587D01*
X437068Y265595D01*
X436949Y265599D01*
X436829Y265599D01*
X436710Y265595D01*
X436591Y265587D01*
X436472Y265575D01*
X436353Y265559D01*
X436236Y265539D01*
X436119Y265516D01*
X436002Y265488D01*
X435887Y265457D01*
X435773Y265422D01*
X435660Y265383D01*
X435548Y265341D01*
X435438Y265295D01*
X435330Y265245D01*
X435223Y265192D01*
X435118Y265135D01*
X435014Y265075D01*
X434913Y265011D01*
X434815Y264944D01*
X434718Y264874D01*
X434624Y264800D01*
X434532Y264724D01*
X434443Y264644D01*
X434356Y264562D01*
X434272Y264477D01*
X434191Y264389D01*
X434114Y264299D01*
X434039Y264206D01*
X433967Y264110D01*
X433898Y264012D01*
X433833Y263912D01*
X433771Y263810D01*
X433712Y263706D01*
X433657Y263600D01*
X433606Y263492D01*
X433558Y263383D01*
X433513Y263272D01*
X433473Y263160D01*
X433436Y263046D01*
X433403Y262931D01*
X433373Y262816D01*
X433348Y262699D01*
X433326Y262582D01*
X433309Y262463D01*
X433295Y262345D01*
X433285Y262226D01*
X433279Y262106D01*
X433277Y261987D01*
X433277Y260181D01*
X440502Y260181D01*
D13*
X727654Y249372D02*
X736092Y249372D01*
X727654Y249371D02*
X727541Y249373D01*
X727428Y249379D01*
X727315Y249389D01*
X727202Y249403D01*
X727090Y249420D01*
X726979Y249442D01*
X726869Y249467D01*
X726759Y249497D01*
X726651Y249530D01*
X726544Y249567D01*
X726438Y249607D01*
X726334Y249652D01*
X726231Y249700D01*
X726130Y249751D01*
X726031Y249806D01*
X725934Y249864D01*
X725839Y249926D01*
X725746Y249991D01*
X725656Y250059D01*
X725568Y250130D01*
X725482Y250205D01*
X725399Y250282D01*
X725319Y250362D01*
X725242Y250445D01*
X725167Y250531D01*
X725096Y250619D01*
X725028Y250709D01*
X724963Y250802D01*
X724901Y250897D01*
X724843Y250994D01*
X724788Y251093D01*
X724737Y251194D01*
X724689Y251297D01*
X724644Y251401D01*
X724604Y251507D01*
X724567Y251614D01*
X724534Y251722D01*
X724504Y251832D01*
X724479Y251942D01*
X724457Y252053D01*
X724440Y252165D01*
X724426Y252278D01*
X724416Y252391D01*
X724410Y252504D01*
X724408Y252617D01*
X724410Y252730D01*
X724416Y252843D01*
X724426Y252956D01*
X724440Y253069D01*
X724457Y253181D01*
X724479Y253292D01*
X724504Y253402D01*
X724534Y253512D01*
X724567Y253620D01*
X724604Y253727D01*
X724644Y253833D01*
X724689Y253937D01*
X724737Y254040D01*
X724788Y254141D01*
X724843Y254240D01*
X724901Y254337D01*
X724963Y254432D01*
X725028Y254525D01*
X725096Y254615D01*
X725167Y254703D01*
X725242Y254789D01*
X725319Y254872D01*
X725399Y254952D01*
X725482Y255029D01*
X725568Y255104D01*
X725656Y255175D01*
X725746Y255243D01*
X725839Y255308D01*
X725934Y255370D01*
X726031Y255428D01*
X726130Y255483D01*
X726231Y255534D01*
X726334Y255582D01*
X726438Y255627D01*
X726544Y255667D01*
X726651Y255704D01*
X726759Y255737D01*
X726869Y255767D01*
X726979Y255792D01*
X727090Y255814D01*
X727202Y255831D01*
X727315Y255845D01*
X727428Y255855D01*
X727541Y255861D01*
X727654Y255863D01*
X736092Y255863D01*
X727004Y267292D02*
X726905Y267290D01*
X726805Y267284D01*
X726706Y267275D01*
X726608Y267262D01*
X726510Y267245D01*
X726412Y267224D01*
X726316Y267199D01*
X726221Y267171D01*
X726127Y267139D01*
X726034Y267104D01*
X725942Y267065D01*
X725852Y267022D01*
X725764Y266977D01*
X725677Y266927D01*
X725593Y266875D01*
X725510Y266819D01*
X725430Y266761D01*
X725352Y266699D01*
X725277Y266634D01*
X725204Y266566D01*
X725134Y266496D01*
X725066Y266423D01*
X725001Y266348D01*
X724939Y266270D01*
X724881Y266190D01*
X724825Y266107D01*
X724773Y266023D01*
X724723Y265936D01*
X724678Y265848D01*
X724635Y265758D01*
X724596Y265666D01*
X724561Y265573D01*
X724529Y265479D01*
X724501Y265384D01*
X724476Y265288D01*
X724455Y265190D01*
X724438Y265092D01*
X724425Y264994D01*
X724416Y264895D01*
X724410Y264795D01*
X724408Y264696D01*
X724410Y264552D01*
X724416Y264407D01*
X724425Y264263D01*
X724438Y264120D01*
X724455Y263976D01*
X724476Y263833D01*
X724501Y263691D01*
X724529Y263550D01*
X724561Y263409D01*
X724597Y263269D01*
X724636Y263130D01*
X724679Y262992D01*
X724726Y262856D01*
X724776Y262720D01*
X724830Y262586D01*
X724887Y262454D01*
X724948Y262323D01*
X725012Y262194D01*
X725080Y262066D01*
X725150Y261940D01*
X725225Y261816D01*
X725302Y261695D01*
X725383Y261575D01*
X725466Y261457D01*
X725553Y261342D01*
X725643Y261229D01*
X725736Y261118D01*
X725831Y261010D01*
X725930Y260904D01*
X726031Y260801D01*
X733496Y261127D02*
X733595Y261129D01*
X733695Y261135D01*
X733794Y261144D01*
X733892Y261157D01*
X733990Y261174D01*
X734088Y261195D01*
X734184Y261220D01*
X734279Y261248D01*
X734373Y261280D01*
X734466Y261315D01*
X734558Y261354D01*
X734648Y261397D01*
X734736Y261442D01*
X734823Y261492D01*
X734907Y261544D01*
X734990Y261600D01*
X735070Y261658D01*
X735148Y261720D01*
X735223Y261785D01*
X735296Y261853D01*
X735366Y261923D01*
X735434Y261996D01*
X735499Y262071D01*
X735561Y262149D01*
X735619Y262229D01*
X735675Y262312D01*
X735727Y262396D01*
X735777Y262483D01*
X735822Y262571D01*
X735865Y262661D01*
X735904Y262753D01*
X735939Y262846D01*
X735971Y262940D01*
X735999Y263035D01*
X736024Y263132D01*
X736045Y263229D01*
X736062Y263327D01*
X736075Y263425D01*
X736084Y263524D01*
X736090Y263624D01*
X736092Y263723D01*
X736090Y263859D01*
X736084Y263995D01*
X736075Y264131D01*
X736062Y264267D01*
X736044Y264402D01*
X736024Y264536D01*
X735999Y264670D01*
X735971Y264804D01*
X735938Y264936D01*
X735903Y265067D01*
X735863Y265198D01*
X735820Y265327D01*
X735774Y265455D01*
X735723Y265581D01*
X735670Y265707D01*
X735612Y265830D01*
X735552Y265952D01*
X735488Y266072D01*
X735420Y266191D01*
X735350Y266307D01*
X735276Y266421D01*
X735199Y266534D01*
X735118Y266644D01*
X731224Y262424D02*
X731277Y262338D01*
X731334Y262254D01*
X731393Y262172D01*
X731456Y262092D01*
X731522Y262015D01*
X731590Y261940D01*
X731662Y261868D01*
X731736Y261799D01*
X731813Y261733D01*
X731892Y261670D01*
X731974Y261610D01*
X732058Y261553D01*
X732144Y261499D01*
X732232Y261449D01*
X732322Y261402D01*
X732413Y261358D01*
X732507Y261319D01*
X732601Y261282D01*
X732697Y261250D01*
X732795Y261221D01*
X732893Y261196D01*
X732992Y261175D01*
X733092Y261157D01*
X733192Y261144D01*
X733293Y261134D01*
X733395Y261128D01*
X733496Y261126D01*
X729276Y265995D02*
X729223Y266081D01*
X729166Y266165D01*
X729107Y266247D01*
X729044Y266327D01*
X728978Y266404D01*
X728910Y266479D01*
X728838Y266551D01*
X728764Y266620D01*
X728687Y266686D01*
X728608Y266749D01*
X728526Y266809D01*
X728442Y266866D01*
X728356Y266920D01*
X728268Y266970D01*
X728178Y267017D01*
X728087Y267061D01*
X727993Y267100D01*
X727899Y267137D01*
X727803Y267169D01*
X727705Y267198D01*
X727607Y267223D01*
X727508Y267244D01*
X727408Y267262D01*
X727308Y267275D01*
X727207Y267285D01*
X727105Y267291D01*
X727004Y267293D01*
X729276Y265994D02*
X731224Y262424D01*
X730899Y272401D02*
X730899Y275646D01*
X730900Y275646D02*
X730898Y275759D01*
X730892Y275872D01*
X730882Y275985D01*
X730868Y276098D01*
X730851Y276210D01*
X730829Y276321D01*
X730804Y276431D01*
X730774Y276541D01*
X730741Y276649D01*
X730704Y276756D01*
X730664Y276862D01*
X730619Y276966D01*
X730571Y277069D01*
X730520Y277170D01*
X730465Y277269D01*
X730407Y277366D01*
X730345Y277461D01*
X730280Y277554D01*
X730212Y277644D01*
X730141Y277732D01*
X730066Y277818D01*
X729989Y277901D01*
X729909Y277981D01*
X729826Y278058D01*
X729740Y278133D01*
X729652Y278204D01*
X729562Y278272D01*
X729469Y278337D01*
X729374Y278399D01*
X729277Y278457D01*
X729178Y278512D01*
X729077Y278563D01*
X728974Y278611D01*
X728870Y278656D01*
X728764Y278696D01*
X728657Y278733D01*
X728549Y278766D01*
X728439Y278796D01*
X728329Y278821D01*
X728218Y278843D01*
X728106Y278860D01*
X727993Y278874D01*
X727880Y278884D01*
X727767Y278890D01*
X727654Y278892D01*
X727541Y278890D01*
X727428Y278884D01*
X727315Y278874D01*
X727202Y278860D01*
X727090Y278843D01*
X726979Y278821D01*
X726869Y278796D01*
X726759Y278766D01*
X726651Y278733D01*
X726544Y278696D01*
X726438Y278656D01*
X726334Y278611D01*
X726231Y278563D01*
X726130Y278512D01*
X726031Y278457D01*
X725934Y278399D01*
X725839Y278337D01*
X725746Y278272D01*
X725656Y278204D01*
X725568Y278133D01*
X725482Y278058D01*
X725399Y277981D01*
X725319Y277901D01*
X725242Y277818D01*
X725167Y277732D01*
X725096Y277644D01*
X725028Y277554D01*
X724963Y277461D01*
X724901Y277366D01*
X724843Y277269D01*
X724788Y277170D01*
X724737Y277069D01*
X724689Y276966D01*
X724644Y276862D01*
X724604Y276756D01*
X724567Y276649D01*
X724534Y276541D01*
X724504Y276431D01*
X724479Y276321D01*
X724457Y276210D01*
X724440Y276098D01*
X724426Y275985D01*
X724416Y275872D01*
X724410Y275759D01*
X724408Y275646D01*
X724408Y272401D01*
X736092Y272401D01*
X736092Y275646D01*
X736090Y275747D01*
X736084Y275847D01*
X736074Y275947D01*
X736061Y276047D01*
X736043Y276146D01*
X736022Y276245D01*
X735997Y276342D01*
X735968Y276439D01*
X735935Y276534D01*
X735899Y276628D01*
X735859Y276720D01*
X735816Y276811D01*
X735769Y276900D01*
X735719Y276987D01*
X735665Y277073D01*
X735608Y277156D01*
X735548Y277236D01*
X735485Y277315D01*
X735418Y277391D01*
X735349Y277464D01*
X735277Y277534D01*
X735203Y277602D01*
X735126Y277667D01*
X735046Y277728D01*
X734964Y277787D01*
X734880Y277842D01*
X734794Y277894D01*
X734706Y277943D01*
X734616Y277988D01*
X734524Y278030D01*
X734431Y278068D01*
X734336Y278102D01*
X734241Y278133D01*
X734144Y278160D01*
X734046Y278183D01*
X733947Y278203D01*
X733847Y278218D01*
X733747Y278230D01*
X733647Y278238D01*
X733546Y278242D01*
X733446Y278242D01*
X733345Y278238D01*
X733245Y278230D01*
X733145Y278218D01*
X733045Y278203D01*
X732946Y278183D01*
X732848Y278160D01*
X732751Y278133D01*
X732656Y278102D01*
X732561Y278068D01*
X732468Y278030D01*
X732376Y277988D01*
X732286Y277943D01*
X732198Y277894D01*
X732112Y277842D01*
X732028Y277787D01*
X731946Y277728D01*
X731866Y277667D01*
X731789Y277602D01*
X731715Y277534D01*
X731643Y277464D01*
X731574Y277391D01*
X731507Y277315D01*
X731444Y277236D01*
X731384Y277156D01*
X731327Y277073D01*
X731273Y276987D01*
X731223Y276900D01*
X731176Y276811D01*
X731133Y276720D01*
X731093Y276628D01*
X731057Y276534D01*
X731024Y276439D01*
X730995Y276342D01*
X730970Y276245D01*
X730949Y276146D01*
X730931Y276047D01*
X730918Y275947D01*
X730908Y275847D01*
X730902Y275747D01*
X730900Y275646D01*
D12*
X735838Y100838D02*
X735838Y92766D01*
X735836Y92655D01*
X735830Y92545D01*
X735820Y92434D01*
X735806Y92324D01*
X735789Y92215D01*
X735767Y92106D01*
X735742Y91998D01*
X735712Y91892D01*
X735679Y91786D01*
X735642Y91681D01*
X735602Y91578D01*
X735557Y91477D01*
X735510Y91377D01*
X735458Y91278D01*
X735403Y91182D01*
X735345Y91088D01*
X735284Y90996D01*
X735219Y90906D01*
X735151Y90818D01*
X735080Y90733D01*
X735006Y90651D01*
X734929Y90571D01*
X734849Y90494D01*
X734767Y90420D01*
X734682Y90349D01*
X734594Y90281D01*
X734504Y90216D01*
X734412Y90155D01*
X734318Y90097D01*
X734222Y90042D01*
X734123Y89990D01*
X734023Y89943D01*
X733922Y89898D01*
X733819Y89858D01*
X733714Y89821D01*
X733608Y89788D01*
X733502Y89758D01*
X733394Y89733D01*
X733285Y89711D01*
X733176Y89694D01*
X733066Y89680D01*
X732955Y89670D01*
X732845Y89664D01*
X732734Y89662D01*
X732623Y89664D01*
X732513Y89670D01*
X732402Y89680D01*
X732292Y89694D01*
X732183Y89711D01*
X732074Y89733D01*
X731966Y89758D01*
X731860Y89788D01*
X731754Y89821D01*
X731649Y89858D01*
X731546Y89898D01*
X731445Y89943D01*
X731345Y89990D01*
X731246Y90042D01*
X731150Y90097D01*
X731056Y90155D01*
X730964Y90216D01*
X730874Y90281D01*
X730786Y90349D01*
X730701Y90420D01*
X730619Y90494D01*
X730539Y90571D01*
X730462Y90651D01*
X730388Y90733D01*
X730317Y90818D01*
X730249Y90906D01*
X730184Y90996D01*
X730123Y91088D01*
X730065Y91182D01*
X730010Y91278D01*
X729958Y91377D01*
X729911Y91477D01*
X729866Y91578D01*
X729826Y91681D01*
X729789Y91786D01*
X729756Y91892D01*
X729726Y91998D01*
X729701Y92106D01*
X729679Y92215D01*
X729662Y92324D01*
X729648Y92434D01*
X729638Y92545D01*
X729632Y92655D01*
X729630Y92766D01*
X729629Y92766D02*
X729629Y100838D01*
X724027Y98354D02*
X720923Y100838D01*
X720923Y89662D01*
X724027Y89662D02*
X717818Y89662D01*
D14*
X580390Y76200D02*
X570230Y76200D01*
D12*
X589809Y62738D02*
X589809Y51562D01*
X589809Y62738D02*
X586704Y62738D01*
X586593Y62736D01*
X586483Y62730D01*
X586372Y62720D01*
X586262Y62706D01*
X586153Y62689D01*
X586044Y62667D01*
X585936Y62642D01*
X585830Y62612D01*
X585724Y62579D01*
X585619Y62542D01*
X585516Y62502D01*
X585415Y62457D01*
X585315Y62410D01*
X585216Y62358D01*
X585120Y62303D01*
X585026Y62245D01*
X584934Y62184D01*
X584844Y62119D01*
X584756Y62051D01*
X584671Y61980D01*
X584589Y61906D01*
X584509Y61829D01*
X584432Y61749D01*
X584358Y61667D01*
X584287Y61582D01*
X584219Y61494D01*
X584154Y61404D01*
X584093Y61312D01*
X584035Y61218D01*
X583980Y61122D01*
X583928Y61023D01*
X583881Y60923D01*
X583836Y60822D01*
X583796Y60719D01*
X583759Y60614D01*
X583726Y60508D01*
X583696Y60402D01*
X583671Y60294D01*
X583649Y60185D01*
X583632Y60076D01*
X583618Y59966D01*
X583608Y59855D01*
X583602Y59745D01*
X583600Y59634D01*
X583602Y59523D01*
X583608Y59413D01*
X583618Y59302D01*
X583632Y59192D01*
X583649Y59083D01*
X583671Y58974D01*
X583696Y58866D01*
X583726Y58760D01*
X583759Y58654D01*
X583796Y58549D01*
X583836Y58446D01*
X583881Y58345D01*
X583928Y58245D01*
X583980Y58146D01*
X584035Y58050D01*
X584093Y57956D01*
X584154Y57864D01*
X584219Y57774D01*
X584287Y57686D01*
X584358Y57601D01*
X584432Y57519D01*
X584509Y57439D01*
X584589Y57362D01*
X584671Y57288D01*
X584756Y57217D01*
X584844Y57149D01*
X584934Y57084D01*
X585026Y57023D01*
X585120Y56965D01*
X585216Y56910D01*
X585315Y56858D01*
X585415Y56811D01*
X585516Y56766D01*
X585619Y56726D01*
X585724Y56689D01*
X585830Y56656D01*
X585936Y56626D01*
X586044Y56601D01*
X586153Y56579D01*
X586262Y56562D01*
X586372Y56548D01*
X586483Y56538D01*
X586593Y56532D01*
X586704Y56530D01*
X586704Y56529D02*
X589809Y56529D01*
X586084Y56529D02*
X583600Y51562D01*
X578471Y60254D02*
X575366Y62738D01*
X575366Y51562D01*
X572262Y51562D02*
X578471Y51562D01*
D14*
X596900Y76200D02*
X607060Y76200D01*
D12*
X615209Y62738D02*
X615209Y51562D01*
X615209Y62738D02*
X612104Y62738D01*
X611993Y62736D01*
X611883Y62730D01*
X611772Y62720D01*
X611662Y62706D01*
X611553Y62689D01*
X611444Y62667D01*
X611336Y62642D01*
X611230Y62612D01*
X611124Y62579D01*
X611019Y62542D01*
X610916Y62502D01*
X610815Y62457D01*
X610715Y62410D01*
X610616Y62358D01*
X610520Y62303D01*
X610426Y62245D01*
X610334Y62184D01*
X610244Y62119D01*
X610156Y62051D01*
X610071Y61980D01*
X609989Y61906D01*
X609909Y61829D01*
X609832Y61749D01*
X609758Y61667D01*
X609687Y61582D01*
X609619Y61494D01*
X609554Y61404D01*
X609493Y61312D01*
X609435Y61218D01*
X609380Y61122D01*
X609328Y61023D01*
X609281Y60923D01*
X609236Y60822D01*
X609196Y60719D01*
X609159Y60614D01*
X609126Y60508D01*
X609096Y60402D01*
X609071Y60294D01*
X609049Y60185D01*
X609032Y60076D01*
X609018Y59966D01*
X609008Y59855D01*
X609002Y59745D01*
X609000Y59634D01*
X609002Y59523D01*
X609008Y59413D01*
X609018Y59302D01*
X609032Y59192D01*
X609049Y59083D01*
X609071Y58974D01*
X609096Y58866D01*
X609126Y58760D01*
X609159Y58654D01*
X609196Y58549D01*
X609236Y58446D01*
X609281Y58345D01*
X609328Y58245D01*
X609380Y58146D01*
X609435Y58050D01*
X609493Y57956D01*
X609554Y57864D01*
X609619Y57774D01*
X609687Y57686D01*
X609758Y57601D01*
X609832Y57519D01*
X609909Y57439D01*
X609989Y57362D01*
X610071Y57288D01*
X610156Y57217D01*
X610244Y57149D01*
X610334Y57084D01*
X610426Y57023D01*
X610520Y56965D01*
X610616Y56910D01*
X610715Y56858D01*
X610815Y56811D01*
X610916Y56766D01*
X611019Y56726D01*
X611124Y56689D01*
X611230Y56656D01*
X611336Y56626D01*
X611444Y56601D01*
X611553Y56579D01*
X611662Y56562D01*
X611772Y56548D01*
X611883Y56538D01*
X611993Y56532D01*
X612104Y56530D01*
X612104Y56529D02*
X615209Y56529D01*
X611484Y56529D02*
X609000Y51562D01*
X600456Y62738D02*
X600352Y62736D01*
X600247Y62730D01*
X600143Y62720D01*
X600040Y62707D01*
X599937Y62689D01*
X599834Y62668D01*
X599733Y62643D01*
X599632Y62614D01*
X599533Y62581D01*
X599435Y62545D01*
X599339Y62505D01*
X599244Y62461D01*
X599150Y62414D01*
X599059Y62364D01*
X598970Y62310D01*
X598882Y62253D01*
X598797Y62192D01*
X598714Y62128D01*
X598634Y62062D01*
X598556Y61992D01*
X598480Y61920D01*
X598408Y61844D01*
X598338Y61766D01*
X598272Y61686D01*
X598208Y61603D01*
X598147Y61518D01*
X598090Y61430D01*
X598036Y61341D01*
X597986Y61250D01*
X597939Y61156D01*
X597895Y61061D01*
X597855Y60965D01*
X597819Y60867D01*
X597786Y60768D01*
X597757Y60667D01*
X597732Y60566D01*
X597711Y60463D01*
X597693Y60360D01*
X597680Y60257D01*
X597670Y60153D01*
X597664Y60048D01*
X597662Y59944D01*
X600456Y62739D02*
X600575Y62737D01*
X600693Y62731D01*
X600812Y62721D01*
X600930Y62708D01*
X601047Y62690D01*
X601164Y62668D01*
X601280Y62643D01*
X601395Y62614D01*
X601510Y62581D01*
X601623Y62544D01*
X601734Y62504D01*
X601845Y62460D01*
X601953Y62412D01*
X602060Y62361D01*
X602166Y62306D01*
X602269Y62247D01*
X602371Y62186D01*
X602470Y62121D01*
X602568Y62052D01*
X602662Y61981D01*
X602755Y61906D01*
X602845Y61829D01*
X602932Y61748D01*
X603017Y61665D01*
X603099Y61579D01*
X603178Y61490D01*
X603254Y61399D01*
X603327Y61305D01*
X603396Y61209D01*
X603463Y61110D01*
X603526Y61010D01*
X603586Y60907D01*
X603643Y60803D01*
X603695Y60696D01*
X603745Y60588D01*
X603791Y60479D01*
X603833Y60367D01*
X603871Y60255D01*
X598593Y57771D02*
X598518Y57845D01*
X598446Y57922D01*
X598376Y58001D01*
X598309Y58083D01*
X598245Y58167D01*
X598184Y58253D01*
X598126Y58341D01*
X598071Y58432D01*
X598019Y58524D01*
X597971Y58618D01*
X597926Y58713D01*
X597884Y58811D01*
X597846Y58909D01*
X597811Y59009D01*
X597780Y59110D01*
X597753Y59212D01*
X597729Y59315D01*
X597708Y59418D01*
X597692Y59523D01*
X597679Y59628D01*
X597669Y59733D01*
X597664Y59838D01*
X597662Y59944D01*
X598593Y57771D02*
X603871Y51562D01*
X597662Y51562D01*
D14*
X88900Y36830D02*
X88900Y26670D01*
D12*
X88138Y51562D02*
X88138Y62738D01*
X85034Y62738D01*
X84923Y62736D01*
X84813Y62730D01*
X84702Y62720D01*
X84592Y62706D01*
X84483Y62689D01*
X84374Y62667D01*
X84266Y62642D01*
X84160Y62612D01*
X84054Y62579D01*
X83949Y62542D01*
X83846Y62502D01*
X83745Y62457D01*
X83645Y62410D01*
X83546Y62358D01*
X83450Y62303D01*
X83356Y62245D01*
X83264Y62184D01*
X83174Y62119D01*
X83086Y62051D01*
X83001Y61980D01*
X82919Y61906D01*
X82839Y61829D01*
X82762Y61749D01*
X82688Y61667D01*
X82617Y61582D01*
X82549Y61494D01*
X82484Y61404D01*
X82423Y61312D01*
X82365Y61218D01*
X82310Y61122D01*
X82258Y61023D01*
X82211Y60923D01*
X82166Y60822D01*
X82126Y60719D01*
X82089Y60614D01*
X82056Y60508D01*
X82026Y60402D01*
X82001Y60294D01*
X81979Y60185D01*
X81962Y60076D01*
X81948Y59966D01*
X81938Y59855D01*
X81932Y59745D01*
X81930Y59634D01*
X81932Y59523D01*
X81938Y59413D01*
X81948Y59302D01*
X81962Y59192D01*
X81979Y59083D01*
X82001Y58974D01*
X82026Y58866D01*
X82056Y58760D01*
X82089Y58654D01*
X82126Y58549D01*
X82166Y58446D01*
X82211Y58345D01*
X82258Y58245D01*
X82310Y58146D01*
X82365Y58050D01*
X82423Y57956D01*
X82484Y57864D01*
X82549Y57774D01*
X82617Y57686D01*
X82688Y57601D01*
X82762Y57519D01*
X82839Y57439D01*
X82919Y57362D01*
X83001Y57288D01*
X83086Y57217D01*
X83174Y57149D01*
X83264Y57084D01*
X83356Y57023D01*
X83450Y56965D01*
X83546Y56910D01*
X83645Y56858D01*
X83745Y56811D01*
X83846Y56766D01*
X83949Y56726D01*
X84054Y56689D01*
X84160Y56656D01*
X84266Y56626D01*
X84374Y56601D01*
X84483Y56579D01*
X84592Y56562D01*
X84702Y56548D01*
X84813Y56538D01*
X84923Y56532D01*
X85034Y56530D01*
X85034Y56529D02*
X88138Y56529D01*
X84413Y56529D02*
X81929Y51562D01*
X76800Y54046D02*
X74317Y62738D01*
X76800Y54046D02*
X70591Y54046D01*
X72454Y56529D02*
X72454Y51562D01*
D15*
X18100Y342900D02*
X18106Y343391D01*
X18124Y343881D01*
X18154Y344371D01*
X18196Y344860D01*
X18250Y345348D01*
X18316Y345835D01*
X18394Y346319D01*
X18484Y346802D01*
X18586Y347282D01*
X18699Y347760D01*
X18824Y348234D01*
X18961Y348706D01*
X19109Y349174D01*
X19269Y349638D01*
X19440Y350098D01*
X19622Y350554D01*
X19816Y351005D01*
X20020Y351451D01*
X20236Y351892D01*
X20462Y352328D01*
X20698Y352758D01*
X20945Y353182D01*
X21203Y353600D01*
X21471Y354011D01*
X21748Y354416D01*
X22036Y354814D01*
X22333Y355205D01*
X22640Y355588D01*
X22956Y355963D01*
X23281Y356331D01*
X23615Y356691D01*
X23958Y357042D01*
X24309Y357385D01*
X24669Y357719D01*
X25037Y358044D01*
X25412Y358360D01*
X25795Y358667D01*
X26186Y358964D01*
X26584Y359252D01*
X26989Y359529D01*
X27400Y359797D01*
X27818Y360055D01*
X28242Y360302D01*
X28672Y360538D01*
X29108Y360764D01*
X29549Y360980D01*
X29995Y361184D01*
X30446Y361378D01*
X30902Y361560D01*
X31362Y361731D01*
X31826Y361891D01*
X32294Y362039D01*
X32766Y362176D01*
X33240Y362301D01*
X33718Y362414D01*
X34198Y362516D01*
X34681Y362606D01*
X35165Y362684D01*
X35652Y362750D01*
X36140Y362804D01*
X36629Y362846D01*
X37119Y362876D01*
X37609Y362894D01*
X38100Y362900D01*
X38591Y362894D01*
X39081Y362876D01*
X39571Y362846D01*
X40060Y362804D01*
X40548Y362750D01*
X41035Y362684D01*
X41519Y362606D01*
X42002Y362516D01*
X42482Y362414D01*
X42960Y362301D01*
X43434Y362176D01*
X43906Y362039D01*
X44374Y361891D01*
X44838Y361731D01*
X45298Y361560D01*
X45754Y361378D01*
X46205Y361184D01*
X46651Y360980D01*
X47092Y360764D01*
X47528Y360538D01*
X47958Y360302D01*
X48382Y360055D01*
X48800Y359797D01*
X49211Y359529D01*
X49616Y359252D01*
X50014Y358964D01*
X50405Y358667D01*
X50788Y358360D01*
X51163Y358044D01*
X51531Y357719D01*
X51891Y357385D01*
X52242Y357042D01*
X52585Y356691D01*
X52919Y356331D01*
X53244Y355963D01*
X53560Y355588D01*
X53867Y355205D01*
X54164Y354814D01*
X54452Y354416D01*
X54729Y354011D01*
X54997Y353600D01*
X55255Y353182D01*
X55502Y352758D01*
X55738Y352328D01*
X55964Y351892D01*
X56180Y351451D01*
X56384Y351005D01*
X56578Y350554D01*
X56760Y350098D01*
X56931Y349638D01*
X57091Y349174D01*
X57239Y348706D01*
X57376Y348234D01*
X57501Y347760D01*
X57614Y347282D01*
X57716Y346802D01*
X57806Y346319D01*
X57884Y345835D01*
X57950Y345348D01*
X58004Y344860D01*
X58046Y344371D01*
X58076Y343881D01*
X58094Y343391D01*
X58100Y342900D01*
X58094Y342409D01*
X58076Y341919D01*
X58046Y341429D01*
X58004Y340940D01*
X57950Y340452D01*
X57884Y339965D01*
X57806Y339481D01*
X57716Y338998D01*
X57614Y338518D01*
X57501Y338040D01*
X57376Y337566D01*
X57239Y337094D01*
X57091Y336626D01*
X56931Y336162D01*
X56760Y335702D01*
X56578Y335246D01*
X56384Y334795D01*
X56180Y334349D01*
X55964Y333908D01*
X55738Y333472D01*
X55502Y333042D01*
X55255Y332618D01*
X54997Y332200D01*
X54729Y331789D01*
X54452Y331384D01*
X54164Y330986D01*
X53867Y330595D01*
X53560Y330212D01*
X53244Y329837D01*
X52919Y329469D01*
X52585Y329109D01*
X52242Y328758D01*
X51891Y328415D01*
X51531Y328081D01*
X51163Y327756D01*
X50788Y327440D01*
X50405Y327133D01*
X50014Y326836D01*
X49616Y326548D01*
X49211Y326271D01*
X48800Y326003D01*
X48382Y325745D01*
X47958Y325498D01*
X47528Y325262D01*
X47092Y325036D01*
X46651Y324820D01*
X46205Y324616D01*
X45754Y324422D01*
X45298Y324240D01*
X44838Y324069D01*
X44374Y323909D01*
X43906Y323761D01*
X43434Y323624D01*
X42960Y323499D01*
X42482Y323386D01*
X42002Y323284D01*
X41519Y323194D01*
X41035Y323116D01*
X40548Y323050D01*
X40060Y322996D01*
X39571Y322954D01*
X39081Y322924D01*
X38591Y322906D01*
X38100Y322900D01*
X37609Y322906D01*
X37119Y322924D01*
X36629Y322954D01*
X36140Y322996D01*
X35652Y323050D01*
X35165Y323116D01*
X34681Y323194D01*
X34198Y323284D01*
X33718Y323386D01*
X33240Y323499D01*
X32766Y323624D01*
X32294Y323761D01*
X31826Y323909D01*
X31362Y324069D01*
X30902Y324240D01*
X30446Y324422D01*
X29995Y324616D01*
X29549Y324820D01*
X29108Y325036D01*
X28672Y325262D01*
X28242Y325498D01*
X27818Y325745D01*
X27400Y326003D01*
X26989Y326271D01*
X26584Y326548D01*
X26186Y326836D01*
X25795Y327133D01*
X25412Y327440D01*
X25037Y327756D01*
X24669Y328081D01*
X24309Y328415D01*
X23958Y328758D01*
X23615Y329109D01*
X23281Y329469D01*
X22956Y329837D01*
X22640Y330212D01*
X22333Y330595D01*
X22036Y330986D01*
X21748Y331384D01*
X21471Y331789D01*
X21203Y332200D01*
X20945Y332618D01*
X20698Y333042D01*
X20462Y333472D01*
X20236Y333908D01*
X20020Y334349D01*
X19816Y334795D01*
X19622Y335246D01*
X19440Y335702D01*
X19269Y336162D01*
X19109Y336626D01*
X18961Y337094D01*
X18824Y337566D01*
X18699Y338040D01*
X18586Y338518D01*
X18484Y338998D01*
X18394Y339481D01*
X18316Y339965D01*
X18250Y340452D01*
X18196Y340940D01*
X18154Y341429D01*
X18124Y341919D01*
X18106Y342409D01*
X18100Y342900D01*
X18100Y139700D02*
X18106Y140191D01*
X18124Y140681D01*
X18154Y141171D01*
X18196Y141660D01*
X18250Y142148D01*
X18316Y142635D01*
X18394Y143119D01*
X18484Y143602D01*
X18586Y144082D01*
X18699Y144560D01*
X18824Y145034D01*
X18961Y145506D01*
X19109Y145974D01*
X19269Y146438D01*
X19440Y146898D01*
X19622Y147354D01*
X19816Y147805D01*
X20020Y148251D01*
X20236Y148692D01*
X20462Y149128D01*
X20698Y149558D01*
X20945Y149982D01*
X21203Y150400D01*
X21471Y150811D01*
X21748Y151216D01*
X22036Y151614D01*
X22333Y152005D01*
X22640Y152388D01*
X22956Y152763D01*
X23281Y153131D01*
X23615Y153491D01*
X23958Y153842D01*
X24309Y154185D01*
X24669Y154519D01*
X25037Y154844D01*
X25412Y155160D01*
X25795Y155467D01*
X26186Y155764D01*
X26584Y156052D01*
X26989Y156329D01*
X27400Y156597D01*
X27818Y156855D01*
X28242Y157102D01*
X28672Y157338D01*
X29108Y157564D01*
X29549Y157780D01*
X29995Y157984D01*
X30446Y158178D01*
X30902Y158360D01*
X31362Y158531D01*
X31826Y158691D01*
X32294Y158839D01*
X32766Y158976D01*
X33240Y159101D01*
X33718Y159214D01*
X34198Y159316D01*
X34681Y159406D01*
X35165Y159484D01*
X35652Y159550D01*
X36140Y159604D01*
X36629Y159646D01*
X37119Y159676D01*
X37609Y159694D01*
X38100Y159700D01*
X38591Y159694D01*
X39081Y159676D01*
X39571Y159646D01*
X40060Y159604D01*
X40548Y159550D01*
X41035Y159484D01*
X41519Y159406D01*
X42002Y159316D01*
X42482Y159214D01*
X42960Y159101D01*
X43434Y158976D01*
X43906Y158839D01*
X44374Y158691D01*
X44838Y158531D01*
X45298Y158360D01*
X45754Y158178D01*
X46205Y157984D01*
X46651Y157780D01*
X47092Y157564D01*
X47528Y157338D01*
X47958Y157102D01*
X48382Y156855D01*
X48800Y156597D01*
X49211Y156329D01*
X49616Y156052D01*
X50014Y155764D01*
X50405Y155467D01*
X50788Y155160D01*
X51163Y154844D01*
X51531Y154519D01*
X51891Y154185D01*
X52242Y153842D01*
X52585Y153491D01*
X52919Y153131D01*
X53244Y152763D01*
X53560Y152388D01*
X53867Y152005D01*
X54164Y151614D01*
X54452Y151216D01*
X54729Y150811D01*
X54997Y150400D01*
X55255Y149982D01*
X55502Y149558D01*
X55738Y149128D01*
X55964Y148692D01*
X56180Y148251D01*
X56384Y147805D01*
X56578Y147354D01*
X56760Y146898D01*
X56931Y146438D01*
X57091Y145974D01*
X57239Y145506D01*
X57376Y145034D01*
X57501Y144560D01*
X57614Y144082D01*
X57716Y143602D01*
X57806Y143119D01*
X57884Y142635D01*
X57950Y142148D01*
X58004Y141660D01*
X58046Y141171D01*
X58076Y140681D01*
X58094Y140191D01*
X58100Y139700D01*
X58094Y139209D01*
X58076Y138719D01*
X58046Y138229D01*
X58004Y137740D01*
X57950Y137252D01*
X57884Y136765D01*
X57806Y136281D01*
X57716Y135798D01*
X57614Y135318D01*
X57501Y134840D01*
X57376Y134366D01*
X57239Y133894D01*
X57091Y133426D01*
X56931Y132962D01*
X56760Y132502D01*
X56578Y132046D01*
X56384Y131595D01*
X56180Y131149D01*
X55964Y130708D01*
X55738Y130272D01*
X55502Y129842D01*
X55255Y129418D01*
X54997Y129000D01*
X54729Y128589D01*
X54452Y128184D01*
X54164Y127786D01*
X53867Y127395D01*
X53560Y127012D01*
X53244Y126637D01*
X52919Y126269D01*
X52585Y125909D01*
X52242Y125558D01*
X51891Y125215D01*
X51531Y124881D01*
X51163Y124556D01*
X50788Y124240D01*
X50405Y123933D01*
X50014Y123636D01*
X49616Y123348D01*
X49211Y123071D01*
X48800Y122803D01*
X48382Y122545D01*
X47958Y122298D01*
X47528Y122062D01*
X47092Y121836D01*
X46651Y121620D01*
X46205Y121416D01*
X45754Y121222D01*
X45298Y121040D01*
X44838Y120869D01*
X44374Y120709D01*
X43906Y120561D01*
X43434Y120424D01*
X42960Y120299D01*
X42482Y120186D01*
X42002Y120084D01*
X41519Y119994D01*
X41035Y119916D01*
X40548Y119850D01*
X40060Y119796D01*
X39571Y119754D01*
X39081Y119724D01*
X38591Y119706D01*
X38100Y119700D01*
X37609Y119706D01*
X37119Y119724D01*
X36629Y119754D01*
X36140Y119796D01*
X35652Y119850D01*
X35165Y119916D01*
X34681Y119994D01*
X34198Y120084D01*
X33718Y120186D01*
X33240Y120299D01*
X32766Y120424D01*
X32294Y120561D01*
X31826Y120709D01*
X31362Y120869D01*
X30902Y121040D01*
X30446Y121222D01*
X29995Y121416D01*
X29549Y121620D01*
X29108Y121836D01*
X28672Y122062D01*
X28242Y122298D01*
X27818Y122545D01*
X27400Y122803D01*
X26989Y123071D01*
X26584Y123348D01*
X26186Y123636D01*
X25795Y123933D01*
X25412Y124240D01*
X25037Y124556D01*
X24669Y124881D01*
X24309Y125215D01*
X23958Y125558D01*
X23615Y125909D01*
X23281Y126269D01*
X22956Y126637D01*
X22640Y127012D01*
X22333Y127395D01*
X22036Y127786D01*
X21748Y128184D01*
X21471Y128589D01*
X21203Y129000D01*
X20945Y129418D01*
X20698Y129842D01*
X20462Y130272D01*
X20236Y130708D01*
X20020Y131149D01*
X19816Y131595D01*
X19622Y132046D01*
X19440Y132502D01*
X19269Y132962D01*
X19109Y133426D01*
X18961Y133894D01*
X18824Y134366D01*
X18699Y134840D01*
X18586Y135318D01*
X18484Y135798D01*
X18394Y136281D01*
X18316Y136765D01*
X18250Y137252D01*
X18196Y137740D01*
X18154Y138229D01*
X18124Y138719D01*
X18106Y139209D01*
X18100Y139700D01*
X157800Y342900D02*
X157806Y343391D01*
X157824Y343881D01*
X157854Y344371D01*
X157896Y344860D01*
X157950Y345348D01*
X158016Y345835D01*
X158094Y346319D01*
X158184Y346802D01*
X158286Y347282D01*
X158399Y347760D01*
X158524Y348234D01*
X158661Y348706D01*
X158809Y349174D01*
X158969Y349638D01*
X159140Y350098D01*
X159322Y350554D01*
X159516Y351005D01*
X159720Y351451D01*
X159936Y351892D01*
X160162Y352328D01*
X160398Y352758D01*
X160645Y353182D01*
X160903Y353600D01*
X161171Y354011D01*
X161448Y354416D01*
X161736Y354814D01*
X162033Y355205D01*
X162340Y355588D01*
X162656Y355963D01*
X162981Y356331D01*
X163315Y356691D01*
X163658Y357042D01*
X164009Y357385D01*
X164369Y357719D01*
X164737Y358044D01*
X165112Y358360D01*
X165495Y358667D01*
X165886Y358964D01*
X166284Y359252D01*
X166689Y359529D01*
X167100Y359797D01*
X167518Y360055D01*
X167942Y360302D01*
X168372Y360538D01*
X168808Y360764D01*
X169249Y360980D01*
X169695Y361184D01*
X170146Y361378D01*
X170602Y361560D01*
X171062Y361731D01*
X171526Y361891D01*
X171994Y362039D01*
X172466Y362176D01*
X172940Y362301D01*
X173418Y362414D01*
X173898Y362516D01*
X174381Y362606D01*
X174865Y362684D01*
X175352Y362750D01*
X175840Y362804D01*
X176329Y362846D01*
X176819Y362876D01*
X177309Y362894D01*
X177800Y362900D01*
X178291Y362894D01*
X178781Y362876D01*
X179271Y362846D01*
X179760Y362804D01*
X180248Y362750D01*
X180735Y362684D01*
X181219Y362606D01*
X181702Y362516D01*
X182182Y362414D01*
X182660Y362301D01*
X183134Y362176D01*
X183606Y362039D01*
X184074Y361891D01*
X184538Y361731D01*
X184998Y361560D01*
X185454Y361378D01*
X185905Y361184D01*
X186351Y360980D01*
X186792Y360764D01*
X187228Y360538D01*
X187658Y360302D01*
X188082Y360055D01*
X188500Y359797D01*
X188911Y359529D01*
X189316Y359252D01*
X189714Y358964D01*
X190105Y358667D01*
X190488Y358360D01*
X190863Y358044D01*
X191231Y357719D01*
X191591Y357385D01*
X191942Y357042D01*
X192285Y356691D01*
X192619Y356331D01*
X192944Y355963D01*
X193260Y355588D01*
X193567Y355205D01*
X193864Y354814D01*
X194152Y354416D01*
X194429Y354011D01*
X194697Y353600D01*
X194955Y353182D01*
X195202Y352758D01*
X195438Y352328D01*
X195664Y351892D01*
X195880Y351451D01*
X196084Y351005D01*
X196278Y350554D01*
X196460Y350098D01*
X196631Y349638D01*
X196791Y349174D01*
X196939Y348706D01*
X197076Y348234D01*
X197201Y347760D01*
X197314Y347282D01*
X197416Y346802D01*
X197506Y346319D01*
X197584Y345835D01*
X197650Y345348D01*
X197704Y344860D01*
X197746Y344371D01*
X197776Y343881D01*
X197794Y343391D01*
X197800Y342900D01*
X197794Y342409D01*
X197776Y341919D01*
X197746Y341429D01*
X197704Y340940D01*
X197650Y340452D01*
X197584Y339965D01*
X197506Y339481D01*
X197416Y338998D01*
X197314Y338518D01*
X197201Y338040D01*
X197076Y337566D01*
X196939Y337094D01*
X196791Y336626D01*
X196631Y336162D01*
X196460Y335702D01*
X196278Y335246D01*
X196084Y334795D01*
X195880Y334349D01*
X195664Y333908D01*
X195438Y333472D01*
X195202Y333042D01*
X194955Y332618D01*
X194697Y332200D01*
X194429Y331789D01*
X194152Y331384D01*
X193864Y330986D01*
X193567Y330595D01*
X193260Y330212D01*
X192944Y329837D01*
X192619Y329469D01*
X192285Y329109D01*
X191942Y328758D01*
X191591Y328415D01*
X191231Y328081D01*
X190863Y327756D01*
X190488Y327440D01*
X190105Y327133D01*
X189714Y326836D01*
X189316Y326548D01*
X188911Y326271D01*
X188500Y326003D01*
X188082Y325745D01*
X187658Y325498D01*
X187228Y325262D01*
X186792Y325036D01*
X186351Y324820D01*
X185905Y324616D01*
X185454Y324422D01*
X184998Y324240D01*
X184538Y324069D01*
X184074Y323909D01*
X183606Y323761D01*
X183134Y323624D01*
X182660Y323499D01*
X182182Y323386D01*
X181702Y323284D01*
X181219Y323194D01*
X180735Y323116D01*
X180248Y323050D01*
X179760Y322996D01*
X179271Y322954D01*
X178781Y322924D01*
X178291Y322906D01*
X177800Y322900D01*
X177309Y322906D01*
X176819Y322924D01*
X176329Y322954D01*
X175840Y322996D01*
X175352Y323050D01*
X174865Y323116D01*
X174381Y323194D01*
X173898Y323284D01*
X173418Y323386D01*
X172940Y323499D01*
X172466Y323624D01*
X171994Y323761D01*
X171526Y323909D01*
X171062Y324069D01*
X170602Y324240D01*
X170146Y324422D01*
X169695Y324616D01*
X169249Y324820D01*
X168808Y325036D01*
X168372Y325262D01*
X167942Y325498D01*
X167518Y325745D01*
X167100Y326003D01*
X166689Y326271D01*
X166284Y326548D01*
X165886Y326836D01*
X165495Y327133D01*
X165112Y327440D01*
X164737Y327756D01*
X164369Y328081D01*
X164009Y328415D01*
X163658Y328758D01*
X163315Y329109D01*
X162981Y329469D01*
X162656Y329837D01*
X162340Y330212D01*
X162033Y330595D01*
X161736Y330986D01*
X161448Y331384D01*
X161171Y331789D01*
X160903Y332200D01*
X160645Y332618D01*
X160398Y333042D01*
X160162Y333472D01*
X159936Y333908D01*
X159720Y334349D01*
X159516Y334795D01*
X159322Y335246D01*
X159140Y335702D01*
X158969Y336162D01*
X158809Y336626D01*
X158661Y337094D01*
X158524Y337566D01*
X158399Y338040D01*
X158286Y338518D01*
X158184Y338998D01*
X158094Y339481D01*
X158016Y339965D01*
X157950Y340452D01*
X157896Y340940D01*
X157854Y341429D01*
X157824Y341919D01*
X157806Y342409D01*
X157800Y342900D01*
X157800Y139700D02*
X157806Y140191D01*
X157824Y140681D01*
X157854Y141171D01*
X157896Y141660D01*
X157950Y142148D01*
X158016Y142635D01*
X158094Y143119D01*
X158184Y143602D01*
X158286Y144082D01*
X158399Y144560D01*
X158524Y145034D01*
X158661Y145506D01*
X158809Y145974D01*
X158969Y146438D01*
X159140Y146898D01*
X159322Y147354D01*
X159516Y147805D01*
X159720Y148251D01*
X159936Y148692D01*
X160162Y149128D01*
X160398Y149558D01*
X160645Y149982D01*
X160903Y150400D01*
X161171Y150811D01*
X161448Y151216D01*
X161736Y151614D01*
X162033Y152005D01*
X162340Y152388D01*
X162656Y152763D01*
X162981Y153131D01*
X163315Y153491D01*
X163658Y153842D01*
X164009Y154185D01*
X164369Y154519D01*
X164737Y154844D01*
X165112Y155160D01*
X165495Y155467D01*
X165886Y155764D01*
X166284Y156052D01*
X166689Y156329D01*
X167100Y156597D01*
X167518Y156855D01*
X167942Y157102D01*
X168372Y157338D01*
X168808Y157564D01*
X169249Y157780D01*
X169695Y157984D01*
X170146Y158178D01*
X170602Y158360D01*
X171062Y158531D01*
X171526Y158691D01*
X171994Y158839D01*
X172466Y158976D01*
X172940Y159101D01*
X173418Y159214D01*
X173898Y159316D01*
X174381Y159406D01*
X174865Y159484D01*
X175352Y159550D01*
X175840Y159604D01*
X176329Y159646D01*
X176819Y159676D01*
X177309Y159694D01*
X177800Y159700D01*
X178291Y159694D01*
X178781Y159676D01*
X179271Y159646D01*
X179760Y159604D01*
X180248Y159550D01*
X180735Y159484D01*
X181219Y159406D01*
X181702Y159316D01*
X182182Y159214D01*
X182660Y159101D01*
X183134Y158976D01*
X183606Y158839D01*
X184074Y158691D01*
X184538Y158531D01*
X184998Y158360D01*
X185454Y158178D01*
X185905Y157984D01*
X186351Y157780D01*
X186792Y157564D01*
X187228Y157338D01*
X187658Y157102D01*
X188082Y156855D01*
X188500Y156597D01*
X188911Y156329D01*
X189316Y156052D01*
X189714Y155764D01*
X190105Y155467D01*
X190488Y155160D01*
X190863Y154844D01*
X191231Y154519D01*
X191591Y154185D01*
X191942Y153842D01*
X192285Y153491D01*
X192619Y153131D01*
X192944Y152763D01*
X193260Y152388D01*
X193567Y152005D01*
X193864Y151614D01*
X194152Y151216D01*
X194429Y150811D01*
X194697Y150400D01*
X194955Y149982D01*
X195202Y149558D01*
X195438Y149128D01*
X195664Y148692D01*
X195880Y148251D01*
X196084Y147805D01*
X196278Y147354D01*
X196460Y146898D01*
X196631Y146438D01*
X196791Y145974D01*
X196939Y145506D01*
X197076Y145034D01*
X197201Y144560D01*
X197314Y144082D01*
X197416Y143602D01*
X197506Y143119D01*
X197584Y142635D01*
X197650Y142148D01*
X197704Y141660D01*
X197746Y141171D01*
X197776Y140681D01*
X197794Y140191D01*
X197800Y139700D01*
X197794Y139209D01*
X197776Y138719D01*
X197746Y138229D01*
X197704Y137740D01*
X197650Y137252D01*
X197584Y136765D01*
X197506Y136281D01*
X197416Y135798D01*
X197314Y135318D01*
X197201Y134840D01*
X197076Y134366D01*
X196939Y133894D01*
X196791Y133426D01*
X196631Y132962D01*
X196460Y132502D01*
X196278Y132046D01*
X196084Y131595D01*
X195880Y131149D01*
X195664Y130708D01*
X195438Y130272D01*
X195202Y129842D01*
X194955Y129418D01*
X194697Y129000D01*
X194429Y128589D01*
X194152Y128184D01*
X193864Y127786D01*
X193567Y127395D01*
X193260Y127012D01*
X192944Y126637D01*
X192619Y126269D01*
X192285Y125909D01*
X191942Y125558D01*
X191591Y125215D01*
X191231Y124881D01*
X190863Y124556D01*
X190488Y124240D01*
X190105Y123933D01*
X189714Y123636D01*
X189316Y123348D01*
X188911Y123071D01*
X188500Y122803D01*
X188082Y122545D01*
X187658Y122298D01*
X187228Y122062D01*
X186792Y121836D01*
X186351Y121620D01*
X185905Y121416D01*
X185454Y121222D01*
X184998Y121040D01*
X184538Y120869D01*
X184074Y120709D01*
X183606Y120561D01*
X183134Y120424D01*
X182660Y120299D01*
X182182Y120186D01*
X181702Y120084D01*
X181219Y119994D01*
X180735Y119916D01*
X180248Y119850D01*
X179760Y119796D01*
X179271Y119754D01*
X178781Y119724D01*
X178291Y119706D01*
X177800Y119700D01*
X177309Y119706D01*
X176819Y119724D01*
X176329Y119754D01*
X175840Y119796D01*
X175352Y119850D01*
X174865Y119916D01*
X174381Y119994D01*
X173898Y120084D01*
X173418Y120186D01*
X172940Y120299D01*
X172466Y120424D01*
X171994Y120561D01*
X171526Y120709D01*
X171062Y120869D01*
X170602Y121040D01*
X170146Y121222D01*
X169695Y121416D01*
X169249Y121620D01*
X168808Y121836D01*
X168372Y122062D01*
X167942Y122298D01*
X167518Y122545D01*
X167100Y122803D01*
X166689Y123071D01*
X166284Y123348D01*
X165886Y123636D01*
X165495Y123933D01*
X165112Y124240D01*
X164737Y124556D01*
X164369Y124881D01*
X164009Y125215D01*
X163658Y125558D01*
X163315Y125909D01*
X162981Y126269D01*
X162656Y126637D01*
X162340Y127012D01*
X162033Y127395D01*
X161736Y127786D01*
X161448Y128184D01*
X161171Y128589D01*
X160903Y129000D01*
X160645Y129418D01*
X160398Y129842D01*
X160162Y130272D01*
X159936Y130708D01*
X159720Y131149D01*
X159516Y131595D01*
X159322Y132046D01*
X159140Y132502D01*
X158969Y132962D01*
X158809Y133426D01*
X158661Y133894D01*
X158524Y134366D01*
X158399Y134840D01*
X158286Y135318D01*
X158184Y135798D01*
X158094Y136281D01*
X158016Y136765D01*
X157950Y137252D01*
X157896Y137740D01*
X157854Y138229D01*
X157824Y138719D01*
X157806Y139209D01*
X157800Y139700D01*
D11*
X177800Y368300D02*
X38100Y368300D01*
X177800Y368300D02*
X178414Y368293D01*
X179027Y368270D01*
X179640Y368233D01*
X180251Y368181D01*
X180862Y368115D01*
X181470Y368033D01*
X182076Y367937D01*
X182680Y367827D01*
X183281Y367702D01*
X183879Y367562D01*
X184473Y367408D01*
X185063Y367239D01*
X185649Y367057D01*
X186230Y366860D01*
X186807Y366649D01*
X187378Y366425D01*
X187944Y366187D01*
X188504Y365935D01*
X189057Y365669D01*
X189604Y365391D01*
X190144Y365099D01*
X190677Y364794D01*
X191202Y364476D01*
X191720Y364146D01*
X192229Y363804D01*
X192730Y363449D01*
X193222Y363082D01*
X193705Y362704D01*
X194179Y362314D01*
X194643Y361912D01*
X195098Y361500D01*
X195542Y361076D01*
X195976Y360642D01*
X196400Y360198D01*
X196812Y359743D01*
X197214Y359279D01*
X197604Y358805D01*
X197982Y358322D01*
X198349Y357830D01*
X198704Y357329D01*
X199046Y356820D01*
X199376Y356302D01*
X199694Y355777D01*
X199999Y355244D01*
X200291Y354704D01*
X200569Y354157D01*
X200835Y353604D01*
X201087Y353044D01*
X201325Y352478D01*
X201549Y351907D01*
X201760Y351330D01*
X201957Y350749D01*
X202139Y350163D01*
X202308Y349573D01*
X202462Y348979D01*
X202602Y348381D01*
X202727Y347780D01*
X202837Y347176D01*
X202933Y346570D01*
X203015Y345962D01*
X203081Y345351D01*
X203133Y344740D01*
X203170Y344127D01*
X203193Y343514D01*
X203200Y342900D01*
X203200Y139700D01*
X203193Y139086D01*
X203170Y138473D01*
X203133Y137860D01*
X203081Y137249D01*
X203015Y136638D01*
X202933Y136030D01*
X202837Y135424D01*
X202727Y134820D01*
X202602Y134219D01*
X202462Y133621D01*
X202308Y133027D01*
X202139Y132437D01*
X201957Y131851D01*
X201760Y131270D01*
X201549Y130693D01*
X201325Y130122D01*
X201087Y129556D01*
X200835Y128996D01*
X200569Y128443D01*
X200291Y127896D01*
X199999Y127356D01*
X199694Y126823D01*
X199376Y126298D01*
X199046Y125780D01*
X198704Y125271D01*
X198349Y124770D01*
X197982Y124278D01*
X197604Y123795D01*
X197214Y123321D01*
X196812Y122857D01*
X196400Y122402D01*
X195976Y121958D01*
X195542Y121524D01*
X195098Y121100D01*
X194643Y120688D01*
X194179Y120286D01*
X193705Y119896D01*
X193222Y119518D01*
X192730Y119151D01*
X192229Y118796D01*
X191720Y118454D01*
X191202Y118124D01*
X190677Y117806D01*
X190144Y117501D01*
X189604Y117209D01*
X189057Y116931D01*
X188504Y116665D01*
X187944Y116413D01*
X187378Y116175D01*
X186807Y115951D01*
X186230Y115740D01*
X185649Y115543D01*
X185063Y115361D01*
X184473Y115192D01*
X183879Y115038D01*
X183281Y114898D01*
X182680Y114773D01*
X182076Y114663D01*
X181470Y114567D01*
X180862Y114485D01*
X180251Y114419D01*
X179640Y114367D01*
X179027Y114330D01*
X178414Y114307D01*
X177800Y114300D01*
X38100Y114300D01*
X37486Y114307D01*
X36873Y114330D01*
X36260Y114367D01*
X35649Y114419D01*
X35038Y114485D01*
X34430Y114567D01*
X33824Y114663D01*
X33220Y114773D01*
X32619Y114898D01*
X32021Y115038D01*
X31427Y115192D01*
X30837Y115361D01*
X30251Y115543D01*
X29670Y115740D01*
X29093Y115951D01*
X28522Y116175D01*
X27956Y116413D01*
X27396Y116665D01*
X26843Y116931D01*
X26296Y117209D01*
X25756Y117501D01*
X25223Y117806D01*
X24698Y118124D01*
X24180Y118454D01*
X23671Y118796D01*
X23170Y119151D01*
X22678Y119518D01*
X22195Y119896D01*
X21721Y120286D01*
X21257Y120688D01*
X20802Y121100D01*
X20358Y121524D01*
X19924Y121958D01*
X19500Y122402D01*
X19088Y122857D01*
X18686Y123321D01*
X18296Y123795D01*
X17918Y124278D01*
X17551Y124770D01*
X17196Y125271D01*
X16854Y125780D01*
X16524Y126298D01*
X16206Y126823D01*
X15901Y127356D01*
X15609Y127896D01*
X15331Y128443D01*
X15065Y128996D01*
X14813Y129556D01*
X14575Y130122D01*
X14351Y130693D01*
X14140Y131270D01*
X13943Y131851D01*
X13761Y132437D01*
X13592Y133027D01*
X13438Y133621D01*
X13298Y134219D01*
X13173Y134820D01*
X13063Y135424D01*
X12967Y136030D01*
X12885Y136638D01*
X12819Y137249D01*
X12767Y137860D01*
X12730Y138473D01*
X12707Y139086D01*
X12700Y139700D01*
X12700Y342900D01*
X12707Y343514D01*
X12730Y344127D01*
X12767Y344740D01*
X12819Y345351D01*
X12885Y345962D01*
X12967Y346570D01*
X13063Y347176D01*
X13173Y347780D01*
X13298Y348381D01*
X13438Y348979D01*
X13592Y349573D01*
X13761Y350163D01*
X13943Y350749D01*
X14140Y351330D01*
X14351Y351907D01*
X14575Y352478D01*
X14813Y353044D01*
X15065Y353604D01*
X15331Y354157D01*
X15609Y354704D01*
X15901Y355244D01*
X16206Y355777D01*
X16524Y356302D01*
X16854Y356820D01*
X17196Y357329D01*
X17551Y357830D01*
X17918Y358322D01*
X18296Y358805D01*
X18686Y359279D01*
X19088Y359743D01*
X19500Y360198D01*
X19924Y360642D01*
X20358Y361076D01*
X20802Y361500D01*
X21257Y361912D01*
X21721Y362314D01*
X22195Y362704D01*
X22678Y363082D01*
X23170Y363449D01*
X23671Y363804D01*
X24180Y364146D01*
X24698Y364476D01*
X25223Y364794D01*
X25756Y365099D01*
X26296Y365391D01*
X26843Y365669D01*
X27396Y365935D01*
X27956Y366187D01*
X28522Y366425D01*
X29093Y366649D01*
X29670Y366860D01*
X30251Y367057D01*
X30837Y367239D01*
X31427Y367408D01*
X32021Y367562D01*
X32619Y367702D01*
X33220Y367827D01*
X33824Y367937D01*
X34430Y368033D01*
X35038Y368115D01*
X35649Y368181D01*
X36260Y368233D01*
X36873Y368270D01*
X37486Y368293D01*
X38100Y368300D01*
D12*
X97282Y197724D02*
X113538Y197724D01*
X113538Y193209D02*
X113538Y202240D01*
X100894Y216308D02*
X100776Y216306D01*
X100658Y216300D01*
X100540Y216291D01*
X100423Y216277D01*
X100306Y216260D01*
X100189Y216239D01*
X100074Y216214D01*
X99959Y216185D01*
X99845Y216152D01*
X99733Y216116D01*
X99622Y216076D01*
X99512Y216033D01*
X99403Y215986D01*
X99296Y215936D01*
X99191Y215881D01*
X99088Y215824D01*
X98987Y215763D01*
X98887Y215699D01*
X98790Y215632D01*
X98695Y215562D01*
X98603Y215488D01*
X98512Y215412D01*
X98425Y215332D01*
X98340Y215250D01*
X98258Y215165D01*
X98178Y215078D01*
X98102Y214987D01*
X98028Y214895D01*
X97958Y214800D01*
X97891Y214703D01*
X97827Y214603D01*
X97766Y214502D01*
X97709Y214399D01*
X97654Y214294D01*
X97604Y214187D01*
X97557Y214078D01*
X97514Y213968D01*
X97474Y213857D01*
X97438Y213745D01*
X97405Y213631D01*
X97376Y213516D01*
X97351Y213401D01*
X97330Y213284D01*
X97313Y213167D01*
X97299Y213050D01*
X97290Y212932D01*
X97284Y212814D01*
X97282Y212696D01*
X97284Y212513D01*
X97291Y212331D01*
X97302Y212149D01*
X97317Y211967D01*
X97337Y211785D01*
X97360Y211604D01*
X97389Y211424D01*
X97421Y211244D01*
X97458Y211065D01*
X97499Y210888D01*
X97545Y210711D01*
X97594Y210535D01*
X97648Y210361D01*
X97706Y210187D01*
X97768Y210016D01*
X97834Y209846D01*
X97905Y209677D01*
X97979Y209510D01*
X98057Y209345D01*
X98139Y209182D01*
X98225Y209021D01*
X98315Y208862D01*
X98409Y208705D01*
X98506Y208551D01*
X98607Y208399D01*
X98712Y208249D01*
X98820Y208102D01*
X98931Y207958D01*
X99046Y207816D01*
X99165Y207677D01*
X99287Y207541D01*
X99412Y207408D01*
X99540Y207278D01*
X109926Y207729D02*
X110044Y207731D01*
X110162Y207737D01*
X110280Y207746D01*
X110397Y207760D01*
X110514Y207777D01*
X110631Y207798D01*
X110746Y207823D01*
X110861Y207852D01*
X110975Y207885D01*
X111087Y207921D01*
X111198Y207961D01*
X111308Y208004D01*
X111417Y208051D01*
X111524Y208101D01*
X111629Y208156D01*
X111732Y208213D01*
X111833Y208274D01*
X111933Y208338D01*
X112030Y208405D01*
X112125Y208475D01*
X112217Y208549D01*
X112308Y208625D01*
X112395Y208705D01*
X112480Y208787D01*
X112562Y208872D01*
X112642Y208959D01*
X112718Y209050D01*
X112792Y209142D01*
X112862Y209237D01*
X112929Y209334D01*
X112993Y209434D01*
X113054Y209535D01*
X113112Y209638D01*
X113166Y209743D01*
X113216Y209850D01*
X113263Y209959D01*
X113307Y210069D01*
X113346Y210180D01*
X113382Y210293D01*
X113415Y210406D01*
X113444Y210521D01*
X113469Y210636D01*
X113490Y210753D01*
X113507Y210870D01*
X113521Y210987D01*
X113530Y211105D01*
X113536Y211223D01*
X113538Y211341D01*
X113536Y211502D01*
X113530Y211664D01*
X113521Y211825D01*
X113507Y211986D01*
X113490Y212146D01*
X113469Y212306D01*
X113444Y212466D01*
X113415Y212625D01*
X113383Y212783D01*
X113347Y212940D01*
X113307Y213096D01*
X113263Y213252D01*
X113215Y213406D01*
X113164Y213559D01*
X113110Y213711D01*
X113051Y213862D01*
X112990Y214011D01*
X112924Y214158D01*
X112855Y214304D01*
X112783Y214449D01*
X112707Y214591D01*
X112628Y214732D01*
X112546Y214871D01*
X112460Y215007D01*
X112371Y215142D01*
X112279Y215275D01*
X112183Y215405D01*
X106765Y209534D02*
X106827Y209433D01*
X106892Y209333D01*
X106961Y209236D01*
X107033Y209141D01*
X107107Y209048D01*
X107185Y208958D01*
X107266Y208870D01*
X107349Y208785D01*
X107435Y208703D01*
X107524Y208624D01*
X107615Y208547D01*
X107709Y208474D01*
X107805Y208403D01*
X107903Y208336D01*
X108003Y208272D01*
X108106Y208211D01*
X108210Y208154D01*
X108316Y208100D01*
X108424Y208050D01*
X108533Y208003D01*
X108644Y207959D01*
X108756Y207919D01*
X108870Y207883D01*
X108984Y207851D01*
X109100Y207822D01*
X109216Y207797D01*
X109333Y207776D01*
X109451Y207759D01*
X109569Y207745D01*
X109688Y207736D01*
X109807Y207730D01*
X109926Y207728D01*
X104055Y214502D02*
X103993Y214603D01*
X103928Y214703D01*
X103859Y214800D01*
X103787Y214895D01*
X103713Y214988D01*
X103635Y215078D01*
X103554Y215166D01*
X103471Y215251D01*
X103385Y215333D01*
X103296Y215412D01*
X103205Y215489D01*
X103111Y215562D01*
X103015Y215633D01*
X102917Y215700D01*
X102817Y215764D01*
X102714Y215825D01*
X102610Y215882D01*
X102504Y215936D01*
X102396Y215986D01*
X102287Y216033D01*
X102176Y216077D01*
X102064Y216117D01*
X101950Y216153D01*
X101836Y216185D01*
X101720Y216214D01*
X101604Y216239D01*
X101487Y216260D01*
X101369Y216277D01*
X101251Y216291D01*
X101132Y216300D01*
X101013Y216306D01*
X100894Y216308D01*
X104055Y214502D02*
X106765Y209535D01*
X97282Y225960D02*
X97282Y229573D01*
X97282Y225960D02*
X97284Y225842D01*
X97290Y225724D01*
X97299Y225606D01*
X97313Y225489D01*
X97330Y225372D01*
X97351Y225255D01*
X97376Y225140D01*
X97405Y225025D01*
X97438Y224911D01*
X97474Y224799D01*
X97514Y224688D01*
X97557Y224578D01*
X97604Y224469D01*
X97654Y224362D01*
X97709Y224257D01*
X97766Y224154D01*
X97827Y224053D01*
X97891Y223953D01*
X97958Y223856D01*
X98028Y223761D01*
X98102Y223669D01*
X98178Y223578D01*
X98258Y223491D01*
X98340Y223406D01*
X98425Y223324D01*
X98512Y223244D01*
X98603Y223168D01*
X98695Y223094D01*
X98790Y223024D01*
X98887Y222957D01*
X98987Y222893D01*
X99088Y222832D01*
X99191Y222775D01*
X99296Y222720D01*
X99403Y222670D01*
X99512Y222623D01*
X99622Y222580D01*
X99733Y222540D01*
X99845Y222504D01*
X99959Y222471D01*
X100074Y222442D01*
X100189Y222417D01*
X100306Y222396D01*
X100423Y222379D01*
X100540Y222365D01*
X100658Y222356D01*
X100776Y222350D01*
X100894Y222348D01*
X109926Y222348D01*
X110044Y222350D01*
X110162Y222356D01*
X110280Y222365D01*
X110397Y222379D01*
X110514Y222396D01*
X110631Y222417D01*
X110746Y222442D01*
X110861Y222471D01*
X110975Y222504D01*
X111087Y222540D01*
X111198Y222580D01*
X111308Y222623D01*
X111417Y222670D01*
X111524Y222720D01*
X111629Y222774D01*
X111732Y222832D01*
X111833Y222893D01*
X111933Y222957D01*
X112030Y223024D01*
X112125Y223094D01*
X112217Y223168D01*
X112308Y223244D01*
X112395Y223324D01*
X112480Y223406D01*
X112562Y223491D01*
X112642Y223578D01*
X112718Y223669D01*
X112792Y223761D01*
X112862Y223856D01*
X112929Y223953D01*
X112993Y224053D01*
X113054Y224154D01*
X113111Y224257D01*
X113165Y224362D01*
X113216Y224469D01*
X113263Y224578D01*
X113306Y224688D01*
X113346Y224799D01*
X113382Y224911D01*
X113415Y225025D01*
X113444Y225140D01*
X113469Y225255D01*
X113490Y225372D01*
X113507Y225489D01*
X113521Y225606D01*
X113530Y225724D01*
X113536Y225842D01*
X113538Y225960D01*
X113538Y229573D01*
X113538Y240380D02*
X113536Y240505D01*
X113530Y240630D01*
X113521Y240755D01*
X113507Y240879D01*
X113490Y241003D01*
X113469Y241127D01*
X113444Y241249D01*
X113415Y241371D01*
X113383Y241492D01*
X113347Y241612D01*
X113307Y241731D01*
X113264Y241848D01*
X113217Y241964D01*
X113166Y242079D01*
X113112Y242191D01*
X113054Y242303D01*
X112994Y242412D01*
X112929Y242519D01*
X112862Y242625D01*
X112791Y242728D01*
X112717Y242829D01*
X112640Y242928D01*
X112560Y243024D01*
X112477Y243118D01*
X112392Y243209D01*
X112303Y243298D01*
X112212Y243383D01*
X112118Y243466D01*
X112022Y243546D01*
X111923Y243623D01*
X111822Y243697D01*
X111719Y243768D01*
X111613Y243835D01*
X111506Y243900D01*
X111397Y243960D01*
X111285Y244018D01*
X111173Y244072D01*
X111058Y244123D01*
X110942Y244170D01*
X110825Y244213D01*
X110706Y244253D01*
X110586Y244289D01*
X110465Y244321D01*
X110343Y244350D01*
X110221Y244375D01*
X110097Y244396D01*
X109973Y244413D01*
X109849Y244427D01*
X109724Y244436D01*
X109599Y244442D01*
X109474Y244444D01*
X113538Y240380D02*
X113536Y240237D01*
X113530Y240095D01*
X113520Y239952D01*
X113507Y239810D01*
X113489Y239669D01*
X113468Y239527D01*
X113443Y239387D01*
X113414Y239247D01*
X113381Y239108D01*
X113344Y238970D01*
X113304Y238833D01*
X113260Y238698D01*
X113212Y238563D01*
X113160Y238430D01*
X113105Y238298D01*
X113046Y238168D01*
X112984Y238040D01*
X112918Y237913D01*
X112849Y237788D01*
X112777Y237665D01*
X112701Y237545D01*
X112622Y237426D01*
X112539Y237309D01*
X112454Y237195D01*
X112365Y237083D01*
X112274Y236974D01*
X112179Y236867D01*
X112082Y236762D01*
X111981Y236661D01*
X111878Y236562D01*
X111773Y236466D01*
X111664Y236373D01*
X111553Y236283D01*
X111440Y236196D01*
X111325Y236112D01*
X111207Y236032D01*
X111087Y235954D01*
X110965Y235880D01*
X110841Y235810D01*
X110715Y235742D01*
X110587Y235679D01*
X110458Y235618D01*
X110327Y235561D01*
X110195Y235508D01*
X110061Y235459D01*
X109926Y235413D01*
X106313Y243089D02*
X106405Y243183D01*
X106499Y243273D01*
X106596Y243361D01*
X106696Y243446D01*
X106798Y243528D01*
X106903Y243607D01*
X107010Y243682D01*
X107119Y243754D01*
X107230Y243823D01*
X107344Y243889D01*
X107459Y243951D01*
X107576Y244010D01*
X107695Y244065D01*
X107815Y244116D01*
X107937Y244164D01*
X108060Y244209D01*
X108184Y244249D01*
X108310Y244286D01*
X108437Y244319D01*
X108564Y244348D01*
X108693Y244374D01*
X108822Y244395D01*
X108952Y244413D01*
X109082Y244426D01*
X109212Y244436D01*
X109343Y244442D01*
X109474Y244444D01*
X106313Y243090D02*
X97282Y235413D01*
X97282Y244444D01*
X105410Y251045D02*
X105730Y251049D01*
X106049Y251060D01*
X106369Y251079D01*
X106687Y251106D01*
X107005Y251140D01*
X107322Y251182D01*
X107638Y251232D01*
X107953Y251289D01*
X108266Y251353D01*
X108578Y251425D01*
X108888Y251504D01*
X109195Y251591D01*
X109501Y251685D01*
X109804Y251786D01*
X110105Y251895D01*
X110403Y252010D01*
X110699Y252133D01*
X110991Y252263D01*
X111280Y252400D01*
X111281Y252399D02*
X111389Y252438D01*
X111496Y252481D01*
X111601Y252527D01*
X111705Y252578D01*
X111807Y252631D01*
X111907Y252688D01*
X112005Y252749D01*
X112100Y252813D01*
X112194Y252880D01*
X112285Y252951D01*
X112374Y253024D01*
X112460Y253101D01*
X112543Y253180D01*
X112624Y253262D01*
X112702Y253347D01*
X112776Y253435D01*
X112848Y253525D01*
X112916Y253617D01*
X112982Y253712D01*
X113044Y253809D01*
X113102Y253908D01*
X113158Y254010D01*
X113209Y254112D01*
X113257Y254217D01*
X113302Y254323D01*
X113343Y254431D01*
X113380Y254540D01*
X113413Y254650D01*
X113442Y254762D01*
X113468Y254874D01*
X113490Y254987D01*
X113507Y255101D01*
X113521Y255215D01*
X113531Y255330D01*
X113537Y255445D01*
X113539Y255560D01*
X113538Y255560D02*
X113536Y255675D01*
X113530Y255790D01*
X113520Y255905D01*
X113506Y256019D01*
X113489Y256133D01*
X113467Y256246D01*
X113441Y256358D01*
X113412Y256470D01*
X113379Y256580D01*
X113342Y256689D01*
X113301Y256797D01*
X113256Y256903D01*
X113208Y257008D01*
X113157Y257110D01*
X113101Y257211D01*
X113043Y257311D01*
X112981Y257408D01*
X112916Y257502D01*
X112847Y257595D01*
X112775Y257685D01*
X112701Y257773D01*
X112623Y257858D01*
X112542Y257940D01*
X112459Y258019D01*
X112373Y258096D01*
X112284Y258169D01*
X112193Y258240D01*
X112099Y258307D01*
X112004Y258371D01*
X111906Y258432D01*
X111806Y258489D01*
X111704Y258542D01*
X111600Y258593D01*
X111495Y258639D01*
X111388Y258682D01*
X111280Y258721D01*
X111280Y258720D02*
X110991Y258857D01*
X110699Y258987D01*
X110403Y259110D01*
X110105Y259225D01*
X109804Y259334D01*
X109501Y259435D01*
X109195Y259529D01*
X108888Y259616D01*
X108578Y259695D01*
X108266Y259767D01*
X107953Y259831D01*
X107638Y259888D01*
X107322Y259938D01*
X107005Y259980D01*
X106687Y260014D01*
X106369Y260041D01*
X106049Y260060D01*
X105730Y260071D01*
X105410Y260075D01*
X105410Y251045D02*
X105090Y251049D01*
X104771Y251060D01*
X104451Y251079D01*
X104133Y251106D01*
X103815Y251140D01*
X103498Y251182D01*
X103182Y251232D01*
X102867Y251289D01*
X102554Y251353D01*
X102242Y251425D01*
X101932Y251504D01*
X101625Y251591D01*
X101319Y251685D01*
X101016Y251786D01*
X100715Y251895D01*
X100417Y252010D01*
X100121Y252133D01*
X99829Y252263D01*
X99540Y252400D01*
X99540Y252399D02*
X99432Y252438D01*
X99325Y252481D01*
X99220Y252527D01*
X99116Y252578D01*
X99014Y252631D01*
X98914Y252688D01*
X98816Y252749D01*
X98721Y252813D01*
X98627Y252880D01*
X98536Y252951D01*
X98447Y253024D01*
X98361Y253101D01*
X98278Y253180D01*
X98197Y253262D01*
X98119Y253347D01*
X98045Y253435D01*
X97973Y253525D01*
X97904Y253618D01*
X97839Y253712D01*
X97777Y253809D01*
X97719Y253909D01*
X97663Y254010D01*
X97612Y254112D01*
X97564Y254217D01*
X97519Y254323D01*
X97478Y254431D01*
X97441Y254540D01*
X97408Y254650D01*
X97379Y254762D01*
X97353Y254874D01*
X97331Y254987D01*
X97314Y255101D01*
X97300Y255215D01*
X97290Y255330D01*
X97284Y255445D01*
X97282Y255560D01*
X99540Y258720D02*
X99829Y258857D01*
X100121Y258987D01*
X100417Y259110D01*
X100715Y259225D01*
X101016Y259334D01*
X101319Y259435D01*
X101625Y259529D01*
X101932Y259616D01*
X102242Y259695D01*
X102554Y259767D01*
X102867Y259831D01*
X103182Y259888D01*
X103498Y259938D01*
X103815Y259980D01*
X104133Y260014D01*
X104451Y260041D01*
X104771Y260060D01*
X105090Y260071D01*
X105410Y260075D01*
X99540Y258721D02*
X99432Y258682D01*
X99325Y258639D01*
X99220Y258593D01*
X99116Y258542D01*
X99014Y258489D01*
X98914Y258432D01*
X98816Y258371D01*
X98721Y258307D01*
X98627Y258240D01*
X98536Y258169D01*
X98447Y258096D01*
X98361Y258019D01*
X98278Y257940D01*
X98197Y257858D01*
X98119Y257773D01*
X98045Y257685D01*
X97973Y257595D01*
X97904Y257502D01*
X97839Y257408D01*
X97777Y257311D01*
X97719Y257211D01*
X97663Y257110D01*
X97612Y257007D01*
X97564Y256903D01*
X97519Y256797D01*
X97478Y256689D01*
X97441Y256580D01*
X97408Y256470D01*
X97379Y256358D01*
X97353Y256246D01*
X97331Y256133D01*
X97314Y256019D01*
X97300Y255905D01*
X97290Y255790D01*
X97284Y255675D01*
X97282Y255560D01*
X100894Y251948D02*
X109926Y259172D01*
X105410Y266676D02*
X105730Y266680D01*
X106049Y266691D01*
X106369Y266710D01*
X106687Y266737D01*
X107005Y266771D01*
X107322Y266813D01*
X107638Y266863D01*
X107953Y266920D01*
X108266Y266984D01*
X108578Y267056D01*
X108888Y267135D01*
X109195Y267222D01*
X109501Y267316D01*
X109804Y267417D01*
X110105Y267526D01*
X110403Y267641D01*
X110699Y267764D01*
X110991Y267894D01*
X111280Y268031D01*
X111281Y268030D02*
X111389Y268069D01*
X111496Y268112D01*
X111601Y268158D01*
X111705Y268209D01*
X111807Y268262D01*
X111907Y268319D01*
X112005Y268380D01*
X112100Y268444D01*
X112194Y268511D01*
X112285Y268582D01*
X112374Y268655D01*
X112460Y268732D01*
X112543Y268811D01*
X112624Y268893D01*
X112702Y268978D01*
X112776Y269066D01*
X112848Y269156D01*
X112916Y269248D01*
X112982Y269343D01*
X113044Y269440D01*
X113102Y269539D01*
X113158Y269641D01*
X113209Y269743D01*
X113257Y269848D01*
X113302Y269954D01*
X113343Y270062D01*
X113380Y270171D01*
X113413Y270281D01*
X113442Y270393D01*
X113468Y270505D01*
X113490Y270618D01*
X113507Y270732D01*
X113521Y270846D01*
X113531Y270961D01*
X113537Y271076D01*
X113539Y271191D01*
X113538Y271191D02*
X113536Y271306D01*
X113530Y271421D01*
X113520Y271536D01*
X113506Y271650D01*
X113489Y271764D01*
X113467Y271877D01*
X113441Y271989D01*
X113412Y272101D01*
X113379Y272211D01*
X113342Y272320D01*
X113301Y272428D01*
X113256Y272534D01*
X113208Y272639D01*
X113157Y272741D01*
X113101Y272842D01*
X113043Y272942D01*
X112981Y273039D01*
X112916Y273133D01*
X112847Y273226D01*
X112775Y273316D01*
X112701Y273404D01*
X112623Y273489D01*
X112542Y273571D01*
X112459Y273650D01*
X112373Y273727D01*
X112284Y273800D01*
X112193Y273871D01*
X112099Y273938D01*
X112004Y274002D01*
X111906Y274063D01*
X111806Y274120D01*
X111704Y274173D01*
X111600Y274224D01*
X111495Y274270D01*
X111388Y274313D01*
X111280Y274352D01*
X110991Y274489D01*
X110699Y274619D01*
X110403Y274742D01*
X110105Y274857D01*
X109804Y274966D01*
X109501Y275067D01*
X109195Y275161D01*
X108888Y275248D01*
X108578Y275327D01*
X108266Y275399D01*
X107953Y275463D01*
X107638Y275520D01*
X107322Y275570D01*
X107005Y275612D01*
X106687Y275646D01*
X106369Y275673D01*
X106049Y275692D01*
X105730Y275703D01*
X105410Y275707D01*
X105410Y266676D02*
X105090Y266680D01*
X104771Y266691D01*
X104451Y266710D01*
X104133Y266737D01*
X103815Y266771D01*
X103498Y266813D01*
X103182Y266863D01*
X102867Y266920D01*
X102554Y266984D01*
X102242Y267056D01*
X101932Y267135D01*
X101625Y267222D01*
X101319Y267316D01*
X101016Y267417D01*
X100715Y267526D01*
X100417Y267641D01*
X100121Y267764D01*
X99829Y267894D01*
X99540Y268031D01*
X99540Y268030D02*
X99432Y268069D01*
X99325Y268112D01*
X99220Y268158D01*
X99116Y268209D01*
X99014Y268262D01*
X98914Y268319D01*
X98816Y268380D01*
X98721Y268444D01*
X98627Y268511D01*
X98536Y268582D01*
X98447Y268655D01*
X98361Y268732D01*
X98278Y268811D01*
X98197Y268893D01*
X98119Y268978D01*
X98045Y269066D01*
X97973Y269156D01*
X97904Y269249D01*
X97839Y269343D01*
X97777Y269440D01*
X97719Y269540D01*
X97663Y269641D01*
X97612Y269743D01*
X97564Y269848D01*
X97519Y269954D01*
X97478Y270062D01*
X97441Y270171D01*
X97408Y270281D01*
X97379Y270393D01*
X97353Y270505D01*
X97331Y270618D01*
X97314Y270732D01*
X97300Y270846D01*
X97290Y270961D01*
X97284Y271076D01*
X97282Y271191D01*
X99540Y274351D02*
X99829Y274488D01*
X100121Y274618D01*
X100417Y274741D01*
X100715Y274856D01*
X101016Y274965D01*
X101319Y275066D01*
X101625Y275160D01*
X101932Y275247D01*
X102242Y275326D01*
X102554Y275398D01*
X102867Y275462D01*
X103182Y275519D01*
X103498Y275569D01*
X103815Y275611D01*
X104133Y275645D01*
X104451Y275672D01*
X104771Y275691D01*
X105090Y275702D01*
X105410Y275706D01*
X99540Y274352D02*
X99432Y274313D01*
X99325Y274270D01*
X99220Y274224D01*
X99116Y274173D01*
X99014Y274120D01*
X98914Y274063D01*
X98816Y274002D01*
X98721Y273938D01*
X98627Y273871D01*
X98536Y273800D01*
X98447Y273727D01*
X98361Y273650D01*
X98278Y273571D01*
X98197Y273489D01*
X98119Y273404D01*
X98045Y273316D01*
X97973Y273226D01*
X97904Y273133D01*
X97839Y273039D01*
X97777Y272942D01*
X97719Y272842D01*
X97663Y272741D01*
X97612Y272638D01*
X97564Y272534D01*
X97519Y272428D01*
X97478Y272320D01*
X97441Y272211D01*
X97408Y272101D01*
X97379Y271989D01*
X97353Y271877D01*
X97331Y271764D01*
X97314Y271650D01*
X97300Y271536D01*
X97290Y271421D01*
X97284Y271306D01*
X97282Y271191D01*
X100894Y267579D02*
X109926Y274804D01*
X111732Y282307D02*
X113538Y282307D01*
X113538Y291338D01*
X97282Y286822D01*
X83552Y378516D02*
X83552Y386588D01*
X83551Y378516D02*
X83549Y378405D01*
X83543Y378295D01*
X83533Y378184D01*
X83519Y378074D01*
X83502Y377965D01*
X83480Y377856D01*
X83455Y377748D01*
X83425Y377642D01*
X83392Y377536D01*
X83355Y377431D01*
X83315Y377328D01*
X83270Y377227D01*
X83223Y377127D01*
X83171Y377028D01*
X83116Y376932D01*
X83058Y376838D01*
X82997Y376746D01*
X82932Y376656D01*
X82864Y376568D01*
X82793Y376483D01*
X82719Y376401D01*
X82642Y376321D01*
X82562Y376244D01*
X82480Y376170D01*
X82395Y376099D01*
X82307Y376031D01*
X82217Y375966D01*
X82125Y375905D01*
X82031Y375847D01*
X81935Y375792D01*
X81836Y375740D01*
X81736Y375693D01*
X81635Y375648D01*
X81532Y375608D01*
X81427Y375571D01*
X81321Y375538D01*
X81215Y375508D01*
X81107Y375483D01*
X80998Y375461D01*
X80889Y375444D01*
X80779Y375430D01*
X80668Y375420D01*
X80558Y375414D01*
X80447Y375412D01*
X80336Y375414D01*
X80226Y375420D01*
X80115Y375430D01*
X80005Y375444D01*
X79896Y375461D01*
X79787Y375483D01*
X79679Y375508D01*
X79573Y375538D01*
X79467Y375571D01*
X79362Y375608D01*
X79259Y375648D01*
X79158Y375693D01*
X79058Y375740D01*
X78959Y375792D01*
X78863Y375847D01*
X78769Y375905D01*
X78677Y375966D01*
X78587Y376031D01*
X78499Y376099D01*
X78414Y376170D01*
X78332Y376244D01*
X78252Y376321D01*
X78175Y376401D01*
X78101Y376483D01*
X78030Y376568D01*
X77962Y376656D01*
X77897Y376746D01*
X77836Y376838D01*
X77778Y376932D01*
X77723Y377028D01*
X77671Y377127D01*
X77624Y377227D01*
X77579Y377328D01*
X77539Y377431D01*
X77502Y377536D01*
X77469Y377642D01*
X77439Y377748D01*
X77414Y377856D01*
X77392Y377965D01*
X77375Y378074D01*
X77361Y378184D01*
X77351Y378295D01*
X77345Y378405D01*
X77343Y378516D01*
X77343Y386588D01*
X69257Y386588D02*
X71741Y377896D01*
X65532Y377896D01*
X67395Y380379D02*
X67395Y375412D01*
M02*
