G04 EAGLE Gerber RS-274X export*
G75*
%MOMM*%
%FSLAX34Y34*%
%LPD*%
%INSoldermask Bottom*%
%IPPOS*%
%AMOC8*
5,1,8,0,0,1.08239X$1,22.5*%
G01*
%ADD10R,1.676400X1.676400*%
%ADD11P,1.814519X8X202.500000*%
%ADD12R,1.183641X1.102359*%
%ADD13C,1.272400*%
%ADD14C,2.112400*%
%ADD15C,4.597400*%
%ADD16C,0.609600*%
%ADD17C,1.168400*%
%ADD18R,1.102359X1.183641*%
%ADD19R,1.828800X1.828800*%
%ADD20C,1.828800*%
%ADD21C,1.930400*%


D10*
X702900Y124200D03*
D11*
X702900Y149600D03*
X677500Y124200D03*
X677500Y149600D03*
X652100Y124200D03*
X652100Y149600D03*
X626700Y124200D03*
X626700Y149600D03*
X601300Y124200D03*
X601300Y149600D03*
X575900Y124200D03*
X575900Y149600D03*
X550500Y124200D03*
X550500Y149600D03*
X525100Y124200D03*
X525100Y149600D03*
X499700Y124200D03*
X499700Y149600D03*
X474300Y124200D03*
X474300Y149600D03*
X448900Y124200D03*
X448900Y149600D03*
X423500Y124200D03*
X423500Y149600D03*
X398100Y124200D03*
X398100Y149600D03*
X372700Y124200D03*
X372700Y149600D03*
X347300Y124200D03*
X347300Y149600D03*
X321900Y124200D03*
X321900Y149600D03*
X296500Y124200D03*
X296500Y149600D03*
X271100Y124200D03*
X271100Y149600D03*
D10*
X702900Y378200D03*
D11*
X702900Y403600D03*
X677500Y378200D03*
X677500Y403600D03*
X652100Y378200D03*
X652100Y403600D03*
X626700Y378200D03*
X626700Y403600D03*
X601300Y378200D03*
X601300Y403600D03*
X575900Y378200D03*
X575900Y403600D03*
X550500Y378200D03*
X550500Y403600D03*
X525100Y378200D03*
X525100Y403600D03*
X499700Y378200D03*
X499700Y403600D03*
X474300Y378200D03*
X474300Y403600D03*
X448900Y378200D03*
X448900Y403600D03*
X423500Y378200D03*
X423500Y403600D03*
X398100Y378200D03*
X398100Y403600D03*
X372700Y378200D03*
X372700Y403600D03*
X347300Y378200D03*
X347300Y403600D03*
X321900Y378200D03*
X321900Y403600D03*
X296500Y378200D03*
X296500Y403600D03*
X271100Y378200D03*
X271100Y403600D03*
D12*
X575310Y84201D03*
X575310Y68199D03*
X601980Y84201D03*
X601980Y68199D03*
D13*
X101600Y381750D03*
X101600Y316750D03*
D14*
X126600Y96250D03*
X76600Y96250D03*
X76600Y221250D03*
X126600Y221250D03*
D15*
X38100Y469900D03*
X723900Y469900D03*
X723900Y38100D03*
X38100Y38100D03*
D16*
X665480Y431800D02*
X665482Y431987D01*
X665489Y432174D01*
X665501Y432361D01*
X665517Y432547D01*
X665537Y432733D01*
X665562Y432918D01*
X665592Y433103D01*
X665626Y433287D01*
X665665Y433470D01*
X665708Y433652D01*
X665756Y433832D01*
X665808Y434012D01*
X665865Y434190D01*
X665925Y434367D01*
X665991Y434542D01*
X666060Y434716D01*
X666134Y434888D01*
X666212Y435058D01*
X666294Y435226D01*
X666380Y435392D01*
X666470Y435556D01*
X666564Y435717D01*
X666662Y435877D01*
X666764Y436033D01*
X666870Y436188D01*
X666980Y436339D01*
X667093Y436488D01*
X667210Y436634D01*
X667330Y436777D01*
X667454Y436917D01*
X667581Y437054D01*
X667712Y437188D01*
X667846Y437319D01*
X667983Y437446D01*
X668123Y437570D01*
X668266Y437690D01*
X668412Y437807D01*
X668561Y437920D01*
X668712Y438030D01*
X668867Y438136D01*
X669023Y438238D01*
X669183Y438336D01*
X669344Y438430D01*
X669508Y438520D01*
X669674Y438606D01*
X669842Y438688D01*
X670012Y438766D01*
X670184Y438840D01*
X670358Y438909D01*
X670533Y438975D01*
X670710Y439035D01*
X670888Y439092D01*
X671068Y439144D01*
X671248Y439192D01*
X671430Y439235D01*
X671613Y439274D01*
X671797Y439308D01*
X671982Y439338D01*
X672167Y439363D01*
X672353Y439383D01*
X672539Y439399D01*
X672726Y439411D01*
X672913Y439418D01*
X673100Y439420D01*
X673287Y439418D01*
X673474Y439411D01*
X673661Y439399D01*
X673847Y439383D01*
X674033Y439363D01*
X674218Y439338D01*
X674403Y439308D01*
X674587Y439274D01*
X674770Y439235D01*
X674952Y439192D01*
X675132Y439144D01*
X675312Y439092D01*
X675490Y439035D01*
X675667Y438975D01*
X675842Y438909D01*
X676016Y438840D01*
X676188Y438766D01*
X676358Y438688D01*
X676526Y438606D01*
X676692Y438520D01*
X676856Y438430D01*
X677017Y438336D01*
X677177Y438238D01*
X677333Y438136D01*
X677488Y438030D01*
X677639Y437920D01*
X677788Y437807D01*
X677934Y437690D01*
X678077Y437570D01*
X678217Y437446D01*
X678354Y437319D01*
X678488Y437188D01*
X678619Y437054D01*
X678746Y436917D01*
X678870Y436777D01*
X678990Y436634D01*
X679107Y436488D01*
X679220Y436339D01*
X679330Y436188D01*
X679436Y436033D01*
X679538Y435877D01*
X679636Y435717D01*
X679730Y435556D01*
X679820Y435392D01*
X679906Y435226D01*
X679988Y435058D01*
X680066Y434888D01*
X680140Y434716D01*
X680209Y434542D01*
X680275Y434367D01*
X680335Y434190D01*
X680392Y434012D01*
X680444Y433832D01*
X680492Y433652D01*
X680535Y433470D01*
X680574Y433287D01*
X680608Y433103D01*
X680638Y432918D01*
X680663Y432733D01*
X680683Y432547D01*
X680699Y432361D01*
X680711Y432174D01*
X680718Y431987D01*
X680720Y431800D01*
X680718Y431613D01*
X680711Y431426D01*
X680699Y431239D01*
X680683Y431053D01*
X680663Y430867D01*
X680638Y430682D01*
X680608Y430497D01*
X680574Y430313D01*
X680535Y430130D01*
X680492Y429948D01*
X680444Y429768D01*
X680392Y429588D01*
X680335Y429410D01*
X680275Y429233D01*
X680209Y429058D01*
X680140Y428884D01*
X680066Y428712D01*
X679988Y428542D01*
X679906Y428374D01*
X679820Y428208D01*
X679730Y428044D01*
X679636Y427883D01*
X679538Y427723D01*
X679436Y427567D01*
X679330Y427412D01*
X679220Y427261D01*
X679107Y427112D01*
X678990Y426966D01*
X678870Y426823D01*
X678746Y426683D01*
X678619Y426546D01*
X678488Y426412D01*
X678354Y426281D01*
X678217Y426154D01*
X678077Y426030D01*
X677934Y425910D01*
X677788Y425793D01*
X677639Y425680D01*
X677488Y425570D01*
X677333Y425464D01*
X677177Y425362D01*
X677017Y425264D01*
X676856Y425170D01*
X676692Y425080D01*
X676526Y424994D01*
X676358Y424912D01*
X676188Y424834D01*
X676016Y424760D01*
X675842Y424691D01*
X675667Y424625D01*
X675490Y424565D01*
X675312Y424508D01*
X675132Y424456D01*
X674952Y424408D01*
X674770Y424365D01*
X674587Y424326D01*
X674403Y424292D01*
X674218Y424262D01*
X674033Y424237D01*
X673847Y424217D01*
X673661Y424201D01*
X673474Y424189D01*
X673287Y424182D01*
X673100Y424180D01*
X672913Y424182D01*
X672726Y424189D01*
X672539Y424201D01*
X672353Y424217D01*
X672167Y424237D01*
X671982Y424262D01*
X671797Y424292D01*
X671613Y424326D01*
X671430Y424365D01*
X671248Y424408D01*
X671068Y424456D01*
X670888Y424508D01*
X670710Y424565D01*
X670533Y424625D01*
X670358Y424691D01*
X670184Y424760D01*
X670012Y424834D01*
X669842Y424912D01*
X669674Y424994D01*
X669508Y425080D01*
X669344Y425170D01*
X669183Y425264D01*
X669023Y425362D01*
X668867Y425464D01*
X668712Y425570D01*
X668561Y425680D01*
X668412Y425793D01*
X668266Y425910D01*
X668123Y426030D01*
X667983Y426154D01*
X667846Y426281D01*
X667712Y426412D01*
X667581Y426546D01*
X667454Y426683D01*
X667330Y426823D01*
X667210Y426966D01*
X667093Y427112D01*
X666980Y427261D01*
X666870Y427412D01*
X666764Y427567D01*
X666662Y427723D01*
X666564Y427883D01*
X666470Y428044D01*
X666380Y428208D01*
X666294Y428374D01*
X666212Y428542D01*
X666134Y428712D01*
X666060Y428884D01*
X665991Y429058D01*
X665925Y429233D01*
X665865Y429410D01*
X665808Y429588D01*
X665756Y429768D01*
X665708Y429948D01*
X665665Y430130D01*
X665626Y430313D01*
X665592Y430497D01*
X665562Y430682D01*
X665537Y430867D01*
X665517Y431053D01*
X665501Y431239D01*
X665489Y431426D01*
X665482Y431613D01*
X665480Y431800D01*
D17*
X673100Y431800D03*
D16*
X665480Y88900D02*
X665482Y89087D01*
X665489Y89274D01*
X665501Y89461D01*
X665517Y89647D01*
X665537Y89833D01*
X665562Y90018D01*
X665592Y90203D01*
X665626Y90387D01*
X665665Y90570D01*
X665708Y90752D01*
X665756Y90932D01*
X665808Y91112D01*
X665865Y91290D01*
X665925Y91467D01*
X665991Y91642D01*
X666060Y91816D01*
X666134Y91988D01*
X666212Y92158D01*
X666294Y92326D01*
X666380Y92492D01*
X666470Y92656D01*
X666564Y92817D01*
X666662Y92977D01*
X666764Y93133D01*
X666870Y93288D01*
X666980Y93439D01*
X667093Y93588D01*
X667210Y93734D01*
X667330Y93877D01*
X667454Y94017D01*
X667581Y94154D01*
X667712Y94288D01*
X667846Y94419D01*
X667983Y94546D01*
X668123Y94670D01*
X668266Y94790D01*
X668412Y94907D01*
X668561Y95020D01*
X668712Y95130D01*
X668867Y95236D01*
X669023Y95338D01*
X669183Y95436D01*
X669344Y95530D01*
X669508Y95620D01*
X669674Y95706D01*
X669842Y95788D01*
X670012Y95866D01*
X670184Y95940D01*
X670358Y96009D01*
X670533Y96075D01*
X670710Y96135D01*
X670888Y96192D01*
X671068Y96244D01*
X671248Y96292D01*
X671430Y96335D01*
X671613Y96374D01*
X671797Y96408D01*
X671982Y96438D01*
X672167Y96463D01*
X672353Y96483D01*
X672539Y96499D01*
X672726Y96511D01*
X672913Y96518D01*
X673100Y96520D01*
X673287Y96518D01*
X673474Y96511D01*
X673661Y96499D01*
X673847Y96483D01*
X674033Y96463D01*
X674218Y96438D01*
X674403Y96408D01*
X674587Y96374D01*
X674770Y96335D01*
X674952Y96292D01*
X675132Y96244D01*
X675312Y96192D01*
X675490Y96135D01*
X675667Y96075D01*
X675842Y96009D01*
X676016Y95940D01*
X676188Y95866D01*
X676358Y95788D01*
X676526Y95706D01*
X676692Y95620D01*
X676856Y95530D01*
X677017Y95436D01*
X677177Y95338D01*
X677333Y95236D01*
X677488Y95130D01*
X677639Y95020D01*
X677788Y94907D01*
X677934Y94790D01*
X678077Y94670D01*
X678217Y94546D01*
X678354Y94419D01*
X678488Y94288D01*
X678619Y94154D01*
X678746Y94017D01*
X678870Y93877D01*
X678990Y93734D01*
X679107Y93588D01*
X679220Y93439D01*
X679330Y93288D01*
X679436Y93133D01*
X679538Y92977D01*
X679636Y92817D01*
X679730Y92656D01*
X679820Y92492D01*
X679906Y92326D01*
X679988Y92158D01*
X680066Y91988D01*
X680140Y91816D01*
X680209Y91642D01*
X680275Y91467D01*
X680335Y91290D01*
X680392Y91112D01*
X680444Y90932D01*
X680492Y90752D01*
X680535Y90570D01*
X680574Y90387D01*
X680608Y90203D01*
X680638Y90018D01*
X680663Y89833D01*
X680683Y89647D01*
X680699Y89461D01*
X680711Y89274D01*
X680718Y89087D01*
X680720Y88900D01*
X680718Y88713D01*
X680711Y88526D01*
X680699Y88339D01*
X680683Y88153D01*
X680663Y87967D01*
X680638Y87782D01*
X680608Y87597D01*
X680574Y87413D01*
X680535Y87230D01*
X680492Y87048D01*
X680444Y86868D01*
X680392Y86688D01*
X680335Y86510D01*
X680275Y86333D01*
X680209Y86158D01*
X680140Y85984D01*
X680066Y85812D01*
X679988Y85642D01*
X679906Y85474D01*
X679820Y85308D01*
X679730Y85144D01*
X679636Y84983D01*
X679538Y84823D01*
X679436Y84667D01*
X679330Y84512D01*
X679220Y84361D01*
X679107Y84212D01*
X678990Y84066D01*
X678870Y83923D01*
X678746Y83783D01*
X678619Y83646D01*
X678488Y83512D01*
X678354Y83381D01*
X678217Y83254D01*
X678077Y83130D01*
X677934Y83010D01*
X677788Y82893D01*
X677639Y82780D01*
X677488Y82670D01*
X677333Y82564D01*
X677177Y82462D01*
X677017Y82364D01*
X676856Y82270D01*
X676692Y82180D01*
X676526Y82094D01*
X676358Y82012D01*
X676188Y81934D01*
X676016Y81860D01*
X675842Y81791D01*
X675667Y81725D01*
X675490Y81665D01*
X675312Y81608D01*
X675132Y81556D01*
X674952Y81508D01*
X674770Y81465D01*
X674587Y81426D01*
X674403Y81392D01*
X674218Y81362D01*
X674033Y81337D01*
X673847Y81317D01*
X673661Y81301D01*
X673474Y81289D01*
X673287Y81282D01*
X673100Y81280D01*
X672913Y81282D01*
X672726Y81289D01*
X672539Y81301D01*
X672353Y81317D01*
X672167Y81337D01*
X671982Y81362D01*
X671797Y81392D01*
X671613Y81426D01*
X671430Y81465D01*
X671248Y81508D01*
X671068Y81556D01*
X670888Y81608D01*
X670710Y81665D01*
X670533Y81725D01*
X670358Y81791D01*
X670184Y81860D01*
X670012Y81934D01*
X669842Y82012D01*
X669674Y82094D01*
X669508Y82180D01*
X669344Y82270D01*
X669183Y82364D01*
X669023Y82462D01*
X668867Y82564D01*
X668712Y82670D01*
X668561Y82780D01*
X668412Y82893D01*
X668266Y83010D01*
X668123Y83130D01*
X667983Y83254D01*
X667846Y83381D01*
X667712Y83512D01*
X667581Y83646D01*
X667454Y83783D01*
X667330Y83923D01*
X667210Y84066D01*
X667093Y84212D01*
X666980Y84361D01*
X666870Y84512D01*
X666764Y84667D01*
X666662Y84823D01*
X666564Y84983D01*
X666470Y85144D01*
X666380Y85308D01*
X666294Y85474D01*
X666212Y85642D01*
X666134Y85812D01*
X666060Y85984D01*
X665991Y86158D01*
X665925Y86333D01*
X665865Y86510D01*
X665808Y86688D01*
X665756Y86868D01*
X665708Y87048D01*
X665665Y87230D01*
X665626Y87413D01*
X665592Y87597D01*
X665562Y87782D01*
X665537Y87967D01*
X665517Y88153D01*
X665501Y88339D01*
X665489Y88526D01*
X665482Y88713D01*
X665480Y88900D01*
D17*
X673100Y88900D03*
D16*
X30480Y88900D02*
X30482Y89087D01*
X30489Y89274D01*
X30501Y89461D01*
X30517Y89647D01*
X30537Y89833D01*
X30562Y90018D01*
X30592Y90203D01*
X30626Y90387D01*
X30665Y90570D01*
X30708Y90752D01*
X30756Y90932D01*
X30808Y91112D01*
X30865Y91290D01*
X30925Y91467D01*
X30991Y91642D01*
X31060Y91816D01*
X31134Y91988D01*
X31212Y92158D01*
X31294Y92326D01*
X31380Y92492D01*
X31470Y92656D01*
X31564Y92817D01*
X31662Y92977D01*
X31764Y93133D01*
X31870Y93288D01*
X31980Y93439D01*
X32093Y93588D01*
X32210Y93734D01*
X32330Y93877D01*
X32454Y94017D01*
X32581Y94154D01*
X32712Y94288D01*
X32846Y94419D01*
X32983Y94546D01*
X33123Y94670D01*
X33266Y94790D01*
X33412Y94907D01*
X33561Y95020D01*
X33712Y95130D01*
X33867Y95236D01*
X34023Y95338D01*
X34183Y95436D01*
X34344Y95530D01*
X34508Y95620D01*
X34674Y95706D01*
X34842Y95788D01*
X35012Y95866D01*
X35184Y95940D01*
X35358Y96009D01*
X35533Y96075D01*
X35710Y96135D01*
X35888Y96192D01*
X36068Y96244D01*
X36248Y96292D01*
X36430Y96335D01*
X36613Y96374D01*
X36797Y96408D01*
X36982Y96438D01*
X37167Y96463D01*
X37353Y96483D01*
X37539Y96499D01*
X37726Y96511D01*
X37913Y96518D01*
X38100Y96520D01*
X38287Y96518D01*
X38474Y96511D01*
X38661Y96499D01*
X38847Y96483D01*
X39033Y96463D01*
X39218Y96438D01*
X39403Y96408D01*
X39587Y96374D01*
X39770Y96335D01*
X39952Y96292D01*
X40132Y96244D01*
X40312Y96192D01*
X40490Y96135D01*
X40667Y96075D01*
X40842Y96009D01*
X41016Y95940D01*
X41188Y95866D01*
X41358Y95788D01*
X41526Y95706D01*
X41692Y95620D01*
X41856Y95530D01*
X42017Y95436D01*
X42177Y95338D01*
X42333Y95236D01*
X42488Y95130D01*
X42639Y95020D01*
X42788Y94907D01*
X42934Y94790D01*
X43077Y94670D01*
X43217Y94546D01*
X43354Y94419D01*
X43488Y94288D01*
X43619Y94154D01*
X43746Y94017D01*
X43870Y93877D01*
X43990Y93734D01*
X44107Y93588D01*
X44220Y93439D01*
X44330Y93288D01*
X44436Y93133D01*
X44538Y92977D01*
X44636Y92817D01*
X44730Y92656D01*
X44820Y92492D01*
X44906Y92326D01*
X44988Y92158D01*
X45066Y91988D01*
X45140Y91816D01*
X45209Y91642D01*
X45275Y91467D01*
X45335Y91290D01*
X45392Y91112D01*
X45444Y90932D01*
X45492Y90752D01*
X45535Y90570D01*
X45574Y90387D01*
X45608Y90203D01*
X45638Y90018D01*
X45663Y89833D01*
X45683Y89647D01*
X45699Y89461D01*
X45711Y89274D01*
X45718Y89087D01*
X45720Y88900D01*
X45718Y88713D01*
X45711Y88526D01*
X45699Y88339D01*
X45683Y88153D01*
X45663Y87967D01*
X45638Y87782D01*
X45608Y87597D01*
X45574Y87413D01*
X45535Y87230D01*
X45492Y87048D01*
X45444Y86868D01*
X45392Y86688D01*
X45335Y86510D01*
X45275Y86333D01*
X45209Y86158D01*
X45140Y85984D01*
X45066Y85812D01*
X44988Y85642D01*
X44906Y85474D01*
X44820Y85308D01*
X44730Y85144D01*
X44636Y84983D01*
X44538Y84823D01*
X44436Y84667D01*
X44330Y84512D01*
X44220Y84361D01*
X44107Y84212D01*
X43990Y84066D01*
X43870Y83923D01*
X43746Y83783D01*
X43619Y83646D01*
X43488Y83512D01*
X43354Y83381D01*
X43217Y83254D01*
X43077Y83130D01*
X42934Y83010D01*
X42788Y82893D01*
X42639Y82780D01*
X42488Y82670D01*
X42333Y82564D01*
X42177Y82462D01*
X42017Y82364D01*
X41856Y82270D01*
X41692Y82180D01*
X41526Y82094D01*
X41358Y82012D01*
X41188Y81934D01*
X41016Y81860D01*
X40842Y81791D01*
X40667Y81725D01*
X40490Y81665D01*
X40312Y81608D01*
X40132Y81556D01*
X39952Y81508D01*
X39770Y81465D01*
X39587Y81426D01*
X39403Y81392D01*
X39218Y81362D01*
X39033Y81337D01*
X38847Y81317D01*
X38661Y81301D01*
X38474Y81289D01*
X38287Y81282D01*
X38100Y81280D01*
X37913Y81282D01*
X37726Y81289D01*
X37539Y81301D01*
X37353Y81317D01*
X37167Y81337D01*
X36982Y81362D01*
X36797Y81392D01*
X36613Y81426D01*
X36430Y81465D01*
X36248Y81508D01*
X36068Y81556D01*
X35888Y81608D01*
X35710Y81665D01*
X35533Y81725D01*
X35358Y81791D01*
X35184Y81860D01*
X35012Y81934D01*
X34842Y82012D01*
X34674Y82094D01*
X34508Y82180D01*
X34344Y82270D01*
X34183Y82364D01*
X34023Y82462D01*
X33867Y82564D01*
X33712Y82670D01*
X33561Y82780D01*
X33412Y82893D01*
X33266Y83010D01*
X33123Y83130D01*
X32983Y83254D01*
X32846Y83381D01*
X32712Y83512D01*
X32581Y83646D01*
X32454Y83783D01*
X32330Y83923D01*
X32210Y84066D01*
X32093Y84212D01*
X31980Y84361D01*
X31870Y84512D01*
X31764Y84667D01*
X31662Y84823D01*
X31564Y84983D01*
X31470Y85144D01*
X31380Y85308D01*
X31294Y85474D01*
X31212Y85642D01*
X31134Y85812D01*
X31060Y85984D01*
X30991Y86158D01*
X30925Y86333D01*
X30865Y86510D01*
X30808Y86688D01*
X30756Y86868D01*
X30708Y87048D01*
X30665Y87230D01*
X30626Y87413D01*
X30592Y87597D01*
X30562Y87782D01*
X30537Y87967D01*
X30517Y88153D01*
X30501Y88339D01*
X30489Y88526D01*
X30482Y88713D01*
X30480Y88900D01*
D17*
X38100Y88900D03*
D18*
X96901Y31750D03*
X80899Y31750D03*
D19*
X679450Y800100D03*
D20*
X654050Y800100D03*
X628650Y800100D03*
X603250Y800100D03*
X577850Y800100D03*
X552450Y800100D03*
X527050Y800100D03*
X501650Y800100D03*
X476250Y800100D03*
X450850Y800100D03*
X425450Y800100D03*
X400050Y800100D03*
X374650Y800100D03*
X349250Y800100D03*
X323850Y800100D03*
X298450Y800100D03*
X273050Y800100D03*
X247650Y800100D03*
X222250Y800100D03*
X196850Y800100D03*
D19*
X679450Y38100D03*
D20*
X654050Y38100D03*
X628650Y38100D03*
X603250Y38100D03*
X577850Y38100D03*
X552450Y38100D03*
X527050Y38100D03*
X501650Y38100D03*
X476250Y38100D03*
X450850Y38100D03*
X425450Y38100D03*
X400050Y38100D03*
X374650Y38100D03*
X349250Y38100D03*
X323850Y38100D03*
X298450Y38100D03*
X273050Y38100D03*
X247650Y38100D03*
X222250Y38100D03*
X196850Y38100D03*
D21*
X177800Y304800D03*
X177800Y279400D03*
X177800Y254000D03*
X177800Y228600D03*
X177800Y203200D03*
X177800Y177800D03*
X25400Y177800D03*
X25400Y203200D03*
X25400Y304800D03*
X25400Y279400D03*
M02*
